<?xml version="1.0" encoding="UTF-8" standalone="no"?>
<!DOCTYPE svg PUBLIC "-//W3C//DTD SVG 1.1//EN" "http://www.w3.org/Graphics/SVG/1.1/DTD/svg11.dtd">
<svg xmlns="http://www.w3.org/2000/svg" version="1.1" viewBox="0.00 0.00 300.00 108.00">
<g stroke-width="2.00" fill="none" stroke-linecap="butt">
<path stroke="#80b300" vector-effect="non-scaling-stroke" d="
  M 53.76 19.13
  L 47.82 24.48"
/>
<path stroke="#80b300" vector-effect="non-scaling-stroke" d="
  M 60.16 25.02
  L 53.96 30.65"
/>
<path stroke="#00b669" vector-effect="non-scaling-stroke" d="
  M 53.88 30.84
  L 48.36 24.93
  Q 48.23 24.78 48.05 24.86
  Q 47.92 24.92 47.84 25.03"
/>
<path stroke="#00b669" vector-effect="non-scaling-stroke" d="
  M 60.19 24.51
  L 54.10 18.82"
/>
<path stroke="#ff8404" vector-effect="non-scaling-stroke" d="
  M 68.70 33.55
  L 62.64 39.35"
/>
<path stroke="#008991" vector-effect="non-scaling-stroke" d="
  M 45.36 39.32
  L 39.41 33.44"
/>
<path stroke="#ff4b3a" vector-effect="non-scaling-stroke" d="
  M 53.79 47.93
  L 47.97 53.71"
/>
<path stroke="#804d5f" vector-effect="non-scaling-stroke" d="
  M 45.36 39.48
  L 39.73 45.47"
/>
<path stroke="#ff8404" vector-effect="non-scaling-stroke" d="
  M 74.41 39.36
  L 68.78 45.39"
/>
<path stroke="#ff4b3a" vector-effect="non-scaling-stroke" d="
  M 68.27 45.53
  Q 68.22 44.88 67.29 43.96
  Q 63.68 40.39 62.60 39.53"
/>
<path stroke="#ff4b3a" vector-effect="non-scaling-stroke" d="
  M 68.45 62.49
  L 62.51 68.24"
/>
<path stroke="#804d5f" vector-effect="non-scaling-stroke" d="
  M 45.46 68.25
  L 39.57 62.52"
/>
<path stroke="#ff4b3a" vector-effect="non-scaling-stroke" d="
  M 47.83 54.27
  Q 47.91 54.10 48.11 54.12
  Q 48.24 54.14 48.36 54.27
  Q 51.30 57.17 53.89 59.76
  Q 54.06 59.94 54.24 59.76
  L 59.66 54.28
  A 0.45 0.45 0.0 0 0 59.66 53.64
  L 54.51 48.47
  Q 54.35 48.30 54.38 48.08
  Q 54.40 47.89 54.40 47.75"
/>
<path stroke="#ff8d37" vector-effect="non-scaling-stroke" d="
  M 74.68 39.26
  Q 74.46 39.30 74.41 39.36"
/>
<path stroke="#ff4b3a" vector-effect="non-scaling-stroke" d="
  M 74.41 39.36
  L 68.70 33.55"
/>
<path stroke="#ff8d37" vector-effect="non-scaling-stroke" d="
  M 68.70 33.55
  Q 68.58 33.64 68.72 33.11"
/>
<path stroke="#80909f" vector-effect="non-scaling-stroke" d="
  M 39.40 33.40
  Q 39.67 33.86 39.41 33.44"
/>
<path stroke="#804d5f" vector-effect="non-scaling-stroke" d="
  M 39.41 33.44
  Q 36.67 36.24 33.91 38.91
  Q 33.54 39.27 33.14 38.99"
/>
<path stroke="#008991" vector-effect="non-scaling-stroke" d="
  M 33.18 39.63
  L 39.33 45.33"
/>
<path stroke="#008991" vector-effect="non-scaling-stroke" d="
  M 39.33 62.58
  L 33.15 68.19"
/>
<path stroke="#ffb200" vector-effect="non-scaling-stroke" d="
  M 82.93 47.87
  L 78.45 52.64
  A 1.88 1.88 0.0 0 0 78.47 55.23
  Q 80.24 57.06 82.32 59.23
  Q 82.58 59.50 82.61 59.77
  Q 82.64 60.08 82.53 60.41"
/>
<path stroke="#ff8404" vector-effect="non-scaling-stroke" d="
  M 74.62 68.36
  L 68.68 62.55"
/>
<path stroke="#ff4b3a" vector-effect="non-scaling-stroke" d="
  M 74.96 68.97
  Q 74.60 68.89 74.32 68.93
  Q 74.07 68.97 73.81 69.24
  Q 71.42 71.64 69.09 74.09
  Q 68.82 74.37 68.97 74.71"
/>
<path stroke="#ff8404" vector-effect="non-scaling-stroke" d="
  M 68.54 74.53
  L 62.62 68.56"
/>
<path stroke="#008991" vector-effect="non-scaling-stroke" d="
  M 45.51 68.71
  L 39.41 74.46"
/>
<path stroke="#804d5f" vector-effect="non-scaling-stroke" d="
  M 39.09 74.78
  Q 39.24 74.24 38.99 74.00
  Q 36.42 71.45 33.71 69.06
  Q 33.12 68.54 33.14 68.83"
/>
<path stroke="#80b300" vector-effect="non-scaling-stroke" d="
  M 59.95 83.08
  L 53.99 77.22"
/>
<path stroke="#00b669" vector-effect="non-scaling-stroke" d="
  M 53.94 77.15
  L 48.02 83.05"
/>
<path stroke="#00b669" vector-effect="non-scaling-stroke" d="
  M 59.95 83.14
  L 54.15 89.05"
/>
<path stroke="#80b300" vector-effect="non-scaling-stroke" d="
  M 53.85 89.07
  Q 51.44 86.10 48.51 83.71
  Q 48.21 83.47 47.75 83.44"
/>
<path stroke="#ffb200" vector-effect="non-scaling-stroke" d="
  M 83.64 60.20
  Q 85.17 57.48 87.69 55.60
  A 1.90 1.90 0.0 0 0 87.88 52.72
  Q 86.10 50.97 83.99 48.74
  Q 83.77 48.51 83.71 48.23
  Q 83.66 47.96 83.63 47.65"
/>
<path stroke="#00b4b9" vector-effect="non-scaling-stroke" d="
  M 25.8699 49.0353
  A 1.41 1.41 0.0 0 0 23.8759 49.0144
  L 19.8749 52.9326
  A 1.41 1.41 0.0 0 0 19.8540 54.9265
  L 23.7301 58.8847
  A 1.41 1.41 0.0 0 0 25.7241 58.9056
  L 29.7251 54.9874
  A 1.41 1.41 0.0 0 0 29.7460 52.9935
  L 25.8699 49.0353"
/>
</g>
<path fill="#000000" d="
  M 166.18 0.00
  L 169.75 0.00
  Q 173.88 1.53 174.42 5.81
  Q 174.49 6.33 173.97 6.38
  L 170.71 6.68
  Q 170.10 6.74 169.93 6.16
  C 169.42 4.46 168.62 3.23 166.61 4.18
  Q 166.13 4.41 165.99 4.92
  C 164.87 8.88 169.26 11.21 172.13 14.12
  C 175.49 17.52 176.01 23.97 170.77 25.99
  C 166.15 27.78 160.55 25.13 161.15 19.74
  A 0.69 0.69 0.0 0 1 161.76 19.13
  L 164.49 18.86
  A 0.61 0.61 0.0 0 1 165.14 19.31
  C 165.61 21.14 166.28 22.89 168.68 22.47
  A 1.92 1.92 0.0 0 0 170.24 20.73
  C 170.53 16.69 164.80 14.17 162.84 10.95
  Q 158.21 3.35 166.18 0.00
  Z"
/>
<path fill="#000000" d="
  M 273.80 0.00
  L 277.25 0.00
  Q 282.38 1.43 282.39 7.00
  Q 282.41 13.26 282.44 19.49
  C 282.47 24.35 279.05 27.07 274.38 26.61
  C 269.22 26.09 268.52 22.03 268.55 17.40
  Q 268.58 12.44 268.57 7.51
  Q 268.55 1.43 273.80 0.00
  Z
  M 277.7631 5.7240
  A 1.77 1.77 0.0 0 0 275.9962 3.9509
  L 274.9362 3.9491
  A 1.77 1.77 0.0 0 0 273.1631 5.7160
  L 273.1369 20.7360
  A 1.77 1.77 0.0 0 0 274.9038 22.5091
  L 275.9638 22.5109
  A 1.77 1.77 0.0 0 0 277.7369 20.7440
  L 277.7631 5.7240
  Z"
/>
<path fill="#ffc600" d="
  M 53.76 19.13
  L 47.82 24.48
  L 29.70 6.35
  Q 29.15 5.80 29.70 5.24
  L 34.46 0.49
  A 0.77 0.76 -44.7 0 1 35.55 0.49
  L 53.76 19.13
  Z"
/>
<path fill="#00ccd1" d="
  M 60.19 24.51
  L 54.10 18.82
  L 72.56 0.37
  A 0.62 0.62 0.0 0 1 73.43 0.37
  L 78.44 5.37
  Q 78.90 5.83 78.44 6.29
  L 60.19 24.51
  Z"
/>
<rect fill="#000000" x="134.88" y="0.28" width="4.32" height="25.98" rx="0.42"/>
<path fill="#000000" d="
  M 153.42 13.61
  Q 153.78 14.25 153.78 13.52
  L 153.70 0.80
  Q 153.69 0.30 154.20 0.30
  L 157.30 0.28
  Q 157.90 0.27 157.90 0.87
  L 157.91 25.68
  Q 157.91 26.26 157.32 26.26
  L 154.33 26.24
  Q 153.89 26.24 153.74 25.82
  L 149.12 12.83
  Q 148.26 10.40 148.26 12.98
  L 148.28 25.99
  A 0.27 0.27 0.0 0 1 148.01 26.26
  L 144.25 26.23
  Q 144.02 26.23 144.02 26.00
  L 144.01 0.90
  Q 144.01 0.31 144.60 0.30
  L 147.70 0.27
  Q 148.25 0.27 148.45 0.78
  C 150.05 4.88 151.29 9.84 153.42 13.61
  Z"
/>
<path fill="#000000" d="
  M 176.28 3.84
  L 176.27 0.68
  A 0.39 0.39 0.0 0 1 176.66 0.29
  L 188.99 0.28
  A 0.39 0.39 0.0 0 1 189.38 0.68
  L 189.34 3.83
  A 0.39 0.39 0.0 0 1 188.94 4.21
  L 185.50 4.20
  A 0.39 0.39 0.0 0 0 185.11 4.59
  L 185.13 25.84
  A 0.39 0.39 0.0 0 1 184.74 26.23
  L 180.82 26.26
  A 0.39 0.39 0.0 0 1 180.43 25.87
  L 180.40 4.58
  A 0.39 0.39 0.0 0 0 180.01 4.19
  L 176.67 4.23
  A 0.39 0.39 0.0 0 1 176.28 3.84
  Z"
/>
<rect fill="#000000" x="192.49" y="0.29" width="4.56" height="25.96" rx="0.39"/>
<path fill="#000000" d="
  M 208.83 4.59
  L 208.83 25.86
  A 0.39 0.39 0.0 0 1 208.44 26.25
  L 204.87 26.26
  A 0.39 0.39 0.0 0 1 204.48 25.87
  L 204.48 4.60
  A 0.39 0.39 0.0 0 0 204.09 4.21
  L 200.53 4.21
  A 0.39 0.39 0.0 0 1 200.14 3.83
  L 200.05 0.71
  A 0.39 0.39 0.0 0 1 200.44 0.31
  L 212.88 0.27
  A 0.39 0.39 0.0 0 1 213.27 0.66
  L 213.25 3.83
  A 0.39 0.39 0.0 0 1 212.86 4.22
  L 209.22 4.20
  A 0.39 0.39 0.0 0 0 208.83 4.59
  Z"
/>
<path fill="#000000" d="
  M 222.69 22.52
  Q 224.92 22.54 224.92 20.31
  L 224.92 0.80
  Q 224.92 0.28 225.45 0.28
  L 228.98 0.28
  Q 229.46 0.29 229.46 0.77
  Q 229.49 9.64 229.45 18.74
  C 229.43 21.41 229.32 23.71 227.00 25.35
  C 223.95 27.49 218.29 27.10 216.41 23.34
  Q 215.79 22.10 215.77 19.56
  Q 215.68 10.04 215.74 0.82
  Q 215.75 0.30 216.27 0.29
  L 219.94 0.28
  Q 220.36 0.27 220.36 0.69
  L 220.37 20.69
  A 1.84 1.83 0.3 0 0 222.19 22.52
  L 222.69 22.52
  Z"
/>
<path fill="#000000" d="
  M 240.86 4.59
  L 240.87 25.87
  A 0.39 0.39 0.0 0 1 240.48 26.26
  L 236.68 26.24
  A 0.39 0.39 0.0 0 1 236.29 25.85
  L 236.31 4.57
  A 0.39 0.39 0.0 0 0 235.91 4.18
  L 232.25 4.22
  A 0.39 0.39 0.0 0 1 231.85 3.84
  L 231.78 0.69
  A 0.39 0.39 0.0 0 1 232.17 0.29
  L 244.62 0.28
  A 0.39 0.39 0.0 0 1 245.01 0.67
  L 245.02 3.84
  A 0.39 0.39 0.0 0 1 244.63 4.23
  L 241.25 4.20
  A 0.39 0.39 0.0 0 0 240.86 4.59
  Z"
/>
<path fill="#000000" d="
  M 252.19 15.11
  L 252.18 21.77
  A 0.38 0.38 0.0 0 0 252.56 22.15
  L 259.72 22.16
  A 0.38 0.38 0.0 0 1 260.10 22.54
  L 260.14 25.87
  A 0.38 0.38 0.0 0 1 259.76 26.25
  L 247.92 26.26
  A 0.38 0.38 0.0 0 1 247.54 25.88
  L 247.54 0.66
  A 0.38 0.38 0.0 0 1 247.92 0.28
  L 259.29 0.28
  A 0.38 0.38 0.0 0 1 259.67 0.66
  L 259.68 3.85
  A 0.38 0.38 0.0 0 1 259.30 4.23
  L 252.60 4.21
  A 0.38 0.38 0.0 0 0 252.22 4.59
  L 252.20 10.55
  A 0.38 0.38 0.0 0 0 252.58 10.93
  L 257.46 10.95
  A 0.38 0.38 0.0 0 1 257.84 11.33
  L 257.85 14.30
  A 0.38 0.38 0.0 0 1 257.47 14.68
  L 252.57 14.73
  A 0.38 0.38 0.0 0 0 252.19 15.11
  Z"
/>
<path fill="#000000" d="
  M 291.09 15.09
  L 291.14 25.84
  A 0.38 0.38 0.0 0 1 290.76 26.22
  L 286.80 26.27
  A 0.38 0.38 0.0 0 1 286.42 25.89
  L 286.42 0.65
  A 0.38 0.38 0.0 0 1 286.80 0.27
  L 298.69 0.31
  A 0.38 0.38 0.0 0 1 299.06 0.69
  L 299.02 3.82
  A 0.38 0.38 0.0 0 1 298.64 4.19
  L 291.49 4.22
  A 0.38 0.38 0.0 0 0 291.11 4.60
  L 291.11 10.55
  A 0.38 0.38 0.0 0 0 291.49 10.93
  L 296.56 10.94
  A 0.38 0.38 0.0 0 1 296.94 11.32
  L 296.92 14.33
  A 0.38 0.38 0.0 0 1 296.54 14.71
  L 291.47 14.71
  A 0.38 0.38 0.0 0 0 291.09 15.09
  Z"
/>
<path fill="#ff546d" d="
  M 39.40 33.40
  Q 39.67 33.86 39.41 33.44
  Q 36.67 36.24 33.91 38.91
  Q 33.54 39.27 33.14 38.99
  L 14.70 20.59
  Q 14.50 20.39 14.70 20.20
  L 20.24 14.70
  Q 20.45 14.49 20.67 14.70
  L 39.40 33.40
  Z"
/>
<path fill="#ff546d" d="
  M 74.68 39.26
  Q 74.46 39.30 74.41 39.36
  L 68.70 33.55
  Q 68.58 33.64 68.72 33.11
  L 87.39 14.67
  Q 87.57 14.49 87.76 14.68
  L 93.32 20.23
  A 0.28 0.28 0.0 0 1 93.32 20.62
  L 74.68 39.26
  Z"
/>
<path fill="#00a000" d="
  M 54.10 18.82
  L 60.19 24.51
  Q 60.32 24.76 60.16 25.02
  L 53.96 30.65
  Q 53.92 30.74 53.88 30.84
  L 48.36 24.93
  Q 48.23 24.78 48.05 24.86
  Q 47.92 24.92 47.84 25.03
  Q 47.78 24.73 47.82 24.48
  L 53.76 19.13
  Q 54.14 19.02 54.10 18.82
  Z"
/>
<path fill="#00ccd1" d="
  M 53.88 30.84
  L 45.36 39.32
  L 39.41 33.44
  Q 39.67 33.86 39.40 33.40
  L 47.84 25.03
  Q 47.92 24.92 48.05 24.86
  Q 48.23 24.78 48.36 24.93
  L 53.88 30.84
  Z"
/>
<path fill="#ffc600" d="
  M 60.16 25.02
  L 68.72 33.11
  Q 68.58 33.64 68.70 33.55
  L 62.64 39.35
  L 53.96 30.65
  L 60.16 25.02
  Z"
/>
<path fill="#00ccd1" d="
  M 33.18 39.63
  L 39.33 45.33
  L 31.04 53.60
  A 0.49 0.49 0.0 0 0 31.04 54.30
  L 39.33 62.58
  L 33.15 68.19
  L 25.33 60.32
  A 0.72 0.71 45.0 0 0 24.32 60.31
  L 6.23 78.39
  Q 5.82 78.79 5.42 78.38
  L 0.41 73.31
  A 0.64 0.64 0.0 0 1 0.42 72.41
  L 18.53 54.32
  Q 18.94 53.91 18.53 53.50
  L 0.55 35.56
  Q -0.06 34.95 0.55 34.34
  L 5.23 29.67
  Q 5.80 29.09 6.38 29.67
  L 24.39 47.63
  A 0.57 0.57 0.0 0 0 25.20 47.63
  L 33.18 39.63
  Z
  M 25.8699 49.0353
  A 1.41 1.41 0.0 0 0 23.8759 49.0144
  L 19.8749 52.9326
  A 1.41 1.41 0.0 0 0 19.8540 54.9265
  L 23.7301 58.8847
  A 1.41 1.41 0.0 0 0 25.7241 58.9056
  L 29.7251 54.9874
  A 1.41 1.41 0.0 0 0 29.7460 52.9935
  L 25.8699 49.0353
  Z"
/>
<path fill="#ffc600" d="
  M 83.64 60.20
  Q 85.17 57.48 87.69 55.60
  A 1.90 1.90 0.0 0 0 87.88 52.72
  Q 86.10 50.97 83.99 48.74
  Q 83.77 48.51 83.71 48.23
  Q 83.66 47.96 83.63 47.65
  L 101.80 29.47
  Q 102.18 29.09 102.56 29.47
  L 107.66 34.57
  A 0.59 0.58 -44.7 0 1 107.65 35.39
  L 89.40 53.58
  A 0.49 0.49 0.0 0 0 89.41 54.27
  L 107.83 72.67
  A 0.30 0.29 -45.7 0 1 107.83 73.08
  L 102.32 78.55
  Q 102.16 78.72 101.99 78.55
  L 83.64 60.20
  Z"
/>
<path fill="#000000" d="
  M 143.69 37.49
  L 142.94 37.52
  A 2.30 2.29 -1.6 0 0 140.77 39.81
  L 140.74 59.32
  Q 140.74 62.16 143.57 62.17
  L 144.37 62.18
  A 2.09 2.09 0.0 0 0 146.47 60.11
  L 146.51 55.73
  Q 146.52 54.73 147.52 54.73
  L 151.53 54.72
  Q 152.46 54.72 152.55 55.65
  C 153.19 62.86 149.63 68.75 141.56 67.09
  Q 135.24 65.79 135.16 59.25
  Q 135.07 51.44 134.99 43.64
  C 134.93 36.83 136.36 32.15 144.02 32.33
  C 150.64 32.48 152.52 37.56 152.60 43.19
  Q 152.62 44.25 151.55 44.25
  L 147.81 44.26
  Q 146.60 44.26 146.54 43.05
  L 146.40 39.94
  Q 146.28 37.35 143.69 37.49
  Z"
/>
<path fill="#000000" d="
  M 168.80 59.31
  L 163.23 59.29
  A 0.47 0.47 0.0 0 0 162.76 59.70
  L 161.84 66.36
  A 0.47 0.47 0.0 0 1 161.37 66.77
  L 156.62 66.76
  A 0.47 0.47 0.0 0 1 156.16 66.21
  L 162.27 33.14
  A 0.47 0.47 0.0 0 1 162.73 32.75
  L 169.29 32.76
  A 0.47 0.47 0.0 0 1 169.75 33.14
  L 175.85 66.24
  A 0.47 0.47 0.0 0 1 175.38 66.80
  L 170.45 66.75
  A 0.47 0.47 0.0 0 1 169.98 66.33
  L 169.27 59.73
  A 0.47 0.47 0.0 0 0 168.80 59.31
  Z
  M 164.27 54.20
  L 167.89 54.22
  Q 168.25 54.22 168.20 53.87
  L 166.32 41.51
  Q 166.08 39.93 165.76 41.49
  Q 164.51 47.59 163.91 53.81
  Q 163.88 54.20 164.27 54.20
  Z"
/>
<path fill="#000000" d="
  M 184.69 47.05
  L 184.67 66.30
  Q 184.67 66.77 184.20 66.77
  L 179.76 66.76
  Q 179.26 66.76 179.26 66.26
  L 179.26 33.37
  Q 179.27 32.76 179.88 32.76
  L 184.22 32.77
  Q 184.73 32.77 184.91 33.25
  L 191.00 49.95
  Q 191.97 52.60 191.97 49.78
  L 191.98 33.01
  A 0.25 0.25 0.0 0 1 192.24 32.76
  L 197.03 32.76
  A 0.27 0.27 0.0 0 1 197.30 33.03
  L 197.30 66.24
  Q 197.30 66.77 196.76 66.77
  L 192.69 66.77
  A 0.98 0.97 80.3 0 1 191.77 66.11
  L 185.08 46.98
  Q 184.69 45.87 184.69 47.05
  Z"
/>
<path fill="#000000" d="
  M 213.17 59.31
  L 207.67 59.28
  A 0.37 0.37 0.0 0 0 207.30 59.59
  L 206.21 66.47
  A 0.37 0.37 0.0 0 1 205.84 66.78
  L 200.92 66.76
  A 0.37 0.37 0.0 0 1 200.56 66.32
  L 206.70 33.05
  A 0.37 0.37 0.0 0 1 207.07 32.75
  L 213.82 32.76
  A 0.37 0.37 0.0 0 1 214.19 33.06
  L 220.29 66.33
  A 0.37 0.37 0.0 0 1 219.93 66.77
  L 214.87 66.76
  A 0.37 0.37 0.0 0 1 214.50 66.44
  L 213.54 59.63
  A 0.37 0.37 0.0 0 0 213.17 59.31
  Z
  M 212.64 53.76
  L 210.77 41.27
  Q 210.71 40.87 210.60 41.26
  Q 208.83 47.36 208.26 53.69
  Q 208.21 54.21 208.74 54.21
  L 212.25 54.22
  Q 212.71 54.22 212.64 53.76
  Z"
/>
<path fill="#000000" d="
  M 223.58 33.15
  A 0.41 0.41 0.0 0 1 223.99 32.74
  L 232.82 32.71
  A 8.76 8.58 -0.2 0 1 241.61 41.26
  L 241.67 58.20
  A 8.76 8.58 -0.2 0 1 232.94 66.81
  L 224.11 66.84
  A 0.41 0.41 0.0 0 1 223.70 66.43
  L 223.58 33.15
  Z
  M 229.48 38.03
  L 229.56 61.59
  A 0.43 0.43 0.0 0 0 229.99 62.02
  L 232.08 62.01
  A 4.25 3.78 89.8 0 0 235.85 57.75
  L 235.79 41.83
  A 4.25 3.78 89.8 0 0 232.00 37.59
  L 229.91 37.60
  A 0.43 0.43 0.0 0 0 229.48 38.03
  Z"
/>
<rect fill="#000000" x="247.94" y="32.75" width="6.10" height="34.02" rx="0.31"/>
<path fill="#000000" d="
  M 264.80 59.62
  L 263.84 66.46
  A 0.36 0.36 0.0 0 1 263.49 66.77
  L 258.43 66.76
  A 0.36 0.36 0.0 0 1 258.08 66.34
  L 264.21 33.05
  A 0.36 0.36 0.0 0 1 264.56 32.75
  L 271.33 32.76
  A 0.36 0.36 0.0 0 1 271.68 33.05
  L 277.79 66.34
  A 0.36 0.36 0.0 0 1 277.44 66.76
  L 272.59 66.78
  A 0.36 0.36 0.0 0 1 272.24 66.48
  L 271.00 59.58
  A 0.36 0.36 0.0 0 0 270.65 59.28
  L 265.15 59.31
  A 0.36 0.36 0.0 0 0 264.80 59.62
  Z
  M 268.15 41.32
  Q 267.96 40.18 267.77 41.32
  L 265.65 53.64
  Q 265.56 54.22 266.14 54.22
  L 269.67 54.22
  Q 270.32 54.22 270.21 53.58
  L 268.15 41.32
  Z"
/>
<path fill="#000000" d="
  M 293.75 49.69
  L 293.71 33.27
  Q 293.71 32.76 294.23 32.76
  L 298.54 32.77
  Q 299.05 32.77 299.06 33.29
  L 299.07 66.10
  Q 299.07 66.77 298.40 66.77
  L 294.54 66.77
  Q 293.95 66.77 293.75 66.21
  Q 290.81 58.00 288.10 49.73
  Q 287.52 47.96 286.79 46.65
  Q 286.38 45.91 286.39 46.75
  L 286.46 66.16
  A 0.62 0.62 0.0 0 1 285.84 66.78
  L 281.52 66.76
  A 0.49 0.49 0.0 0 1 281.03 66.27
  L 281.03 33.24
  Q 281.03 32.76 281.51 32.76
  L 286.07 32.75
  Q 286.65 32.75 286.85 33.30
  L 292.90 49.84
  Q 293.76 52.19 293.75 49.69
  Z"
/>
<path fill="#004650" d="
  M 39.41 33.44
  L 45.36 39.32
  Q 45.36 39.40 45.36 39.48
  L 39.73 45.47
  Q 39.10 45.46 39.33 45.33
  L 33.18 39.63
  Q 33.04 39.36 33.14 38.99
  Q 33.54 39.27 33.91 38.91
  Q 36.67 36.24 39.41 33.44
  Z"
/>
<path fill="#ff4207" d="
  M 68.70 33.55
  L 74.41 39.36
  L 68.78 45.39
  L 68.27 45.53
  Q 68.22 44.88 67.29 43.96
  Q 63.68 40.39 62.60 39.53
  Q 62.62 39.44 62.64 39.35
  L 68.70 33.55
  Z"
/>
<path fill="#ffc600" d="
  M 74.41 39.36
  Q 74.46 39.30 74.68 39.26
  Q 74.71 39.41 74.74 39.54
  A 0.68 0.65 -74.4 0 0 74.92 39.88
  L 82.93 47.87
  L 78.45 52.64
  A 1.88 1.88 0.0 0 0 78.47 55.23
  Q 80.24 57.06 82.32 59.23
  Q 82.58 59.50 82.61 59.77
  Q 82.64 60.08 82.53 60.41
  L 74.62 68.36
  L 68.68 62.55
  L 76.76 54.54
  A 0.86 0.85 -45.0 0 0 76.77 53.33
  L 68.78 45.39
  L 74.41 39.36
  Z"
/>
<path fill="#ff546d" d="
  M 45.36 39.48
  L 53.79 47.93
  L 47.97 53.71
  L 39.73 45.47
  L 45.36 39.48
  Z"
/>
<path fill="#ff546d" d="
  M 62.60 39.53
  Q 63.68 40.39 67.29 43.96
  Q 68.22 44.88 68.27 45.53
  L 60.53 53.26
  A 0.95 0.95 0.0 0 0 60.53 54.61
  L 68.45 62.49
  L 62.51 68.24
  L 54.79 60.48
  A 1.05 1.05 0.0 0 0 53.30 60.48
  L 45.46 68.25
  L 39.57 62.52
  L 47.83 54.27
  Q 47.91 54.10 48.11 54.12
  Q 48.24 54.14 48.36 54.27
  Q 51.30 57.17 53.89 59.76
  Q 54.06 59.94 54.24 59.76
  L 59.66 54.28
  A 0.45 0.45 0.0 0 0 59.66 53.64
  L 54.51 48.47
  Q 54.35 48.30 54.38 48.08
  Q 54.40 47.89 54.40 47.75
  L 62.60 39.53
  Z"
/>
<path fill="#ff4207" d="
  M 53.79 47.93
  Q 53.07 47.81 54.40 47.75
  Q 54.40 47.89 54.38 48.08
  Q 54.35 48.30 54.51 48.47
  L 59.66 53.64
  A 0.45 0.45 0.0 0 1 59.66 54.28
  L 54.24 59.76
  Q 54.06 59.94 53.89 59.76
  Q 51.30 57.17 48.36 54.27
  Q 48.24 54.14 48.11 54.12
  Q 47.91 54.10 47.83 54.27
  Q 47.98 53.97 47.97 53.71
  L 53.79 47.93
  Z"
/>
<path fill="#ff9e00" d="
  M 82.93 47.87
  Q 83.79 47.93 83.63 47.65
  Q 83.66 47.96 83.71 48.23
  Q 83.77 48.51 83.99 48.74
  Q 86.10 50.97 87.88 52.72
  A 1.90 1.90 0.0 0 1 87.69 55.60
  Q 85.17 57.48 83.64 60.20
  Q 83.19 60.00 82.53 60.41
  Q 82.64 60.08 82.61 59.77
  Q 82.58 59.50 82.32 59.23
  Q 80.24 57.06 78.47 55.23
  A 1.88 1.88 0.0 0 1 78.45 52.64
  L 82.93 47.87
  Z"
/>
<rect fill="#009ca1" x="-4.21" y="-4.18" transform="translate(24.80,53.96) rotate(-44.4)" width="8.42" height="8.36" rx="1.41"/>
<path fill="#004650" d="
  M 39.33 62.58
  Q 39.45 62.45 39.57 62.52
  L 45.46 68.25
  Q 45.39 68.31 45.51 68.71
  L 39.41 74.46
  Q 39.95 74.57 39.09 74.78
  Q 39.24 74.24 38.99 74.00
  Q 36.42 71.45 33.71 69.06
  Q 33.12 68.54 33.14 68.83
  Q 32.97 68.59 33.15 68.19
  L 39.33 62.58
  Z"
/>
<path fill="#ff4207" d="
  M 68.45 62.49
  Q 68.56 62.52 68.68 62.55
  L 74.62 68.36
  L 74.96 68.97
  Q 74.60 68.89 74.32 68.93
  Q 74.07 68.97 73.81 69.24
  Q 71.42 71.64 69.09 74.09
  Q 68.82 74.37 68.97 74.71
  Q 68.43 74.71 68.54 74.53
  L 62.62 68.56
  Q 62.47 67.66 62.51 68.24
  L 68.45 62.49
  Z"
/>
<path fill="#ff546d" d="
  M 33.14 68.83
  Q 33.12 68.54 33.71 69.06
  Q 36.42 71.45 38.99 74.00
  Q 39.24 74.24 39.09 74.78
  L 20.68 93.20
  Q 20.50 93.38 20.32 93.21
  L 14.66 87.62
  Q 14.49 87.46 14.66 87.29
  L 33.14 68.83
  Z"
/>
<path fill="#00ccd1" d="
  M 45.51 68.71
  L 53.94 77.15
  L 48.02 83.05
  L 39.41 74.46
  L 45.51 68.71
  Z"
/>
<path fill="#ffc600" d="
  M 62.62 68.56
  L 68.54 74.53
  L 59.95 83.08
  L 53.99 77.22
  L 62.62 68.56
  Z"
/>
<path fill="#ff546d" d="
  M 74.96 68.97
  L 93.24 87.22
  Q 93.47 87.45 93.24 87.67
  L 87.78 93.09
  Q 87.56 93.30 87.34 93.09
  L 68.97 74.71
  Q 68.82 74.37 69.09 74.09
  Q 71.42 71.64 73.81 69.24
  Q 74.07 68.97 74.32 68.93
  Q 74.60 68.89 74.96 68.97
  Z"
/>
<path fill="#000000" d="
  M 166.39 108.00
  L 162.76 108.00
  Q 156.66 106.01 156.68 100.00
  Q 156.71 90.89 156.73 81.78
  C 156.76 68.38 176.31 70.37 174.20 84.11
  Q 174.17 84.33 173.95 84.33
  L 168.89 84.34
  A 0.28 0.27 1.0 0 1 168.61 84.06
  Q 168.79 76.62 163.96 78.49
  A 1.98 1.97 79.4 0 0 162.71 80.33
  L 162.71 100.53
  A 2.23 2.22 5.1 0 0 164.55 102.72
  L 165.49 102.88
  Q 168.39 103.40 168.50 100.46
  L 168.69 95.51
  Q 168.72 94.80 168.01 94.80
  L 165.65 94.79
  Q 164.76 94.79 164.76 93.90
  L 164.76 91.23
  Q 164.76 90.21 165.77 90.21
  L 173.99 90.22
  Q 174.51 90.22 174.51 90.74
  L 174.51 106.99
  Q 174.51 107.50 174.01 107.50
  L 172.09 107.50
  Q 171.64 107.50 171.47 107.08
  L 170.88 105.69
  Q 170.62 105.08 170.17 105.56
  Q 168.59 107.23 166.39 108.00
  Z"
/>
<path fill="#000000" d="
  M 236.16 108.00
  L 232.21 108.00
  Q 225.37 106.42 225.31 99.76
  Q 225.17 84.74 225.35 80.31
  C 225.78 69.43 245.16 69.79 242.94 84.48
  Q 242.89 84.80 242.57 84.79
  L 237.10 84.73
  Q 236.80 84.72 236.84 84.43
  Q 237.53 79.25 235.54 78.35
  C 233.77 77.54 231.30 78.21 231.29 80.74
  Q 231.23 90.66 231.31 100.46
  A 2.34 2.34 0.0 0 0 233.48 102.77
  L 234.23 102.82
  Q 236.97 103.03 236.97 100.27
  L 236.96 96.14
  Q 236.96 95.24 237.86 95.24
  L 242.09 95.22
  Q 243.03 95.22 243.11 96.15
  C 243.57 101.59 242.31 106.78 236.16 108.00
  Z"
/>
<path fill="#000000" d="
  M 300.00 98.09
  L 300.00 100.60
  Q 298.90 106.83 292.64 108.00
  L 288.72 108.00
  Q 282.52 105.96 281.83 99.49
  Q 281.73 98.54 282.68 98.40
  L 286.72 97.82
  Q 287.68 97.69 287.66 98.65
  C 287.61 101.40 290.16 104.11 292.85 102.30
  C 295.71 100.37 293.46 96.16 291.47 94.54
  C 288.32 91.97 284.16 88.66 282.93 84.98
  C 278.29 71.15 298.50 68.08 299.50 80.61
  Q 299.54 81.17 298.99 81.22
  L 294.45 81.65
  A 0.64 0.64 0.0 0 1 293.75 81.03
  Q 293.71 79.91 293.10 78.97
  A 1.27 1.26 84.7 0 0 292.54 78.50
  Q 290.89 77.79 289.26 78.41
  Q 288.72 78.62 288.51 79.17
  Q 287.21 82.54 289.86 85.14
  C 293.96 89.19 298.71 91.79 300.00 98.09
  Z"
/>
<path fill="#000000" d="
  M 146.14 99.95
  L 140.67 99.90
  A 0.37 0.37 0.0 0 0 140.31 100.21
  L 139.10 107.20
  A 0.37 0.37 0.0 0 1 138.74 107.51
  L 133.80 107.48
  A 0.37 0.37 0.0 0 1 133.44 107.05
  L 139.59 73.56
  A 0.37 0.37 0.0 0 1 139.96 73.26
  L 146.78 73.19
  A 0.37 0.37 0.0 0 1 147.15 73.50
  L 153.31 107.06
  A 0.37 0.37 0.0 0 1 152.95 107.50
  L 147.88 107.50
  A 0.37 0.37 0.0 0 1 147.51 107.18
  L 146.51 100.26
  A 0.37 0.37 0.0 0 0 146.14 99.95
  Z
  M 142.98 83.26
  L 141.01 94.29
  A 0.35 0.35 0.0 0 0 141.35 94.70
  L 145.25 94.76
  A 0.44 0.44 0.0 0 0 145.69 94.25
  L 143.80 83.26
  Q 143.40 80.91 142.98 83.26
  Z"
/>
<path fill="#000000" d="
  M 186.82 102.25
  L 196.71 102.24
  A 0.35 0.35 0.0 0 1 197.06 102.59
  L 197.06 107.15
  A 0.35 0.35 0.0 0 1 196.71 107.50
  L 180.77 107.50
  A 0.35 0.35 0.0 0 1 180.42 107.15
  L 180.42 73.57
  A 0.35 0.35 0.0 0 1 180.77 73.22
  L 195.89 73.24
  A 0.35 0.35 0.0 0 1 196.24 73.59
  L 196.26 78.14
  A 0.35 0.35 0.0 0 1 195.91 78.49
  L 186.82 78.48
  A 0.35 0.35 0.0 0 0 186.47 78.83
  L 186.45 86.79
  A 0.35 0.35 0.0 0 0 186.80 87.14
  L 193.65 87.10
  A 0.35 0.35 0.0 0 1 194.00 87.45
  L 194.00 92.07
  A 0.35 0.35 0.0 0 1 193.65 92.42
  L 186.81 92.39
  A 0.35 0.35 0.0 0 0 186.46 92.74
  L 186.47 101.90
  A 0.35 0.35 0.0 0 0 186.82 102.25
  Z"
/>
<path fill="#000000" d="
  M 207.29 87.72
  C 206.35 93.76 207.01 101.01 206.99 107.00
  Q 206.99 107.50 206.49 107.50
  L 202.01 107.50
  Q 201.52 107.50 201.52 107.01
  L 201.53 73.79
  A 0.58 0.58 0.0 0 1 202.11 73.21
  L 206.53 73.24
  A 0.80 0.80 0.0 0 1 207.28 73.77
  L 213.93 92.07
  Q 214.17 92.72 214.17 92.03
  L 214.21 73.74
  A 0.55 0.55 0.0 0 1 214.77 73.19
  L 219.03 73.23
  A 0.67 0.67 0.0 0 1 219.69 73.90
  L 219.70 107.02
  Q 219.70 107.49 219.23 107.49
  L 214.98 107.50
  Q 214.38 107.50 214.18 106.93
  Q 212.24 101.30 210.13 95.79
  Q 208.54 91.64 207.87 87.72
  Q 207.57 85.96 207.29 87.72
  Z"
/>
<rect fill="#000000" x="249.73" y="73.22" width="6.00" height="34.28" rx="0.51"/>
<path fill="#000000" d="
  M 268.12 92.93
  L 268.13 101.75
  A 0.50 0.50 0.0 0 0 268.63 102.25
  L 278.18 102.25
  A 0.50 0.50 0.0 0 1 278.68 102.75
  L 278.68 107.00
  A 0.50 0.50 0.0 0 1 278.18 107.50
  L 262.68 107.49
  A 0.50 0.50 0.0 0 1 262.18 106.99
  L 262.19 73.74
  A 0.50 0.50 0.0 0 1 262.69 73.24
  L 277.51 73.24
  A 0.50 0.50 0.0 0 1 278.01 73.74
  L 278.04 77.98
  A 0.50 0.50 0.0 0 1 277.54 78.48
  L 268.61 78.48
  A 0.50 0.50 0.0 0 0 268.11 78.98
  L 268.12 86.62
  A 0.50 0.50 0.0 0 0 268.62 87.12
  L 275.23 87.15
  A 0.50 0.50 0.0 0 1 275.73 87.65
  L 275.73 91.87
  A 0.50 0.50 0.0 0 1 275.23 92.37
  L 268.62 92.43
  A 0.50 0.50 0.0 0 0 268.12 92.93
  Z"
/>
<path fill="#00a000" d="
  M 53.94 77.15
  Q 53.96 77.19 53.99 77.22
  L 59.95 83.08
  Q 59.95 83.11 59.95 83.14
  L 54.15 89.05
  Q 54.02 89.19 53.85 89.07
  Q 51.44 86.10 48.51 83.71
  Q 48.21 83.47 47.75 83.44
  Q 47.86 82.96 48.02 83.05
  L 53.94 77.15
  Z"
/>
<path fill="#00ccd1" d="
  M 59.95 83.14
  L 78.45 101.62
  Q 78.84 102.02 78.45 102.41
  L 73.43 107.45
  A 0.62 0.61 44.7 0 1 72.56 107.45
  L 54.15 89.05
  L 59.95 83.14
  Z"
/>
<path fill="#ffc600" d="
  M 47.75 83.44
  Q 48.21 83.47 48.51 83.71
  Q 51.44 86.10 53.85 89.07
  L 35.72 107.19
  Q 35.02 107.89 34.32 107.19
  L 29.81 102.71
  Q 29.13 102.03 29.81 101.35
  L 47.75 83.44
  Z"
/>
</svg>
