<?xml version="1.0" encoding="UTF-8" standalone="no"?>
<!DOCTYPE svg PUBLIC "-//W3C//DTD SVG 1.1//EN" "http://www.w3.org/Graphics/SVG/1.1/DTD/svg11.dtd">
<svg width="100%" height="100%" viewBox="0 0 382 147" version="1.1" xmlns="http://www.w3.org/2000/svg" xmlns:xlink="http://www.w3.org/1999/xlink" xml:space="preserve" xmlns:serif="http://www.serif.com/" style="fill-rule:evenodd;clip-rule:evenodd;stroke-linejoin:round;stroke-miterlimit:2;">
    <g transform="matrix(1,0,0,1,-3,-27.0969)">
        <path d="M203.9,33.46L206.83,27.33C206.898,27.188 207.042,27.097 207.2,27.097C207.295,27.097 207.387,27.13 207.46,27.19L215.11,33.4C217.083,35 216.877,35.37 214.49,34.51C211.15,33.297 207.737,33.093 204.25,33.9C203.83,34 203.713,33.853 203.9,33.46Z" style="fill:rgb(37,190,213);fill-rule:nonzero;"/>
        <path d="M209.58,46.24C206.3,44.98 203.53,43.56 199.96,43.52C197.527,43.487 195.147,43.493 192.82,43.54C192.053,43.553 191.947,43.297 192.5,42.77C195.247,40.17 197.533,37.21 199.36,33.89C199.485,33.665 199.723,33.524 199.981,33.524C200.178,33.524 200.366,33.606 200.5,33.75C203.973,37.523 207.1,41.567 209.88,45.88C210.153,46.307 210.053,46.427 209.58,46.24Z" style="fill:rgb(37,190,213);fill-rule:nonzero;"/>
        <path d="M227.68,46.84C224.39,45.57 222.77,47.75 219.42,47.13C219.093,47.07 218.943,46.877 218.97,46.55C219.19,44.117 219.427,41.717 219.68,39.35C219.8,38.13 219.5,36.92 219.49,35.6C219.483,35.08 219.68,34.98 220.08,35.3C225.153,39.34 229.827,43.793 234.1,48.66C234.913,49.587 234.757,49.797 233.63,49.29C231.863,48.497 229.88,47.68 227.68,46.84Z" style="fill:rgb(226,6,19);fill-rule:nonzero;"/>
        <path d="M190.05,63.09C186.98,61.71 183.93,60.21 180.91,58.76C179.63,58.153 178.29,57.9 176.89,58C171.843,58.353 166.847,58.76 161.9,59.22C160.88,59.32 160.837,59.16 161.77,58.74C170.857,54.673 179.167,49.38 186.7,42.86C186.967,42.627 187.163,42.673 187.29,43C189.843,49.34 190.943,55.927 190.59,62.76C190.57,63.133 190.39,63.243 190.05,63.09Z" style="fill:rgb(37,190,213);fill-rule:nonzero;"/>
        <path d="M215.04,46.89C220.57,54.87 224.91,63.08 226.57,72.71C226.67,73.283 226.48,73.403 226,73.07L216.63,66.54C216.35,66.34 216.037,66.243 215.69,66.25L204.27,66.36C203.857,66.36 203.793,66.213 204.08,65.92C209.173,60.593 212.507,54.313 214.08,47.08C214.13,46.834 214.348,46.655 214.6,46.655C214.776,46.655 214.942,46.743 215.04,46.89Z" style="fill:rgb(226,6,19);fill-rule:nonzero;"/>
        <path d="M245.91,73.17L237.07,75.69C237.041,75.698 237.011,75.703 236.981,75.703C236.806,75.703 236.661,75.558 236.661,75.383C236.661,75.337 236.671,75.292 236.69,75.25C240.14,67.39 239.66,58.2 237.93,50.18C237.703,49.133 237.953,49.003 238.68,49.79C246.1,57.87 252.233,66.833 257.08,76.68C257.62,77.773 257.333,78.067 256.22,77.56L246.75,73.23C246.477,73.103 246.197,73.083 245.91,73.17Z" style="fill:rgb(37,190,213);fill-rule:nonzero;"/>
        <path d="M99.27,106.99L71.38,122.85C70.52,123.343 70.417,123.217 71.07,122.47C78.563,113.97 86.473,105.497 94.8,97.05C107.71,83.94 122.39,74.13 138.92,65.99C144.34,63.32 148.77,60.68 153.32,57.62C154.467,56.853 154.637,57.03 153.83,58.15C150.8,62.33 147.98,66.32 144.13,70.07C128.71,85.1 116.62,98.24 110.5,117.65C110.327,118.203 110.07,118.243 109.73,117.77C106.977,113.87 103.833,110.313 100.3,107.1C99.987,106.82 99.643,106.783 99.27,106.99Z" style="fill:rgb(37,190,213);fill-rule:nonzero;"/>
        <path d="M153.61,103.54C145.46,106.87 137.81,111.56 130.2,115.97C129.873,116.163 129.8,116.093 129.98,115.76C134.84,106.527 141.363,98.71 149.55,92.31C159.57,84.49 171.11,79.38 182.51,73.79C189.4,70.41 192.86,68.96 197.03,64.43C197.617,63.783 197.893,63.897 197.86,64.77C197.5,74.02 193.26,80.42 186.04,85.86C175.61,93.71 167.17,105.91 167.28,119.27C167.287,120.11 167.017,120.21 166.47,119.57C162.25,114.677 158.427,109.483 155,103.99C154.667,103.45 154.203,103.3 153.61,103.54Z" style="fill:rgb(226,6,19);fill-rule:nonzero;"/>
        <path d="M209.94,119.89C202.553,121.163 195.317,123.03 188.23,125.49C188.203,125.499 188.175,125.503 188.147,125.503C187.998,125.503 187.877,125.381 187.877,125.233C187.877,125.219 187.878,125.204 187.88,125.19C190.31,110.5 200.96,103.78 212.55,96.56C221.17,91.2 226.93,83.72 231.36,75.12C231.827,74.22 232.097,74.277 232.17,75.29C232.62,81.75 232.58,88.89 230.39,95.41C229.177,99.05 228.487,101.673 228.32,103.28C227.77,108.62 228.04,114.82 231.06,119.48C234.04,124.067 237.34,128.233 240.96,131.98C241.413,132.447 241.33,132.58 240.71,132.38C230.41,129.12 220.467,125.007 210.88,120.04C210.587,119.887 210.273,119.837 209.94,119.89Z" style="fill:rgb(37,190,213);fill-rule:nonzero;"/>
        <path d="M268.28,131.28C258.52,120.5 260.83,103.14 262.19,90.02C262.58,86.21 262.37,82.48 262.2,78.88C262.113,77.1 262.47,77.007 263.27,78.6C271.04,94.08 284.01,104.75 298.92,113.9C306.1,118.307 313.057,122.14 319.79,125.4C321.49,126.22 321.41,126.47 319.55,126.15L285.88,120.41C285.56,120.357 285.267,120.42 285,120.6L269.09,131.38C268.79,131.58 268.52,131.547 268.28,131.28Z" style="fill:rgb(226,6,19);fill-rule:nonzero;"/>
        <path d="M106.53,155.49L106.49,150.46C106.49,150.457 106.49,150.453 106.49,150.45C106.49,150.154 106.734,149.91 107.03,149.91C107.03,149.91 110.21,149.93 110.21,149.93C110.563,149.937 110.74,150.117 110.74,150.47L110.74,169.28C110.74,169.667 110.553,169.903 110.18,169.99C108.833,170.303 107.67,170.027 106.69,169.16C106.45,168.947 106.183,168.913 105.89,169.06C93.51,175.36 91.87,151.9 106.01,155.89C106.363,155.99 106.537,155.857 106.53,155.49ZM106.53,165.25L106.49,159.95C106.479,159.195 105.855,158.58 105.1,158.58C105.093,158.58 105.087,158.58 105.08,158.58L103.54,158.59C101.727,158.611 100.253,160.203 100.27,162.12L100.27,163.2C100.287,165.12 101.795,166.686 103.61,166.67C103.614,166.67 103.617,166.67 103.62,166.67L105.16,166.65C105.919,166.639 106.536,166.009 106.53,165.25Z" style="fill:rgb(13,43,136);fill-rule:nonzero;"/>
        <path d="M311.78,167.95L309.1,170.14C308.963,170.248 308.768,170.26 308.61,170.17C306.49,168.93 305.49,167.51 305.48,164.9C305.473,159.947 305.47,155.117 305.47,150.41C305.47,150.083 305.637,149.92 305.97,149.92L309.23,149.94C309.55,149.94 309.71,150.1 309.71,150.42C309.703,154.82 309.7,159.313 309.7,163.9C309.7,165.64 310.44,166.63 311.76,167.55C311.829,167.596 311.871,167.674 311.871,167.757C311.871,167.832 311.837,167.903 311.78,167.95Z" style="fill:rgb(13,43,136);fill-rule:nonzero;"/>
        <path d="M46.72,155.07L46.61,150.82C46.597,150.253 46.87,149.967 47.43,149.96L50.19,149.93C50.193,149.93 50.197,149.93 50.2,149.93C50.546,149.93 50.83,150.214 50.83,150.56C50.83,150.56 50.84,169.47 50.84,169.47C50.839,169.7 50.682,169.901 50.46,169.96C49.033,170.307 47.797,170.027 46.75,169.12C46.497,168.907 46.227,168.887 45.94,169.06C35.62,175.45 30.15,153.68 46.11,155.63C46.53,155.677 46.733,155.49 46.72,155.07ZM46.65,165.21L46.63,159.99C46.63,159.233 46.007,158.61 45.25,158.61L43.74,158.62C43.739,158.62 43.739,158.62 43.738,158.62C41.912,158.626 40.414,160.165 40.42,162.03L40.42,163.21C40.426,165.075 41.933,166.605 43.76,166.6L45.27,166.59C46.027,166.59 46.65,165.967 46.65,165.21Z" style="fill:rgb(13,43,136);fill-rule:nonzero;"/>
        <path d="M59.39,166.72C59.67,166.9 59.917,167.117 60.13,167.37C60.377,167.67 60.35,167.94 60.05,168.18L57.87,169.97C57.597,170.19 57.317,170.203 57.03,170.01C55.09,168.76 54.04,167.35 54.02,164.86C53.973,159.947 53.96,155.14 53.98,150.44C53.98,150.133 54.13,149.98 54.43,149.98L58.02,149.93C58.022,149.93 58.024,149.93 58.025,149.93C58.206,149.927 58.357,150.079 58.36,150.265C58.36,150.267 58.36,150.268 58.36,150.27L58.32,164.75C58.321,165.541 58.723,166.283 59.39,166.72Z" style="fill:rgb(13,43,136);fill-rule:nonzero;"/>
        <path d="M303.56,167.85L300.77,170.18C300.656,170.276 300.491,170.288 300.36,170.21C298.49,169.03 297.24,167.65 297.23,165.23C297.197,160.183 297.18,155.273 297.18,150.5C297.18,150.127 297.367,149.94 297.74,149.94L300.8,149.94C301.193,149.94 301.393,150.137 301.4,150.53C301.413,154.863 301.4,159.353 301.36,164C301.347,165.433 302.073,166.62 303.54,167.56C303.592,167.593 303.624,167.651 303.624,167.712C303.624,167.765 303.601,167.816 303.56,167.85Z" style="fill:rgb(13,43,136);fill-rule:nonzero;"/>
        <g transform="matrix(0.999998,0.00174533,-0.00174533,0.999998,31.35,152.39)">
            <path d="M2.23,-1.46C2.23,-1.681 2.051,-1.86 1.83,-1.86L-1.83,-1.86C-2.051,-1.86 -2.23,-1.681 -2.23,-1.46L-2.23,1.46C-2.23,1.681 -2.051,1.86 -1.83,1.86L1.83,1.86C2.051,1.86 2.23,1.681 2.23,1.46L2.23,-1.46Z" style="fill:rgb(13,43,136);"/>
        </g>
        <g transform="matrix(0.999998,0.00174533,-0.00174533,0.999998,316.02,152.38)">
            <path d="M2.24,-1.52C2.24,-1.719 2.079,-1.88 1.88,-1.88L-1.88,-1.88C-2.079,-1.88 -2.24,-1.719 -2.24,-1.52L-2.24,1.52C-2.24,1.719 -2.079,1.88 -1.88,1.88L1.88,1.88C2.079,1.88 2.24,1.719 2.24,1.52L2.24,-1.52Z" style="fill:rgb(13,43,136);"/>
        </g>
        <path d="M6.88,156.28C7.127,156.733 7.463,156.817 7.89,156.53C10.67,154.637 13.26,154.833 15.66,157.12C15.913,157.36 16.173,157.37 16.44,157.15C19.68,154.48 25.6,154.17 25.8,159.76C25.913,163.047 25.987,166.27 26.02,169.43C26.027,169.803 25.843,169.993 25.47,170L22.18,170.03C21.856,170.03 21.59,169.764 21.59,169.44L21.63,161.54C21.637,159.787 20.773,159.04 19.04,159.3L18.35,159.41C17.037,159.61 16.383,160.37 16.39,161.69L16.41,169.43C16.41,169.432 16.41,169.433 16.41,169.435C16.413,169.753 16.149,170.017 15.825,170.02C15.823,170.02 15.822,170.02 15.82,170.02C15.82,170.02 12.71,170.02 12.71,170.02C12.408,170.02 12.16,169.772 12.16,169.47C12.16,169.467 12.16,169.463 12.16,169.46L12.22,161.61C12.233,159.643 11.28,158.873 9.36,159.3L8.81,159.42C7.659,159.674 6.837,160.706 6.85,161.88L6.91,169.38C6.91,169.8 6.703,170.013 6.29,170.02L3.51,170.02C3.17,170.02 3,169.85 3,169.51L3,156.3C3,156 3.15,155.843 3.45,155.83L6.3,155.69C6.467,155.683 6.59,155.753 6.67,155.9L6.88,156.28Z" style="fill:rgb(13,43,136);fill-rule:nonzero;"/>
        <path d="M71.56,168.95C68.627,170.63 66.123,170.53 64.05,168.65C57.71,162.89 64.15,151.59 72.53,156.45C72.808,156.614 73.163,156.595 73.43,156.4C73.81,156.12 74.22,155.913 74.66,155.78C74.708,155.765 74.758,155.753 74.808,155.746C75.329,155.669 75.822,156.039 75.899,156.565C75.907,156.613 75.91,156.662 75.91,156.71L75.87,165.68C75.863,166.053 76.029,166.413 76.32,166.66L77.36,167.54C77.647,167.787 77.637,168.017 77.33,168.23L74.46,170.3C74.087,170.567 73.75,170.527 73.45,170.18L72.5,169.11C72.227,168.797 71.913,168.743 71.56,168.95ZM65.85,162.13C65.637,164.37 66.667,165.93 68.94,166.81C69.179,166.903 69.433,166.951 69.69,166.951C70.822,166.951 71.755,166.022 71.76,164.89L71.78,160.31C71.786,160.026 71.661,159.753 71.44,159.57C69.02,157.52 66.14,159.12 65.85,162.13Z" style="fill:rgb(13,43,136);fill-rule:nonzero;"/>
        <path d="M84.72,156.61C85.6,156.28 86.28,155.74 87.12,155.51C95.78,153.19 93.53,165.15 93.61,169.44C93.61,169.442 93.61,169.443 93.61,169.445C93.613,169.758 93.353,170.017 93.035,170.02C93.033,170.02 93.032,170.02 93.03,170.02L89.76,170.02C89.42,170.02 89.25,169.85 89.25,169.51L89.27,161.62C89.277,159.833 88.393,159.057 86.62,159.29L86.27,159.34C84.637,159.553 83.83,160.483 83.85,162.13L83.94,169.28C83.947,169.767 83.707,170.01 83.22,170.01L80.03,170.02C79.697,170.027 79.53,169.863 79.53,169.53L79.53,156.53C79.53,156.09 79.75,155.86 80.19,155.84C80.83,155.813 81.687,155.783 82.76,155.75C83.387,155.737 83.8,155.93 84,156.33C84.153,156.643 84.393,156.737 84.72,156.61Z" style="fill:rgb(13,43,136);fill-rule:nonzero;"/>
        <path d="M119.38,160.95C119.487,160.99 120.073,161.05 121.14,161.13C127.47,161.62 126.13,168.96 120.75,170.19C118.65,170.663 116.257,170.357 113.57,169.27C113.363,169.19 113.26,169.037 113.26,168.81L113.26,165.78C113.263,165.667 113.356,165.575 113.47,165.575C113.505,165.575 113.539,165.583 113.57,165.6C115.743,166.8 118.057,167.147 120.51,166.64C120.843,166.567 121.077,166.373 121.21,166.06C121.603,165.12 121.37,164.577 120.51,164.43C117.87,163.98 113.53,163.93 113.48,160.1C113.41,154.83 120.06,154.65 123.8,155.77C123.973,155.823 124.063,155.94 124.07,156.12L124.14,159.27C124.141,159.287 124.14,159.303 124.136,159.319C124.115,159.421 124.008,159.486 123.901,159.463C123.887,159.46 123.873,159.456 123.86,159.45C122.067,158.61 120.66,158.273 119.64,158.44C116.44,158.96 116.353,159.797 119.38,160.95Z" style="fill:rgb(13,43,136);fill-rule:nonzero;"/>
        <path d="M142.71,168.85C142.708,168.847 142.706,168.844 142.704,168.841C142.568,168.648 142.301,168.598 142.113,168.731C142.109,168.734 142.104,168.737 142.1,168.74C140.02,170.287 137.977,170.587 135.97,169.64C127.64,165.73 133.06,151.32 142.63,156.33C142.923,156.483 143.223,156.503 143.53,156.39L145.46,155.68C145.524,155.657 145.592,155.645 145.66,155.645C145.982,155.645 146.247,155.908 146.25,156.23L146.24,165.84C146.24,166.126 146.36,166.399 146.57,166.59L147.72,167.63C147.993,167.87 147.98,168.093 147.68,168.3L144.92,170.18C144.653,170.36 144.383,170.37 144.11,170.21C143.543,169.863 143.077,169.41 142.71,168.85ZM142.14,165.13L142.02,159.99C142.004,159.288 141.422,158.72 140.72,158.72C140.71,158.72 140.7,158.72 140.69,158.72L139.38,158.75C137.621,158.792 136.208,160.34 136.25,162.182C136.25,162.185 136.25,162.187 136.25,162.19L136.27,163.21C136.315,165.052 137.8,166.533 139.56,166.49L140.87,166.46C141.572,166.444 142.14,165.862 142.14,165.16C142.14,165.15 142.14,165.14 142.14,165.13Z" style="fill:rgb(13,43,136);fill-rule:nonzero;"/>
        <path d="M154.35,163.66C153.57,163.653 153.39,163.98 153.81,164.64L154.24,165.32C154.735,166.105 155.576,166.608 156.5,166.67C158.567,166.817 160.543,166.467 162.43,165.62C162.441,165.615 162.453,165.612 162.466,165.609C162.568,165.589 162.668,165.652 162.687,165.749C162.69,165.763 162.691,165.776 162.69,165.79L162.65,168.82C162.643,169.027 162.547,169.17 162.36,169.25C157.52,171.39 150.01,170.32 149.19,164.22C147.68,153.04 164.83,151.72 164.5,163.17C164.495,163.457 164.252,163.69 163.96,163.69L154.35,163.66ZM153.62,161.69L160.3,161.73C160.382,161.73 160.45,161.662 160.45,161.58L160.45,161.53C160.46,159.94 158.948,158.622 157.1,158.61L156.86,158.61C156.858,158.61 156.857,158.61 156.855,158.61C155.007,158.6 153.48,159.9 153.47,161.49L153.47,161.54C153.47,161.622 153.538,161.69 153.62,161.69Z" style="fill:rgb(13,43,136);fill-rule:nonzero;"/>
        <path d="M193.852,163.403C193.852,163.411 193.852,163.419 193.852,163.427C193.852,167.159 190.788,170.233 187.056,170.247L185.076,170.253C181.335,170.266 178.245,167.199 178.232,163.457L178.228,162.137C178.228,162.129 178.228,162.121 178.228,162.113C178.228,158.381 181.292,155.307 185.024,155.294L187.004,155.287C190.745,155.274 193.835,158.341 193.848,162.083L193.852,163.403ZM186.564,167.077C188.519,166.837 189.886,164.677 189.593,162.293C189.593,162.292 189.593,162.292 189.593,162.292C189.3,159.908 187.451,158.143 185.496,158.383C183.541,158.623 182.174,160.783 182.467,163.168C182.467,163.168 182.467,163.168 182.467,163.168C182.76,165.552 184.609,167.317 186.564,167.077Z" style="fill:rgb(13,43,136);fill-rule:nonzero;"/>
        <path d="M200.27,160.52C203.61,161.32 209.21,161.35 207.53,166.76C206.19,171.1 199.66,170.69 195.98,169.32C195.82,169.26 195.737,169.147 195.73,168.98L195.72,165.75C195.72,165.657 195.797,165.58 195.89,165.58C195.918,165.58 195.945,165.587 195.97,165.6C198.023,166.74 200.193,167.123 202.48,166.75C203.313,166.617 203.757,166.223 203.81,165.57C203.859,164.982 203.439,164.452 202.86,164.37C201.293,164.15 199.75,163.873 198.23,163.54C195.88,163.02 195.28,159.66 196.46,157.73C198.36,154.62 203.2,154.88 206.26,155.79C206.38,155.823 206.44,155.903 206.44,156.03L206.41,159.35C206.411,159.368 206.409,159.385 206.404,159.403C206.378,159.503 206.269,159.564 206.163,159.536C206.148,159.533 206.134,159.527 206.12,159.52C204.187,158.453 202.313,158.187 200.5,158.72C199.873,158.907 199.623,159.323 199.75,159.97C199.81,160.263 199.983,160.447 200.27,160.52Z" style="fill:rgb(13,43,136);fill-rule:nonzero;"/>
        <path d="M214.13,170.19L214.26,173.48C214.273,173.827 214.11,174 213.77,174L210.31,174C210.017,174 209.87,173.853 209.87,173.56L209.87,156.54C209.87,156.26 210.007,156.077 210.28,155.99C211.667,155.57 213.01,155.627 214.31,156.16C214.594,156.28 214.921,156.266 215.2,156.12C222.38,152.26 227.3,161.53 223.28,167.14C221.66,169.39 218.7,170.63 215.79,169.89C215.423,169.797 215.03,169.737 214.61,169.71C214.27,169.69 214.11,169.85 214.13,170.19ZM214.07,160.1L214.15,165.52C214.161,166.291 214.798,166.92 215.57,166.92C215.577,166.92 215.583,166.92 215.59,166.92L217.01,166.9C218.914,166.871 220.456,165.067 220.43,162.9L220.43,162.56C220.43,162.557 220.43,162.554 220.43,162.551C220.4,160.379 218.804,158.613 216.895,158.64C216.893,158.64 216.892,158.64 216.89,158.64L215.47,158.66C214.699,158.671 214.07,159.308 214.07,160.08C214.07,160.087 214.07,160.093 214.07,160.1Z" style="fill:rgb(13,43,136);fill-rule:nonzero;"/>
        <path d="M237.18,169.07C236.927,168.817 236.643,168.773 236.33,168.94C234.577,169.86 233.307,170.27 232.52,170.17C221.45,168.8 226.57,150.45 237.19,156.33C237.51,156.51 237.837,156.523 238.17,156.37L239.52,155.76C239.63,155.71 239.749,155.684 239.87,155.684C240.329,155.684 240.708,156.061 240.71,156.52L240.67,165.91C240.67,166.27 240.81,166.56 241.09,166.78L242.08,167.55C242.367,167.777 242.363,168 242.07,168.22L239.34,170.29C239.038,170.52 238.607,170.49 238.34,170.22L237.18,169.07ZM233.63,158.66C232.003,158.753 231.057,159.603 230.79,161.21C230.15,165.05 232.52,168.1 236.16,165.98C236.412,165.839 236.567,165.565 236.56,165.27L236.51,161C236.496,159.699 235.421,158.636 234.12,158.636C234.077,158.636 234.033,158.638 233.99,158.64L233.63,158.66Z" style="fill:rgb(13,43,136);fill-rule:nonzero;"/>
        <path d="M255.02,160.02C246.52,153.74 244.79,171.62 255.75,165.53C255.95,165.417 256.05,165.473 256.05,165.7L256.05,168.7C256.05,168.867 255.98,168.99 255.84,169.07C250.6,172.01 243.2,169.76 243.57,162.74C243.91,156.41 249.49,154 255.07,155.73C255.437,155.843 255.62,156.09 255.62,156.47L255.6,159.73C255.6,159.732 255.6,159.733 255.6,159.735C255.6,159.933 255.438,160.095 255.24,160.095C255.16,160.095 255.083,160.069 255.02,160.02Z" style="fill:rgb(13,43,136);fill-rule:nonzero;"/>
        <path d="M261.84,164.19C262.71,167.71 267.65,166.87 270.75,165.6C270.772,165.591 270.796,165.586 270.82,165.586C270.919,165.586 271,165.667 271,165.766C271,165.767 271,165.769 271,165.77L270.99,168.77C270.99,168.957 270.903,169.087 270.73,169.16C267.517,170.64 264.387,170.723 261.34,169.41C253.2,165.92 258.14,153.01 267.52,155.45C269.84,156.057 271.377,157.493 272.13,159.76L272.46,160.74C273.12,162.713 272.407,163.697 270.32,163.69L262.26,163.65C261.893,163.65 261.753,163.83 261.84,164.19ZM268.06,161.7C268.06,161.7 268.061,161.7 268.061,161.7C268.478,161.7 268.821,161.357 268.821,160.94C268.821,160.711 268.718,160.494 268.54,160.35L266.43,158.64C266.26,158.501 266.037,158.442 265.82,158.48L263.35,158.9C263.169,158.931 263.006,159.027 262.89,159.17L261.86,160.41C261.749,160.546 261.689,160.715 261.689,160.89C261.689,161.3 262.02,161.64 262.43,161.65L268.06,161.7Z" style="fill:rgb(13,43,136);fill-rule:nonzero;"/>
        <path d="M289.19,168.97C286.363,170.583 283.917,170.533 281.85,168.82C275.28,163.36 281.54,151.66 289.94,156.36C290.213,156.513 290.497,156.533 290.79,156.42L292.57,155.71C292.652,155.676 292.741,155.658 292.83,155.658C293.203,155.658 293.51,155.965 293.51,156.338C293.51,156.339 293.51,156.339 293.51,156.34L293.5,165.92C293.5,166.22 293.617,166.47 293.85,166.67L294.96,167.61C295.227,167.843 295.217,168.063 294.93,168.27L292.19,170.28C291.837,170.533 291.507,170.503 291.2,170.19L290.13,169.1C289.85,168.813 289.537,168.77 289.19,168.97ZM289.39,165.3L289.4,160.44C289.407,160.067 289.26,159.763 288.96,159.53C282.42,154.39 281.16,170.06 288.93,166.06C289.237,165.9 289.39,165.647 289.39,165.3Z" style="fill:rgb(13,43,136);fill-rule:nonzero;"/>
        <path d="M330.77,168.8C327.123,171.173 324.147,170.603 321.84,167.09C317.72,160.8 324.16,152.51 331.63,156.34C331.923,156.487 332.217,156.493 332.51,156.36L333.94,155.73C334.044,155.682 334.156,155.658 334.27,155.658C334.703,155.658 335.06,156.014 335.06,156.448C335.06,156.449 335.06,156.449 335.06,156.45C335.06,159.323 335.053,162.257 335.04,165.25C335.04,166.203 335.51,166.95 336.45,167.49C336.6,167.575 336.693,167.735 336.693,167.908C336.693,168.064 336.617,168.21 336.49,168.3L333.67,170.22C333.27,170.5 332.91,170.453 332.59,170.08L331.59,168.92C331.35,168.64 331.077,168.6 330.77,168.8ZM330.89,165.26L330.98,160.06C330.991,159.345 330.415,158.746 329.7,158.73L328.36,158.71C326.611,158.679 325.144,160.181 325.11,162.04L325.09,163.08C325.06,164.937 326.472,166.489 328.22,166.52L329.56,166.55C329.567,166.55 329.573,166.55 329.58,166.55C330.291,166.55 330.879,165.971 330.89,165.26Z" style="fill:rgb(13,43,136);fill-rule:nonzero;"/>
        <path d="M344.34,156.43C346.59,155.08 349.47,154.7 351.35,156.5C353.66,158.7 352.82,166.52 352.77,169.54C352.763,169.86 352.603,170.02 352.29,170.02L349,170.03C348.653,170.03 348.48,169.853 348.48,169.5L348.5,161.61C348.507,159.83 347.627,159.057 345.86,159.29L345.57,159.33C343.97,159.55 343.17,160.463 343.17,162.07L343.18,169.66C343.18,169.893 343.063,170.01 342.83,170.01L339.01,170.01C338.843,170.01 338.76,169.927 338.76,169.76L338.75,156.53C338.75,156.243 338.887,156.053 339.16,155.96C340.733,155.447 342.17,155.6 343.47,156.42C343.757,156.6 344.047,156.603 344.34,156.43Z" style="fill:rgb(13,43,136);fill-rule:nonzero;"/>
        <path d="M366.94,159.98C357.23,154.61 356.76,171.06 367.38,165.49C367.394,165.484 367.408,165.479 367.423,165.476C367.525,165.453 367.626,165.515 367.647,165.611C367.65,165.627 367.651,165.644 367.65,165.66L367.48,168.79C367.474,168.975 367.367,169.143 367.2,169.23C361.52,172.06 354.24,169.29 355.28,162C356.17,155.8 361.52,154.22 366.89,155.73C367.123,155.797 367.24,155.95 367.24,156.19L367.26,159.79C367.26,160.037 367.153,160.1 366.94,159.98Z" style="fill:rgb(13,43,136);fill-rule:nonzero;"/>
        <path d="M373.49,164.22C374.68,167.71 379.19,166.94 382.22,165.59C382.232,165.584 382.245,165.58 382.259,165.577C382.361,165.556 382.463,165.627 382.486,165.734C382.488,165.746 382.49,165.758 382.49,165.77L382.48,168.81C382.48,169.043 382.373,169.203 382.16,169.29C377.08,171.46 369.68,170.27 369.04,163.89C367.84,151.91 386.23,153.03 383.89,163.2C383.81,163.527 383.603,163.69 383.27,163.69L373.89,163.66C373.49,163.66 373.357,163.847 373.49,164.22ZM373.4,161.67L380.14,161.69C380.143,161.69 380.147,161.691 380.15,161.691C380.205,161.691 380.25,161.645 380.25,161.591C380.25,161.59 380.25,161.54 380.25,161.54C380.254,159.955 378.743,158.646 376.9,158.64L376.68,158.64C374.837,158.634 373.316,159.933 373.31,161.518C373.31,161.519 373.31,161.57 373.31,161.57C373.31,161.621 373.349,161.665 373.4,161.67Z" style="fill:rgb(13,43,136);fill-rule:nonzero;"/>
        <path d="M170.98,156.39C171.273,156.723 171.603,156.76 171.97,156.5C173.417,155.46 175.033,155.193 176.82,155.7C177,155.753 177.083,155.873 177.07,156.06L176.91,160.03C176.904,160.124 176.825,160.199 176.73,160.199C176.702,160.199 176.675,160.192 176.65,160.18C174.917,159.213 173.17,159.233 171.41,160.24C171.065,160.437 170.853,160.806 170.86,161.2L170.94,169.28C170.947,169.767 170.707,170.01 170.22,170.01L167.16,170.02C166.753,170.02 166.55,169.817 166.55,169.41L166.55,156.55C166.549,156.186 166.837,155.881 167.2,155.86L170.28,155.68C170.513,155.667 170.67,155.773 170.75,156C170.797,156.147 170.873,156.277 170.98,156.39Z" style="fill:rgb(13,43,136);fill-rule:nonzero;"/>
        <path d="M29.23,169.68L29.23,156.39C29.23,156.207 29.377,156.055 29.56,156.05L33.17,155.9C33.173,155.9 33.177,155.9 33.18,155.9C33.367,155.9 33.52,156.053 33.52,156.24C33.52,156.24 33.52,169.68 33.52,169.68C33.52,169.867 33.367,170.02 33.18,170.02L29.57,170.02C29.383,170.02 29.23,169.867 29.23,169.68Z" style="fill:rgb(13,43,136);fill-rule:nonzero;"/>
        <path d="M313.81,169.7L313.8,156.35C313.8,156.184 313.934,156.045 314.1,156.04L317.93,155.91C317.933,155.91 317.937,155.91 317.94,155.91C318.11,155.91 318.25,156.05 318.25,156.22C318.25,156.22 318.25,169.7 318.25,169.7C318.25,169.87 318.11,170.01 317.94,170.01L314.12,170.01C313.95,170.01 313.81,169.87 313.81,169.7Z" style="fill:rgb(13,43,136);fill-rule:nonzero;"/>
    </g>
</svg>
