<?xml version="1.0" encoding="UTF-8" standalone="no"?>
<!DOCTYPE svg PUBLIC "-//W3C//DTD SVG 1.1//EN" "http://www.w3.org/Graphics/SVG/1.1/DTD/svg11.dtd">
<svg xmlns="http://www.w3.org/2000/svg" version="1.1" viewBox="0.00 0.00 1602.00 501.00">
<path fill="#000000" d="
  M 177.62 11.34
  Q 177.43 11.63 177.11 11.48
  Q 174.38 10.12 171.51 11.33
  Q 171.25 11.44 171.09 11.20
  L 166.57 4.22
  Q 166.43 4.00 166.69 4.00
  L 182.15 4.00
  A 0.21 0.21 0.0 0 1 182.32 4.32
  L 177.62 11.34
  Z"
/>
<path fill="#000000" d="
  M 180.56 20.44
  Q 181.98 17.54 180.71 14.60
  Q 180.47 14.04 180.97 13.71
  L 187.29 9.51
  A 0.30 0.30 0.0 0 1 187.76 9.76
  L 187.75 25.06
  Q 187.75 25.35 187.51 25.19
  L 180.66 20.81
  Q 180.45 20.67 180.56 20.44
  Z"
/>
<path fill="#000000" d="
  M 168.35 14.53
  Q 166.89 17.34 168.27 20.22
  Q 168.46 20.62 168.09 20.87
  L 161.53 25.31
  A 0.23 0.22 73.0 0 1 161.18 25.12
  L 161.18 10.10
  A 0.30 0.29 -73.2 0 1 161.64 9.85
  L 168.26 14.19
  A 0.26 0.26 0.0 0 1 168.35 14.53
  Z"
/>
<ellipse fill="#000000" cx="0.00" cy="0.00" transform="translate(174.45,17.46) rotate(65.9)" rx="5.40" ry="5.15"/>
<path fill="#000000" d="
  M 171.63 23.68
  C 174.06 24.20 174.71 25.13 177.38 23.85
  Q 177.75 23.67 177.97 24.01
  L 182.26 30.51
  A 0.23 0.23 0.0 0 1 182.07 30.86
  L 166.96 30.83
  A 0.14 0.13 -73.6 0 1 166.85 30.62
  L 171.20 23.86
  Q 171.36 23.62 171.63 23.68
  Z"
/>
<path fill="#000000" d="
  M 175.89 53.62
  C 180.71 55.30 181.52 61.45 176.92 63.69
  C 170.84 66.64 166.12 58.20 171.92 54.34
  Q 172.32 54.07 172.80 54.01
  Q 173.10 53.97 173.29 53.79
  Q 173.62 53.48 173.17 53.41
  C 159.28 51.32 160.57 31.71 174.00 31.25
  C 187.34 30.80 189.81 50.84 175.92 53.19
  Q 175.07 53.33 175.89 53.62
  Z"
/>
<circle fill="#000000" cx="121.45" cy="40.69" r="5.22"/>
<circle fill="#000000" cx="227.14" cy="40.71" r="5.23"/>
<circle fill="#000000" cx="134.12" cy="41.93" r="5.28"/>
<ellipse fill="#000000" cx="0.00" cy="0.00" transform="translate(214.64,41.92) rotate(106.3)" rx="5.33" ry="5.15"/>
<path fill="#000000" d="
  M 612.57 68.27
  Q 584.80 142.22 557.01 216.20
  Q 556.80 216.74 556.22 216.74
  L 537.18 216.74
  Q 536.62 216.74 536.42 216.21
  L 480.85 68.26
  Q 480.74 67.97 480.44 68.02
  Q 480.28 68.05 480.15 68.15
  Q 480.04 68.23 480.04 68.37
  L 480.03 216.23
  Q 480.03 216.74 479.52 216.74
  L 457.87 216.74
  A 0.37 0.37 0.0 0 1 457.50 216.37
  L 457.50 38.48
  Q 457.50 37.96 458.02 37.96
  L 489.71 37.96
  Q 490.17 37.96 490.33 38.39
  L 546.40 187.24
  Q 546.71 188.06 547.02 187.24
  L 603.06 38.47
  Q 603.26 37.96 603.80 37.96
  L 635.45 37.96
  Q 635.95 37.96 635.95 38.45
  L 635.95 216.27
  A 0.47 0.47 0.0 0 1 635.48 216.74
  L 613.81 216.74
  A 0.44 0.43 -0.0 0 1 613.37 216.31
  L 613.37 68.41
  Q 613.37 68.11 613.10 68.01
  Q 612.93 67.95 612.75 68.04
  Q 612.63 68.10 612.57 68.27
  Z"
/>
<rect fill="#000000" x="666.24" y="37.99" width="21.22" height="25.94" rx="0.41"/>
<rect fill="#000000" x="847.31" y="37.99" width="21.22" height="25.94" rx="0.42"/>
<circle fill="#000000" cx="109.77" cy="43.61" r="5.25"/>
<circle fill="#000000" cx="239.29" cy="43.60" r="5.17"/>
<circle fill="#000000" cx="145.35" cy="46.40" r="5.14"/>
<circle fill="#000000" cx="203.24" cy="46.39" r="5.14"/>
<circle fill="#000000" cx="98.37" cy="49.95" r="5.33"/>
<circle fill="#000000" cx="157.28" cy="49.43" r="5.17"/>
<circle fill="#000000" cx="191.80" cy="49.44" r="5.06"/>
<ellipse fill="#000000" cx="0.00" cy="0.00" transform="translate(250.70,49.95) rotate(87.1)" rx="5.32" ry="5.14"/>
<path fill="#000000" d="
  M 104.44 62.66
  C 97.45 72.21 102.84 85.15 106.59 94.22
  A 0.57 0.56 -20.9 0 1 106.25 94.96
  L 102.12 96.37
  Q 101.61 96.54 101.41 96.04
  C 95.77 81.73 90.23 64.76 105.85 53.88
  C 119.12 44.63 131.51 49.43 145.75 54.18
  Q 155.06 57.28 165.98 57.15
  Q 166.54 57.14 166.53 57.69
  L 166.52 62.02
  Q 166.52 62.54 166.01 62.55
  C 154.22 62.59 144.99 60.04 133.51 55.76
  C 123.46 52.01 111.14 53.52 104.44 62.66
  Z"
/>
<path fill="#000000" d="
  M 252.91 73.24
  C 253.08 81.10 249.79 88.69 247.19 96.08
  Q 247.01 96.60 246.50 96.42
  L 242.33 94.96
  Q 241.84 94.78 242.02 94.30
  C 245.79 83.77 251.81 71.23 243.04 61.23
  C 232.34 49.04 216.99 55.05 204.46 59.12
  Q 193.41 62.71 182.02 62.51
  Q 181.72 62.51 181.72 62.21
  L 181.71 57.51
  Q 181.71 57.16 182.07 57.16
  Q 193.50 57.24 204.50 53.54
  C 216.77 49.40 228.17 45.35 240.42 52.61
  Q 252.61 59.83 252.91 73.24
  Z"
/>
<path fill="#000000" d="
  M 1045.20 87.05
  L 1069.78 87.05
  Q 1070.52 87.05 1070.52 87.78
  L 1070.52 105.47
  Q 1070.52 105.95 1070.03 105.95
  L 1045.06 105.95
  Q 1044.63 105.95 1044.62 106.39
  Q 1044.59 146.62 1044.57 186.74
  C 1044.56 195.52 1047.96 197.49 1056.25 197.68
  Q 1063.09 197.83 1069.94 197.90
  Q 1070.52 197.91 1070.52 198.49
  L 1070.52 216.21
  Q 1070.52 216.66 1070.07 216.67
  C 1060.11 216.90 1049.56 217.29 1039.76 215.56
  C 1025.96 213.14 1023.49 201.44 1023.46 189.45
  Q 1023.36 147.95 1023.45 106.45
  Q 1023.45 105.96 1022.95 105.96
  L 1002.23 105.95
  Q 1001.51 105.95 1001.51 105.23
  L 1001.51 87.52
  A 0.47 0.47 0.0 0 1 1001.98 87.05
  L 1022.93 87.04
  Q 1023.39 87.04 1023.39 86.57
  L 1023.48 48.99
  Q 1023.48 48.45 1024.01 48.45
  L 1044.22 48.46
  A 0.39 0.39 0.0 0 1 1044.61 48.85
  L 1044.61 86.45
  Q 1044.61 87.05 1045.20 87.05
  Z"
/>
<circle fill="#000000" cx="90.44" cy="59.85" r="5.16"/>
<circle fill="#000000" cx="258.45" cy="59.85" r="5.16"/>
<circle fill="#000000" cx="174.64" cy="69.99" r="5.32"/>
<circle fill="#000000" cx="87.26" cy="71.47" r="5.32"/>
<circle fill="#000000" cx="261.31" cy="71.48" r="5.32"/>
<ellipse fill="#000000" cx="0.00" cy="0.00" transform="translate(174.63,80.91) rotate(-1.0)" rx="5.32" ry="5.16"/>
<circle fill="#000000" cx="88.78" cy="84.12" r="5.06"/>
<circle fill="#000000" cx="260.14" cy="84.12" r="5.06"/>
<path fill="#000000" d="
  M 1106.23 113.50
  Q 1106.23 115.24 1106.99 113.67
  C 1116.21 94.51 1132.00 82.87 1153.87 84.23
  Q 1154.36 84.26 1154.36 84.75
  L 1154.35 106.09
  A 0.66 0.65 -89.6 0 1 1153.69 106.75
  C 1118.98 106.24 1107.47 128.83 1107.54 160.00
  Q 1107.59 188.10 1107.53 216.20
  Q 1107.53 216.74 1106.99 216.74
  L 1086.93 216.74
  Q 1086.36 216.74 1086.36 216.18
  L 1086.36 87.38
  A 0.33 0.33 0.0 0 1 1086.69 87.05
  L 1105.76 87.04
  Q 1106.24 87.04 1106.24 87.52
  L 1106.23 113.50
  Z"
/>
<path fill="#000000" d="
  M 734.28 107.20
  Q 744.64 88.42 766.48 84.79
  C 777.25 83.01 791.08 84.27 800.60 89.13
  C 816.32 97.14 820.75 114.06 820.75 130.75
  Q 820.76 173.65 820.74 216.48
  A 0.26 0.26 0.0 0 1 820.48 216.74
  L 799.98 216.74
  A 0.48 0.47 -0.0 0 1 799.50 216.27
  Q 799.55 174.87 799.48 133.54
  Q 799.47 123.09 797.95 118.65
  C 793.52 105.62 779.90 101.65 766.95 103.19
  C 744.85 105.84 734.64 123.60 734.74 144.25
  Q 734.91 180.15 734.95 216.28
  A 0.46 0.45 -90.0 0 1 734.50 216.74
  L 714.23 216.74
  Q 713.71 216.74 713.71 216.23
  L 713.71 87.67
  Q 713.71 87.04 714.33 87.04
  L 732.92 87.05
  Q 733.53 87.05 733.53 87.66
  L 733.53 107.01
  Q 733.53 108.55 734.28 107.20
  Z"
/>
<path fill="#000000" d="
  M 912.40 118.86
  C 911.72 131.00 925.60 135.37 934.77 137.59
  Q 947.25 140.62 959.77 143.36
  Q 973.54 146.37 984.03 153.16
  C 994.93 160.20 998.33 172.71 996.71 184.99
  C 992.39 217.86 951.49 222.59 926.26 218.41
  C 903.87 214.70 887.72 200.20 887.25 176.51
  Q 887.24 176.00 887.75 176.00
  L 907.73 176.00
  Q 908.23 176.00 908.26 176.50
  C 910.07 201.68 939.36 203.46 957.75 199.25
  C 967.90 196.94 975.51 190.44 974.07 179.24
  C 972.77 169.11 960.27 164.18 951.50 162.21
  Q 936.87 158.90 922.24 155.49
  C 912.39 153.18 900.64 147.65 894.59 139.16
  C 887.81 129.66 887.88 114.35 893.79 104.48
  C 901.80 91.10 919.31 85.13 934.25 84.63
  C 959.96 83.75 986.65 89.86 990.53 120.25
  Q 990.89 123.12 991.05 124.56
  Q 991.11 125.14 990.52 125.14
  L 970.46 125.14
  Q 969.82 125.14 969.76 124.51
  C 968.47 111.95 958.53 105.16 946.76 103.71
  C 936.06 102.40 913.27 103.27 912.40 118.86
  Z"
/>
<path fill="#000000" d="
  M 135.67 116.45
  L 135.93 116.39
  Q 136.27 116.31 136.18 115.97
  Q 134.89 111.02 131.56 104.22
  C 129.07 99.14 132.46 91.16 134.39 86.23
  A 0.28 0.28 0.0 0 1 134.87 86.16
  C 138.18 90.42 142.49 94.85 141.55 100.76
  C 140.83 105.29 139.48 110.06 140.09 114.62
  Q 140.13 114.92 140.44 114.95
  Q 140.78 114.98 140.82 114.64
  C 141.31 110.27 141.66 102.16 146.72 100.22
  C 153.69 97.54 156.39 110.06 150.26 112.16
  Q 149.68 112.35 149.72 111.75
  Q 149.83 110.11 148.50 109.17
  A 1.04 1.03 -42.0 0 0 147.40 109.12
  Q 144.71 110.67 144.39 113.88
  Q 144.33 114.45 144.87 114.25
  Q 146.70 113.58 147.39 115.40
  A 1.24 1.23 51.0 0 1 147.28 116.50
  Q 146.72 117.40 145.68 117.69
  Q 145.06 117.86 145.36 118.44
  L 146.58 120.74
  A 0.95 0.95 0.0 0 0 147.41 121.26
  Q 148.98 121.31 149.52 118.32
  Q 149.68 117.46 150.31 118.06
  Q 152.14 119.83 151.01 122.22
  Q 150.80 122.67 151.28 122.75
  C 160.99 124.45 168.34 119.40 171.92 110.57
  Q 172.13 110.05 172.66 110.23
  Q 174.86 110.96 177.15 110.55
  Q 177.65 110.46 177.86 110.93
  C 181.66 119.45 188.97 124.95 198.62 123.21
  Q 199.18 123.11 198.94 122.59
  Q 197.83 120.25 199.44 118.54
  Q 199.81 118.16 200.23 118.26
  Q 200.82 118.40 200.52 118.93
  Q 199.87 120.11 201.35 121.09
  A 1.66 1.65 29.2 0 0 203.77 120.41
  L 204.52 118.80
  Q 204.79 118.20 204.15 118.06
  C 201.34 117.48 201.87 113.61 204.71 114.61
  Q 205.22 114.79 205.18 114.25
  Q 204.91 110.91 202.02 109.39
  Q 201.60 109.17 201.19 109.39
  Q 199.46 110.28 199.50 112.26
  Q 199.52 112.82 198.97 112.67
  C 194.88 111.54 194.27 106.13 196.11 103.12
  C 199.95 96.83 205.27 101.67 206.91 106.30
  Q 208.02 109.45 207.53 115.24
  A 0.13 0.13 0.0 0 0 207.65 115.38
  L 207.93 115.40
  Q 208.18 115.42 208.19 115.17
  C 208.53 110.14 207.42 105.43 206.66 100.48
  C 205.79 94.82 210.25 90.86 213.25 86.69
  A 0.36 0.36 0.0 0 1 213.89 86.78
  C 215.62 91.93 219.11 98.58 216.87 104.07
  C 215.30 107.92 213.46 111.47 212.19 115.47
  Q 211.99 116.09 212.27 116.46
  Q 212.68 117.00 212.80 116.34
  C 213.61 112.18 216.06 104.25 221.57 105.08
  C 227.72 106.00 227.81 118.17 221.72 118.00
  Q 221.20 117.98 221.27 117.47
  C 221.97 112.27 216.94 112.31 215.53 116.53
  Q 215.35 117.07 215.90 117.21
  C 217.68 117.65 218.42 119.52 216.76 120.63
  A 0.92 0.90 30.1 0 1 216.21 120.77
  L 215.24 120.69
  Q 214.71 120.65 214.69 121.17
  Q 214.61 123.16 215.97 124.49
  A 1.55 1.41 22.1 0 0 218.57 123.54
  Q 218.56 123.29 218.64 123.08
  Q 218.89 122.44 219.27 123.02
  Q 220.73 125.29 219.38 127.67
  A 0.91 0.91 0.0 0 0 219.81 128.95
  C 226.73 131.93 234.15 126.50 238.76 121.16
  A 0.64 0.64 0.0 0 1 239.67 121.10
  Q 240.92 122.18 242.51 122.62
  A 0.52 0.51 13.8 0 1 242.88 123.22
  L 236.32 155.73
  Q 236.24 156.13 235.85 155.99
  C 195.53 140.47 152.66 139.56 112.29 155.43
  A 0.24 0.24 0.0 0 1 111.97 155.25
  L 105.39 122.73
  Q 105.28 122.19 105.81 122.06
  Q 107.23 121.70 108.29 120.71
  Q 108.96 120.08 109.60 120.75
  C 114.13 125.49 122.23 131.84 128.70 128.03
  Q 129.14 127.77 128.88 127.33
  Q 127.51 125.01 128.92 122.73
  Q 129.56 121.70 129.65 122.90
  Q 129.73 124.04 130.63 124.37
  C 132.64 125.10 133.69 122.35 133.55 120.88
  Q 133.49 120.27 132.88 120.35
  L 132.05 120.47
  Q 131.40 120.56 130.98 120.07
  Q 130.20 119.15 130.62 117.97
  A 1.16 1.15 -5.6 0 1 131.11 117.38
  Q 131.63 117.05 132.19 116.95
  Q 132.74 116.84 132.62 116.30
  Q 132.05 113.72 130.68 113.30
  C 127.19 112.23 127.02 114.78 126.92 117.31
  Q 126.91 117.78 126.44 117.73
  C 121.51 117.25 121.23 110.68 123.14 107.36
  C 125.34 103.54 130.08 103.98 132.21 107.53
  Q 134.68 111.66 135.56 116.38
  A 0.09 0.09 0.0 0 0 135.67 116.45
  Z"
/>
<path fill="#000000" d="
  M 178.10 97.34
  A 0.22 0.22 0.0 0 1 177.80 97.44
  Q 174.45 95.74 171.09 97.30
  Q 170.58 97.54 170.36 97.02
  Q 168.06 91.67 164.27 87.25
  Q 163.87 86.78 164.49 86.78
  L 184.02 86.79
  Q 184.69 86.79 184.28 87.32
  Q 180.62 91.98 178.10 97.34
  Z"
/>
<rect fill="#000000" x="847.00" y="87.13" width="21.24" height="129.62" rx="0.26"/>
<path fill="#000000" d="
  M 1221.50 192.73
  L 1257.62 87.33
  Q 1257.72 87.05 1258.02 87.05
  L 1279.94 87.04
  A 0.24 0.23 -79.3 0 1 1280.15 87.36
  Q 1252.40 160.49 1224.59 233.59
  C 1218.42 249.82 1210.93 266.65 1191.78 268.69
  Q 1182.04 269.73 1172.58 266.93
  A 0.99 0.99 0.0 0 1 1171.87 265.98
  L 1171.87 247.56
  A 0.42 0.42 0.0 0 1 1172.44 247.17
  C 1186.60 252.61 1196.96 250.33 1202.85 235.61
  Q 1206.68 226.04 1210.41 216.42
  Q 1210.58 215.98 1210.40 215.54
  L 1159.24 87.47
  A 0.31 0.30 78.9 0 1 1159.52 87.05
  L 1182.79 87.04
  A 0.74 0.73 80.5 0 1 1183.48 87.54
  L 1220.87 192.73
  A 0.34 0.33 44.8 0 0 1221.50 192.73
  Z"
/>
<rect fill="#000000" x="666.24" y="87.13" width="21.22" height="129.62" rx="0.39"/>
<circle fill="#000000" cx="92.82" cy="95.56" r="5.33"/>
<circle fill="#000000" cx="256.09" cy="95.56" r="5.33"/>
<path fill="#000000" d="
  M 167.84 100.94
  C 166.90 103.08 166.80 104.66 167.95 106.77
  Q 168.14 107.12 167.80 107.32
  L 157.89 113.42
  Q 157.48 113.67 157.48 113.19
  L 157.47 93.86
  A 0.19 0.19 0.0 0 1 157.77 93.70
  L 167.61 100.16
  Q 168.05 100.45 167.84 100.94
  Z"
/>
<path fill="#000000" d="
  M 191.08 113.42
  L 181.16 107.55
  Q 180.88 107.38 181.02 107.09
  Q 182.59 104.03 181.00 101.00
  A 0.61 0.61 0.0 0 1 181.21 100.21
  L 191.03 93.78
  Q 191.48 93.49 191.48 94.02
  L 191.48 113.19
  Q 191.48 113.65 191.08 113.42
  Z"
/>
<path fill="#000000" d="
  M 112.24 95.55
  L 106.77 108.73
  A 0.32 0.32 0.0 0 1 106.45 108.93
  L 103.09 108.64
  A 0.32 0.32 0.0 0 1 102.83 108.44
  L 99.33 99.89
  A 0.32 0.32 0.0 0 1 99.52 99.47
  L 111.84 95.13
  A 0.32 0.32 0.0 0 1 112.24 95.55
  Z"
/>
<path fill="#000000" d="
  M 249.58 99.89
  L 246.09 108.45
  A 0.33 0.33 0.0 0 1 245.81 108.66
  L 242.44 108.91
  A 0.33 0.33 0.0 0 1 242.11 108.71
  L 236.69 95.58
  A 0.33 0.33 0.0 0 1 237.11 95.14
  L 249.38 99.46
  A 0.33 0.33 0.0 0 1 249.58 99.89
  Z"
/>
<circle fill="#000000" cx="174.64" cy="103.64" r="5.33"/>
<path fill="#000000" d="
  M 120.86 122.04
  C 117.31 120.03 115.10 119.01 111.31 118.23
  Q 110.85 118.13 110.95 117.68
  Q 111.69 114.31 109.58 111.57
  A 0.65 0.64 -38.3 0 1 109.69 110.67
  Q 113.94 107.31 116.73 102.68
  Q 117.09 102.09 117.24 102.77
  L 121.27 121.73
  Q 121.40 122.34 120.86 122.04
  Z"
/>
<path fill="#000000" d="
  M 239.00 111.47
  C 237.76 113.54 237.07 115.08 237.64 117.64
  Q 237.76 118.15 237.24 118.25
  Q 232.14 119.22 227.83 122.11
  Q 227.13 122.59 227.30 121.75
  L 231.33 102.78
  Q 231.36 102.66 231.44 102.75
  L 238.97 111.17
  Q 239.10 111.31 239.00 111.47
  Z"
/>
<circle fill="#000000" cx="104.59" cy="115.42" r="5.33"/>
<circle fill="#000000" cx="244.31" cy="115.42" r="5.33"/>
<path fill="#000000" d="
  M 230.79 158.70
  C 233.55 159.73 237.53 160.62 239.28 162.77
  C 242.79 167.12 239.77 172.86 234.64 173.52
  Q 232.77 173.77 229.56 172.56
  Q 174.83 151.96 120.09 172.21
  Q 115.75 173.81 113.67 173.59
  C 109.13 173.10 106.42 166.94 109.19 163.22
  Q 110.33 161.68 113.35 160.49
  C 150.61 145.71 193.07 144.62 230.79 158.70
  Z"
/>
<path fill="#000000" d="
  M 98.85 159.38
  C 103.65 172.60 98.16 184.80 85.48 190.46
  Q 85.07 190.64 84.95 190.22
  C 81.04 176.96 85.95 165.30 98.28 159.15
  Q 98.69 158.94 98.85 159.38
  Z"
/>
<path fill="#000000" d="
  M 262.54 190.45
  Q 243.73 180.65 249.06 159.47
  A 0.60 0.60 0.0 0 1 249.92 159.08
  Q 268.73 168.82 263.51 190.01
  Q 263.30 190.85 262.54 190.45
  Z"
/>
<path fill="#000000" d="
  M 320.76 312.63
  A 146.17 146.17 0.0 0 1 174.59 458.80
  A 146.17 146.17 0.0 0 1 28.42 312.63
  A 146.17 146.17 0.0 0 1 174.59 166.46
  A 146.17 146.17 0.0 0 1 320.76 312.63
  Z
  M 316.00 312.32
  A 141.71 141.71 0.0 0 0 174.29 170.61
  A 141.71 141.71 0.0 0 0 32.58 312.32
  A 141.71 141.71 0.0 0 0 174.29 454.03
  A 141.71 141.71 0.0 0 0 316.00 312.32
  Z"
/>
<path fill="#000000" d="
  M 77.54 171.74
  C 83.68 184.20 80.51 196.68 68.95 204.38
  A 0.44 0.43 -29.1 0 1 68.31 204.20
  Q 59.35 183.90 76.99 171.60
  Q 77.35 171.35 77.54 171.74
  Z"
/>
<path fill="#000000" d="
  M 279.93 204.47
  Q 279.75 204.87 279.38 204.62
  C 267.90 196.98 264.61 184.68 270.66 172.18
  Q 270.90 171.69 271.35 171.98
  C 283.30 179.66 285.53 191.92 279.93 204.47
  Z"
/>
<path fill="#000000" d="
  M 180.34 239.49
  L 180.34 264.96
  Q 180.34 265.53 179.82 265.79
  L 174.75 268.30
  A 0.97 0.96 -45.3 0 1 173.89 268.31
  L 168.73 265.78
  Q 168.24 265.54 168.24 265.00
  L 168.24 239.26
  A 0.29 0.29 0.0 0 0 167.95 238.97
  C 160.67 238.92 153.61 239.29 146.41 238.14
  Q 126.80 235.01 107.19 231.93
  Q 106.62 231.84 106.62 231.26
  L 106.63 221.77
  A 0.35 0.35 0.0 0 1 106.98 221.42
  L 167.66 221.42
  Q 168.25 221.42 168.25 220.84
  L 168.24 218.71
  Q 168.24 218.08 167.66 217.86
  C 148.93 210.58 149.12 185.13 168.26 178.52
  Q 174.44 176.39 181.62 179.21
  C 199.71 186.30 198.88 211.25 180.88 217.74
  Q 180.35 217.93 180.35 218.50
  L 180.34 220.88
  Q 180.34 221.42 180.88 221.42
  L 241.64 221.41
  A 0.33 0.33 0.0 0 1 241.97 221.74
  L 241.98 231.25
  Q 241.98 231.85 241.39 231.94
  Q 221.91 234.96 202.48 238.10
  C 195.30 239.27 188.20 238.89 180.85 238.97
  Q 180.34 238.98 180.34 239.49
  Z
  M 167.89 208.92
  C 169.45 201.04 179.08 201.75 179.99 208.90
  A 0.39 0.39 0.0 0 0 180.60 209.16
  C 187.33 204.16 188.60 195.17 182.13 189.38
  C 169.26 177.87 152.39 198.67 167.38 209.12
  Q 167.79 209.41 167.89 208.92
  Z"
/>
<path fill="#000000" d="
  M 290.39 186.87
  C 300.44 196.13 302.23 209.29 294.47 220.61
  Q 294.13 221.10 293.69 220.70
  C 283.36 211.29 281.91 198.76 289.69 186.96
  Q 289.99 186.51 290.39 186.87
  Z"
/>
<path fill="#000000" d="
  M 53.57 221.12
  C 45.85 209.14 47.42 197.01 57.46 187.05
  A 0.37 0.36 -38.6 0 1 58.02 187.11
  C 66.00 199.07 64.72 211.51 54.01 221.17
  A 0.29 0.28 -37.5 0 1 53.57 221.12
  Z"
/>
<path fill="#000000" d="
  M 41.69 205.38
  C 51.02 216.02 51.28 228.12 42.62 239.29
  A 0.43 0.43 0.0 0 1 41.96 239.31
  Q 27.71 222.90 40.94 205.41
  Q 41.29 204.94 41.69 205.38
  Z"
/>
<path fill="#000000" d="
  M 307.66 205.42
  C 316.13 216.30 316.03 228.80 306.72 239.09
  Q 306.22 239.63 305.78 239.04
  Q 292.80 221.71 306.89 205.40
  Q 307.28 204.94 307.66 205.42
  Z"
/>
<path fill="#000000" d="
  M 32.41 259.09
  C 21.87 250.23 19.51 237.42 26.63 225.55
  Q 26.86 225.18 27.19 225.46
  C 37.73 234.41 40.31 246.79 33.15 258.96
  Q 32.85 259.46 32.41 259.09
  Z"
/>
<path fill="#000000" d="
  M 315.00 258.94
  C 307.94 246.81 310.52 234.22 321.12 225.42
  A 0.29 0.29 0.0 0 1 321.56 225.49
  C 328.65 237.32 326.54 250.16 315.70 259.06
  Q 315.28 259.42 315.00 258.94
  Z"
/>
<path fill="#000000" d="
  M 206.98 274.08
  C 203.09 275.42 199.30 277.22 195.62 279.11
  Q 195.22 279.31 194.83 279.11
  L 179.55 271.19
  A 0.25 0.25 0.0 0 1 179.55 270.74
  Q 212.96 253.70 246.54 236.82
  C 256.45 231.84 266.47 228.43 277.14 228.02
  Q 277.65 228.00 277.33 228.39
  Q 266.56 241.80 253.66 248.90
  Q 232.24 260.70 210.80 272.44
  Q 209.17 273.33 206.98 274.08
  Z"
/>
<path fill="#000000" d="
  M 118.91 245.72
  Q 155.80 264.73 167.73 271.05
  Q 182.54 278.90 188.76 281.81
  Q 190.26 282.51 188.82 283.32
  L 181.40 287.55
  Q 180.04 288.32 178.46 288.29
  L 172.24 288.17
  Q 171.76 288.16 171.43 287.80
  C 162.79 278.55 147.96 272.95 135.69 270.52
  Q 132.59 269.90 130.10 268.53
  Q 112.01 258.57 93.99 248.53
  Q 84.21 243.07 74.23 232.36
  C 73.22 231.27 71.48 230.29 70.64 228.60
  Q 70.44 228.19 70.89 228.22
  C 88.65 229.50 101.95 236.97 118.91 245.72
  Z"
/>
<path fill="#000000" d="
  M 15.29 248.70
  Q 15.64 247.65 16.57 248.24
  Q 34.40 259.50 27.11 280.07
  Q 26.89 280.67 26.35 280.34
  Q 8.34 269.38 15.29 248.70
  Z"
/>
<path fill="#000000" d="
  M 332.56 248.26
  C 338.09 260.93 333.81 273.61 321.75 280.31
  Q 321.26 280.58 321.09 280.05
  C 316.64 266.67 319.58 255.28 332.00 248.07
  Q 332.38 247.85 332.56 248.26
  Z"
/>
<path fill="#000000" d="
  M 217.55 303.36
  Q 214.42 300.20 210.12 299.35
  Q 196.71 296.69 183.29 291.99
  Q 182.64 291.76 183.22 291.38
  C 198.09 281.59 216.00 273.88 233.80 271.28
  Q 240.67 270.27 251.23 270.62
  Q 280.27 271.59 308.63 277.84
  Q 309.70 278.08 308.61 278.21
  Q 286.89 280.81 265.36 286.54
  C 254.54 289.42 245.92 292.59 237.08 299.83
  Q 230.31 305.38 221.84 307.47
  Q 221.37 307.58 220.94 307.37
  C 218.83 306.34 218.79 304.60 217.55 303.36
  Z"
/>
<path fill="#000000" d="
  M 184.30 315.62
  C 185.74 316.20 190.21 314.96 192.47 315.22
  Q 193.18 315.30 192.91 315.96
  L 190.04 323.04
  A 1.03 1.03 0.0 0 0 190.32 324.20
  L 207.37 339.37
  A 0.46 0.46 0.0 0 1 207.44 339.99
  C 200.06 349.96 183.55 352.02 172.24 351.62
  C 161.00 351.22 147.99 348.99 140.23 340.15
  A 0.73 0.72 42.9 0 1 140.19 339.25
  L 153.78 320.83
  A 1.20 1.20 0.0 0 0 153.98 319.88
  L 152.18 311.51
  Q 152.08 311.00 151.56 311.07
  C 140.70 312.42 129.69 311.79 119.49 308.09
  C 108.03 303.93 98.37 295.43 86.66 291.02
  Q 82.31 289.38 76.71 287.96
  Q 58.11 283.24 39.15 280.16
  Q 38.51 280.06 39.08 279.76
  Q 41.43 278.53 43.23 277.95
  Q 62.62 271.71 83.00 270.88
  C 109.43 269.80 138.52 271.55 160.66 283.58
  Q 166.26 286.62 170.04 291.71
  Q 170.38 292.16 170.92 292.01
  C 174.05 291.18 176.20 290.64 179.43 292.15
  Q 186.80 295.61 194.30 298.74
  C 199.18 300.78 204.35 301.92 209.50 303.29
  C 211.18 303.74 214.29 304.98 214.81 307.05
  Q 214.93 307.52 215.33 307.81
  C 218.61 310.16 222.00 313.60 216.93 316.90
  Q 216.51 317.17 216.27 316.74
  C 214.06 312.87 206.10 315.02 202.45 314.29
  C 199.10 313.63 194.92 311.36 191.72 311.86
  Q 187.57 312.50 184.23 315.15
  Q 183.85 315.44 184.30 315.62
  Z"
/>
<path fill="#000000" d="
  M 8.33 271.49
  C 21.35 276.42 27.48 288.31 23.84 301.85
  A 0.29 0.29 0.0 0 1 23.45 302.05
  C 10.31 296.79 4.58 285.57 7.85 271.75
  A 0.37 0.36 -72.5 0 1 8.33 271.49
  Z"
/>
<path fill="#000000" d="
  M 340.66 271.86
  C 344.28 285.30 337.93 297.19 325.06 302.01
  A 0.35 0.34 -16.0 0 1 324.60 301.76
  Q 320.11 279.92 340.08 271.58
  A 0.43 0.42 -18.5 0 1 340.66 271.86
  Z"
/>
<path fill="#000000" d="
  M 4.59 295.67
  C 18.17 299.14 24.86 309.88 23.87 323.58
  A 0.50 0.50 0.0 0 1 23.24 324.02
  Q 2.61 318.12 3.92 296.16
  Q 3.96 295.51 4.59 295.67
  Z"
/>
<path fill="#000000" d="
  M 344.28 296.36
  C 346.16 309.88 337.94 321.27 324.87 324.33
  A 0.41 0.41 0.0 0 1 324.37 323.96
  Q 323.02 301.99 343.82 296.06
  A 0.37 0.36 77.7 0 1 344.28 296.36
  Z"
/>
<path fill="#000000" d="
  M 105.49 331.27
  L 106.64 333.59
  Q 106.91 334.12 107.50 334.03
  C 117.08 332.51 118.18 347.22 108.76 347.66
  C 102.36 347.97 99.90 340.27 97.60 335.96
  A 2.20 2.20 0.0 0 0 94.03 335.51
  C 92.66 337.02 90.62 337.12 89.30 337.72
  Q 76.72 343.53 64.30 349.67
  C 63.07 350.28 61.55 350.10 60.56 351.10
  C 59.24 352.44 58.10 354.07 56.48 354.91
  C 42.77 362.00 36.19 338.43 51.97 337.59
  A 1.46 1.37 22.3 0 0 52.76 337.29
  Q 54.16 336.18 55.90 335.82
  Q 56.37 335.73 56.80 335.50
  L 83.61 321.15
  Q 84.09 320.89 84.43 320.48
  Q 85.84 318.80 88.04 318.45
  Q 88.72 318.34 88.40 317.73
  C 86.66 314.50 83.37 309.84 82.84 306.55
  C 81.56 298.72 91.87 295.64 95.83 302.20
  Q 98.42 306.48 94.85 310.27
  Q 94.51 310.63 94.75 311.07
  L 95.90 313.17
  Q 96.21 313.73 96.78 313.44
  L 108.09 307.58
  Q 108.58 307.32 109.07 307.59
  Q 120.13 313.66 132.65 315.19
  Q 133.57 315.30 132.76 315.74
  L 105.72 330.55
  A 0.56 0.54 -28.1 0 0 105.49 331.27
  Z"
/>
<path fill="#000000" d="
  M 598.25 349.78
  C 598.20 340.46 597.44 328.70 599.38 320.87
  C 604.60 299.81 629.06 296.14 647.23 301.10
  Q 647.73 301.24 647.73 301.76
  L 647.72 319.21
  Q 647.72 319.74 647.21 319.60
  C 637.65 316.88 621.13 315.85 619.59 329.36
  Q 619.09 333.74 619.59 350.26
  Q 619.60 350.70 620.04 350.70
  L 643.74 350.65
  A 0.59 0.59 0.0 0 1 644.33 351.24
  L 644.31 368.98
  Q 644.31 369.52 643.77 369.52
  L 619.97 369.51
  Q 619.45 369.51 619.45 370.03
  L 619.45 480.03
  A 0.23 0.23 0.0 0 1 619.22 480.26
  L 598.75 480.26
  Q 598.24 480.26 598.24 479.75
  L 598.24 369.73
  Q 598.24 369.22 597.73 369.22
  L 576.77 369.22
  A 0.45 0.45 0.0 0 1 576.32 368.77
  L 576.32 350.75
  A 0.44 0.43 90.0 0 1 576.75 350.31
  L 597.72 350.31
  Q 598.25 350.31 598.25 349.78
  Z"
/>
<path fill="#000000" d="
  M 1036.47 349.81
  C 1036.62 328.12 1033.38 305.66 1061.25 300.22
  Q 1073.51 297.83 1085.48 301.05
  Q 1086.01 301.20 1086.01 301.75
  L 1086.01 319.22
  Q 1086.01 319.72 1085.53 319.58
  Q 1075.94 316.90 1067.47 318.64
  Q 1057.70 320.65 1057.62 331.26
  Q 1057.55 340.66 1057.86 350.09
  Q 1057.88 350.69 1058.47 350.69
  L 1082.18 350.69
  Q 1082.68 350.69 1082.68 351.18
  L 1082.68 369.04
  A 0.48 0.47 -90.0 0 1 1082.21 369.52
  L 1058.52 369.52
  Q 1058.06 369.52 1058.06 369.98
  L 1058.06 479.73
  Q 1058.06 480.26 1057.52 480.26
  L 1037.25 480.26
  Q 1036.88 480.26 1036.88 479.89
  L 1036.88 369.67
  A 0.45 0.45 0.0 0 0 1036.42 369.22
  L 1015.20 369.22
  Q 1014.67 369.22 1014.67 368.70
  L 1014.67 351.07
  Q 1014.67 350.31 1015.43 350.31
  L 1035.96 350.31
  Q 1036.47 350.31 1036.47 349.81
  Z"
/>
<path fill="#000000" d="
  M 259.74 320.00
  A 0.30 0.29 -72.9 0 0 259.97 320.44
  Q 262.44 320.67 263.94 322.60
  A 1.47 1.46 76.7 0 0 264.79 323.13
  C 266.87 323.55 268.03 325.06 269.54 325.83
  C 275.89 329.03 282.28 332.51 288.79 335.34
  C 290.49 336.09 291.88 337.40 293.90 337.77
  A 1.29 1.27 67.2 0 1 294.38 337.97
  L 296.06 339.15
  A 1.35 1.32 -29.5 0 0 296.93 339.38
  C 300.77 339.02 302.75 341.71 303.89 344.94
  C 307.61 355.46 294.44 362.04 287.73 353.02
  Q 287.14 352.23 285.46 351.76
  Q 283.94 351.34 283.10 350.90
  Q 270.20 344.25 262.24 341.19
  Q 259.09 339.97 257.85 339.19
  Q 257.43 338.92 256.92 338.90
  Q 255.05 338.81 253.76 337.34
  Q 253.46 337.00 253.01 336.93
  L 250.93 336.63
  Q 250.50 336.57 250.29 336.96
  C 248.56 340.25 246.22 346.63 243.07 348.24
  C 236.28 351.70 230.40 344.35 234.30 338.07
  Q 236.42 334.65 241.04 335.48
  Q 241.59 335.58 241.91 335.12
  L 243.48 332.82
  A 0.27 0.27 0.0 0 0 243.39 332.44
  L 221.68 320.58
  A 0.32 0.32 0.0 0 1 221.58 320.10
  Q 223.81 317.32 223.30 313.78
  Q 223.22 313.26 223.73 313.12
  Q 230.21 311.37 235.73 307.60
  Q 236.20 307.28 236.71 307.54
  L 251.85 315.45
  A 0.64 0.63 -61.8 0 0 252.70 315.19
  L 253.76 313.24
  Q 254.02 312.76 253.65 312.36
  C 246.57 304.76 258.81 295.44 264.34 303.66
  Q 266.53 306.90 264.77 310.38
  Q 262.30 315.25 259.74 320.00
  Z"
/>
<path fill="#000000" d="
  M 877.50 406.25
  C 872.32 452.85 844.57 479.33 797.25 479.71
  Q 764.66 479.98 731.97 479.98
  A 0.46 0.46 0.0 0 1 731.51 479.52
  L 731.50 301.52
  A 0.28 0.28 0.0 0 1 731.78 301.24
  Q 763.98 301.15 796.25 301.29
  C 812.28 301.36 829.98 304.77 843.74 312.65
  C 876.98 331.69 881.30 371.97 877.50 406.25
  Z
  M 853.39 365.98
  C 848.40 338.31 829.49 322.16 801.24 321.56
  Q 782.97 321.18 756.26 321.50
  Q 755.76 321.51 755.76 322.01
  L 755.76 459.50
  Q 755.76 460.00 756.27 460.01
  Q 773.78 460.14 791.28 460.02
  Q 803.41 459.94 809.14 458.90
  C 853.79 450.73 859.87 401.97 853.39 365.98
  Z"
/>
<path fill="#000000" d="
  M 26.71 345.99
  C 12.97 344.16 3.74 335.24 3.42 321.15
  Q 3.41 320.78 3.78 320.83
  Q 25.28 323.78 27.23 345.49
  A 0.46 0.46 0.0 0 1 26.71 345.99
  Z"
/>
<path fill="#000000" d="
  M 344.96 321.41
  C 344.03 335.08 335.34 344.50 321.51 345.93
  Q 320.99 345.98 321.04 345.46
  Q 322.96 323.91 344.33 320.83
  Q 345.00 320.73 344.96 321.41
  Z"
/>
<path fill="#000000" d="
  M 32.94 366.91
  C 19.17 367.79 9.03 359.33 6.46 345.96
  Q 6.38 345.52 6.82 345.48
  C 20.90 344.31 30.75 352.90 33.34 366.38
  Q 33.44 366.88 32.94 366.91
  Z"
/>
<path fill="#000000" d="
  M 342.15 345.84
  C 339.54 359.32 329.58 367.60 315.53 366.80
  Q 315.08 366.78 315.17 366.33
  Q 319.74 345.19 341.72 345.32
  Q 342.25 345.32 342.15 345.84
  Z"
/>
<path fill="#000000" d="
  M 915.08 421.94
  C 913.74 450.76 936.15 468.03 963.45 463.25
  Q 984.17 459.61 989.04 439.14
  A 0.38 0.37 -83.0 0 1 989.40 438.85
  L 1009.62 438.87
  Q 1010.18 438.87 1010.07 439.41
  C 1005.88 460.76 992.01 476.47 970.49 481.25
  C 946.24 486.63 919.58 480.35 905.07 459.18
  C 895.29 444.89 891.56 424.40 892.79 407.01
  C 895.18 373.22 921.07 345.86 955.95 347.36
  C 995.92 349.08 1013.68 385.52 1011.85 421.00
  Q 1011.84 421.31 1011.52 421.31
  L 915.74 421.31
  Q 915.11 421.31 915.08 421.94
  Z
  M 989.75 402.32
  C 985.95 354.75 919.06 353.82 915.39 402.22
  Q 915.34 402.86 915.99 402.86
  L 989.25 402.86
  A 0.50 0.50 0.0 0 0 989.75 402.32
  Z"
/>
<path fill="#000000" d="
  M 1108.61 421.90
  C 1107.65 440.74 1118.05 457.91 1136.55 462.56
  C 1153.78 466.90 1174.04 462.89 1180.90 444.48
  Q 1181.83 441.98 1182.54 439.39
  Q 1182.68 438.86 1183.23 438.86
  L 1203.27 438.86
  Q 1203.90 438.86 1203.76 439.48
  C 1196.07 473.97 1167.36 487.76 1134.03 481.59
  C 1102.73 475.79 1088.97 450.33 1086.38 420.92
  C 1083.24 385.27 1104.07 350.74 1141.99 347.64
  C 1185.82 344.05 1207.13 381.81 1205.47 420.84
  Q 1205.45 421.31 1204.98 421.31
  L 1109.22 421.31
  Q 1108.64 421.31 1108.61 421.90
  Z
  M 1139.23 366.79
  C 1121.55 369.96 1109.97 384.71 1109.02 402.36
  Q 1108.99 402.86 1109.50 402.86
  L 1182.72 402.86
  Q 1183.25 402.86 1183.22 402.33
  C 1181.80 379.47 1162.27 362.65 1139.23 366.79
  Z"
/>
<path fill="#000000" d="
  M 1243.55 370.23
  Q 1243.55 371.52 1244.20 370.41
  Q 1257.21 348.07 1283.76 347.46
  C 1316.59 346.71 1330.68 363.21 1330.73 395.13
  Q 1330.79 437.28 1330.75 479.47
  A 0.48 0.48 0.0 0 1 1330.27 479.95
  L 1310.03 479.95
  Q 1309.53 479.95 1309.53 479.46
  Q 1309.55 437.84 1309.52 396.12
  Q 1309.52 386.91 1308.08 382.53
  C 1303.87 369.73 1292.13 365.42 1279.45 366.26
  C 1261.98 367.43 1249.29 378.24 1245.90 395.60
  Q 1245.01 400.14 1244.98 409.97
  Q 1244.89 444.79 1244.96 479.51
  A 0.45 0.45 0.0 0 1 1244.51 479.96
  L 1223.97 479.95
  A 0.24 0.23 -0.0 0 1 1223.73 479.72
  L 1223.73 350.79
  A 0.48 0.48 0.0 0 1 1224.21 350.31
  L 1243.06 350.31
  Q 1243.55 350.31 1243.55 350.81
  L 1243.55 370.23
  Z"
/>
<path fill="#000000" d="
  M 1410.50 464.28
  C 1430.26 464.25 1442.88 452.02 1445.80 433.06
  Q 1445.89 432.48 1446.48 432.48
  L 1467.22 432.48
  Q 1467.71 432.48 1467.64 432.96
  C 1465.23 450.28 1456.89 466.49 1441.58 475.40
  C 1427.86 483.37 1409.49 484.75 1394.05 481.14
  C 1366.35 474.68 1352.29 451.82 1350.23 424.75
  C 1347.70 391.45 1360.67 355.69 1397.18 348.66
  C 1428.38 342.65 1463.34 355.04 1466.95 391.23
  Q 1467.00 391.74 1466.49 391.74
  L 1445.23 391.74
  Q 1444.73 391.74 1444.62 391.26
  C 1439.90 371.02 1422.94 362.99 1403.25 367.10
  C 1385.65 370.76 1376.73 384.06 1373.78 401.00
  C 1369.24 427.09 1376.14 464.34 1410.50 464.28
  Z"
/>
<path fill="#000000" d="
  M 1501.82 421.76
  C 1500.75 449.29 1520.48 466.60 1547.27 463.77
  Q 1570.18 461.36 1575.78 439.40
  Q 1575.92 438.86 1576.49 438.86
  L 1596.46 438.86
  Q 1596.91 438.86 1596.83 439.31
  C 1591.98 465.85 1571.75 481.81 1545.25 482.96
  C 1519.00 484.10 1496.39 473.30 1486.02 448.23
  C 1479.03 431.32 1477.20 411.23 1481.97 393.50
  C 1489.03 367.26 1509.44 349.12 1537.00 347.49
  C 1580.74 344.89 1599.04 382.55 1598.83 420.53
  Q 1598.82 421.31 1598.04 421.31
  L 1502.28 421.31
  Q 1501.84 421.31 1501.82 421.76
  Z
  M 1502.19 403.04
  L 1576.23 402.92
  A 0.06 0.06 0.0 0 0 1576.29 402.86
  L 1576.29 402.86
  A 36.83 36.70 -0.1 0 0 1539.40 366.22
  L 1538.90 366.22
  A 36.83 36.70 -0.1 0 0 1502.13 402.98
  L 1502.13 402.98
  A 0.06 0.06 0.0 0 0 1502.19 403.04
  Z"
/>
<path fill="#000000" d="
  M 570.26 434.17
  C 563.92 462.91 543.00 482.84 512.35 483.01
  C 507.61 483.03 502.73 483.15 498.25 482.52
  C 469.42 478.47 451.51 456.98 447.42 429.12
  C 444.41 408.67 448.09 384.96 461.59 368.55
  C 478.15 348.41 506.54 343.29 531.02 350.95
  C 566.26 361.97 577.40 401.78 570.26 434.17
  Z
  M 508.75 366.68
  C 470.39 366.84 461.52 414.57 474.79 442.23
  C 484.30 462.06 507.14 470.31 526.96 460.23
  C 548.92 449.05 552.93 419.87 547.63 398.51
  C 542.96 379.64 528.98 366.59 508.75 366.68
  Z"
/>
<path fill="#000000" d="
  M 125.87 383.32
  Q 130.73 403.42 148.32 413.55
  Q 151.10 415.15 153.73 415.02
  C 159.29 414.74 164.87 411.23 166.60 405.79
  Q 167.23 403.79 167.23 398.66
  Q 167.23 377.23 167.24 355.80
  Q 167.24 355.37 167.67 355.37
  L 179.05 355.24
  A 0.23 0.22 88.8 0 1 179.28 355.47
  Q 179.32 378.73 179.56 402.00
  C 179.65 411.14 189.95 418.27 198.26 413.60
  C 209.90 407.06 218.07 396.73 220.74 383.55
  A 0.43 0.42 11.9 0 0 220.41 383.06
  Q 214.04 381.73 207.53 382.03
  A 0.30 0.29 -80.6 0 1 207.24 381.62
  C 213.03 367.19 224.22 361.83 236.45 354.00
  A 0.43 0.43 0.0 0 1 237.08 354.20
  Q 239.71 361.02 242.46 367.99
  C 244.17 372.33 242.11 376.20 242.56 380.66
  Q 243.17 386.68 241.78 392.55
  A 0.28 0.27 20.5 0 1 241.38 392.73
  L 229.66 386.58
  A 0.82 0.82 0.0 0 0 228.47 387.16
  C 226.98 395.44 224.33 404.27 219.72 411.46
  Q 217.94 414.25 214.69 417.00
  C 201.12 428.53 184.88 436.00 172.21 448.71
  A 0.37 0.36 -45.6 0 1 171.69 448.72
  C 159.85 437.20 142.42 427.87 128.83 416.43
  C 121.37 410.16 116.92 396.33 115.19 387.05
  A 0.97 0.97 0.0 0 0 113.78 386.37
  L 101.69 392.84
  A 0.13 0.12 -20.3 0 1 101.50 392.76
  Q 99.53 383.24 101.77 374.10
  C 103.19 368.28 107.02 360.54 109.47 353.82
  A 0.35 0.34 25.4 0 1 109.97 353.65
  C 121.97 360.93 133.72 366.92 139.19 381.34
  Q 139.35 381.76 138.90 381.74
  Q 132.54 381.43 126.28 382.67
  Q 125.74 382.78 125.87 383.32
  Z"
/>
<path fill="#000000" d="
  M 334.39 372.59
  Q 325.95 390.08 306.17 386.79
  Q 305.64 386.70 305.81 386.18
  C 310.15 373.22 321.61 366.83 334.94 369.50
  Q 335.43 369.60 335.30 370.08
  Q 334.97 371.38 334.39 372.59
  Z"
/>
<path fill="#000000" d="
  M 30.05 371.17
  Q 39.55 376.16 42.76 386.44
  A 0.35 0.34 -13.0 0 1 42.48 386.88
  Q 20.90 390.00 13.28 370.24
  Q 13.09 369.76 13.60 369.65
  Q 23.15 367.55 30.05 371.17
  Z"
/>
<path fill="#000000" d="
  M 54.56 405.03
  C 41.37 410.04 29.44 404.36 23.00 392.41
  A 0.30 0.30 0.0 0 1 23.17 391.99
  C 36.64 387.62 47.98 392.05 54.81 404.35
  Q 55.08 404.84 54.56 405.03
  Z"
/>
<path fill="#000000" d="
  M 293.43 404.41
  C 299.50 391.87 311.67 387.94 324.66 391.84
  Q 325.61 392.13 325.08 392.96
  C 317.57 404.87 307.71 409.82 293.72 405.10
  Q 293.18 404.92 293.43 404.41
  Z"
/>
<path fill="#000000" d="
  M 36.98 412.62
  C 49.66 406.67 61.35 409.41 69.62 420.72
  Q 69.89 421.09 69.49 421.30
  C 57.11 427.73 44.87 424.54 36.74 413.55
  Q 36.29 412.94 36.98 412.62
  Z"
/>
<path fill="#000000" d="
  M 279.09 421.74
  Q 278.56 421.50 278.90 421.03
  Q 291.65 403.78 311.71 412.91
  Q 312.41 413.23 311.94 413.85
  Q 299.09 430.99 279.09 421.74
  Z"
/>
<path fill="#000000" d="
  M 52.38 432.00
  C 63.96 423.73 76.50 425.01 86.46 434.92
  A 0.33 0.33 0.0 0 1 86.41 435.43
  Q 68.05 447.69 52.34 432.41
  A 0.27 0.27 0.0 0 1 52.38 432.00
  Z"
/>
<path fill="#000000" d="
  M 295.76 432.56
  C 285.72 442.57 273.39 443.50 261.83 435.45
  Q 261.54 435.24 261.79 434.99
  Q 277.13 419.69 295.68 431.77
  A 0.52 0.51 -51.2 0 1 295.76 432.56
  Z"
/>
<path fill="#000000" d="
  M 105.13 446.93
  C 95.66 456.63 82.31 457.72 71.52 449.41
  Q 70.97 448.99 71.48 448.52
  Q 87.21 433.95 105.05 446.18
  Q 105.54 446.51 105.13 446.93
  Z"
/>
<path fill="#000000" d="
  M 243.60 446.24
  C 254.98 437.71 267.01 439.20 277.21 448.48
  Q 277.74 448.96 277.15 449.37
  Q 259.29 461.75 243.55 447.14
  Q 243.03 446.66 243.60 446.24
  Z"
/>
<path fill="#000000" d="
  M 122.83 453.61
  Q 124.25 454.16 125.44 454.91
  A 0.36 0.35 36.0 0 1 125.53 455.44
  C 116.63 466.43 105.04 469.28 92.22 462.76
  A 0.32 0.32 0.0 0 1 92.11 462.29
  Q 103.84 446.33 122.83 453.61
  Z"
/>
<path fill="#000000" d="
  M 256.08 462.95
  C 242.84 468.86 232.44 466.77 223.11 455.63
  A 0.57 0.57 0.0 0 1 223.30 454.75
  Q 243.00 445.22 256.33 461.93
  Q 256.86 462.60 256.08 462.95
  Z"
/>
<path fill="#000000" d="
  M 202.05 460.35
  C 215.23 455.37 227.23 460.23 233.99 472.27
  A 0.38 0.37 66.5 0 1 233.78 472.81
  Q 212.66 479.40 201.86 460.90
  A 0.38 0.38 0.0 0 1 202.05 460.35
  Z"
/>
<path fill="#000000" d="
  M 114.69 472.29
  C 121.87 460.27 133.22 455.88 146.61 460.64
  A 0.25 0.24 24.3 0 1 146.75 460.99
  Q 136.19 479.57 115.06 473.25
  A 0.65 0.65 0.0 0 1 114.69 472.29
  Z"
/>
<path fill="#000000" d="
  M 168.60 464.08
  C 162.99 476.54 152.88 483.29 138.91 480.00
  Q 138.38 479.88 138.58 479.37
  Q 146.34 459.58 167.95 462.90
  Q 169.05 463.07 168.60 464.08
  Z"
/>
<path fill="#000000" d="
  M 179.99 463.15
  C 193.42 459.99 205.59 466.24 209.98 479.45
  Q 210.14 479.91 209.66 480.02
  C 195.63 483.24 185.03 476.37 179.79 463.53
  A 0.29 0.28 -18.3 0 1 179.99 463.15
  Z"
/>
<path fill="#000000" d="
  M 174.96 463.64
  C 184.15 474.04 184.20 487.08 175.04 497.63
  Q 174.67 498.06 174.30 497.64
  C 165.10 487.23 165.06 474.10 174.22 463.64
  Q 174.59 463.22 174.96 463.64
  Z"
/>
</svg>
