<?xml version="1.0" encoding="UTF-8" standalone="no"?>
<!DOCTYPE svg PUBLIC "-//W3C//DTD SVG 1.1//EN" "http://www.w3.org/Graphics/SVG/1.1/DTD/svg11.dtd">
<svg width="100%" height="100%" viewBox="0 0 2280 923" version="1.1" xmlns="http://www.w3.org/2000/svg" xmlns:xlink="http://www.w3.org/1999/xlink" xml:space="preserve" xmlns:serif="http://www.serif.com/" style="fill-rule:evenodd;clip-rule:evenodd;stroke-linejoin:round;stroke-miterlimit:2;">
    <g transform="matrix(1,0,0,1,-110.295,-788.704)">
        <rect x="110.295" y="788.704" width="2279.41" height="922.591" style="fill:rgb(24,121,191);"/>
        <path d="M333.193,877.703L580.955,877.703L733.142,1392.68L735.243,1392.68L839.494,877.703L1026.76,877.703L869.402,1620.34L622.471,1620.34L467.21,1106.48L465.109,1106.48L361.843,1620.34L174.573,1620.34L333.193,877.703ZM1100.12,877.703L1298.97,877.703L1240.57,1161.82L1475.61,1161.82L1534.18,877.703L1733.03,877.703L1578.77,1620.34L1379.92,1620.34L1445.86,1302.27L1210.66,1302.27L1144.71,1620.34L945.833,1620.34L1100.12,877.703ZM2256.41,1045.83C2218.12,1027.8 2165.98,1011.88 2092.62,1011.88C2013.94,1011.88 1950.08,1023.48 1950.08,1083.14C1950.08,1188.37 2238.39,1149.1 2238.39,1374.66C2238.39,1579.95 2047.89,1633.18 1875.58,1633.18C1799.01,1633.18 1710.67,1615.02 1645.85,1594.75L1692.66,1443.7C1731.92,1469.29 1810.74,1486.31 1875.58,1486.31C1937.37,1486.31 2034.06,1474.58 2034.06,1398C2034.06,1278.79 1745.76,1323.5 1745.76,1114.03C1745.76,922.436 1913.88,864.993 2076.69,864.993C2168.22,864.993 2254.31,874.629 2304.35,897.962L2256.41,1045.83Z" style="fill:white;"/>
    </g>
</svg>
