<svg clip-rule="evenodd" fill-rule="evenodd" stroke-linejoin="round" stroke-miterlimit="2" viewBox="0 0 571 564" xmlns="http://www.w3.org/2000/svg" xmlns:xlink="http://www.w3.org/1999/xlink"><linearGradient id="a" gradientTransform="matrix(76.9386 -76.9488 76.9488 76.9386 3.9418 129.489)" gradientUnits="userSpaceOnUse" x1="0" x2="1" y1="0" y2="0"><stop offset="0" stop-color="#c02026"/><stop offset="1" stop-color="#871719"/></linearGradient><linearGradient id="b" gradientUnits="userSpaceOnUse" x1="1.1266" x2="133.0126" y1="66.0756" y2="66.0756"><stop offset="0" stop-color="#e6b031"/><stop offset="1" stop-color="#f8ed34"/></linearGradient><g fill-rule="nonzero" transform="scale(4.16667)"><path d="m16 123.81c.128 3.887-2.964 7.19-6.85 7.32h-.46c-4.152-.016-7.56-3.438-7.56-7.59 0-.01 0-.02 0-.03-.003-.078-.004-.156-.004-.233 0-3.808 3.068-6.971 6.874-7.087h.4c4.086.228 7.383 3.533 7.6 7.62zm-8-26.76c-3.81-.37-6.9 2.76-6.9 6.94-.059 4.112 3.095 7.621 7.19 8 3.536.239 6.646-2.465 6.9-6 .02-.296.02-.594 0-.89-.17-4.029-3.202-7.402-7.19-8zm19.46 19.95c-3.532-.239-6.636 2.468-6.88 6-.02.296-.02.594 0 .89.348 4.091 3.835 7.261 7.94 7.22 4.18 0 7.26-3.1 6.88-6.92-.582-3.973-3.929-7.004-7.94-7.19zm-1.36-18.12c-3.81-.38-6.72 2.54-6.51 6.52.294 4.04 3.532 7.29 7.57 7.6 3.211.355 6.146-1.99 6.51-5.2.05-.439.05-.881 0-1.32-.514-3.941-3.631-7.07-7.57-7.6zm-1.36-18.07c-3.6-.6-6.35 2.14-6.14 6.13.241 4.001 3.237 7.335 7.19 8 2.89.479 5.664-1.501 6.15-4.39.09-.577.09-1.163 0-1.74-.461-3.914-3.356-7.131-7.2-8zm-4.07-54.3c-3-1.25-5.22 1-5 5s2.93 8.1 6.07 9.18 5.38-1.14 5-5-3.08-8-6.06-9.21zm23.55 74.2c-2.88-.498-5.66 1.46-6.16 4.34-.095.583-.095 1.177 0 1.76.643 3.968 3.987 6.981 8 7.21 4 .22 6.71-2.53 6.13-6.12-.861-3.835-4.067-6.727-7.97-7.19zm-2.39-17.08c-3.6-.6-6.18 2-5.75 5.73.556 3.932 3.653 7.053 7.58 7.64 3.76.43 6.34-2.13 5.75-5.73-.783-3.819-3.767-6.827-7.58-7.64zm-2.34-17.08c-3.39-.82-5.8 1.57-5.38 5.34.533 3.882 3.395 7.063 7.2 8 3.55.65 6-1.74 5.38-5.34-.746-3.782-3.517-6.861-7.2-8zm-4.67-34.15c-3-1.25-5.05.79-4.63 4.56s3.31 7.7 6.45 8.78 5.21-1 4.63-4.56-3.47-7.53-6.45-8.78zm24.1 54.08c-3.6-.6-6 1.79-5.37 5.33.927 3.81 4.113 6.678 8 7.2 3.76.43 6.16-2 5.37-5.33-1.135-3.685-4.216-6.458-8-7.2zm-3.32-16.06c-3.39-.82-5.63 1.4-5 4.94.856 3.795 3.827 6.774 7.62 7.64 3.55.65 5.79-1.56 5-4.94-1.066-3.678-3.945-6.565-7.62-7.64zm-3.32-16.05c-3.19-1-5.25 1-4.62 4.55.814 3.752 3.563 6.802 7.21 8 3.35.86 5.42-1.17 4.62-4.55-1.025-3.642-3.694-6.603-7.21-8zm-3.28-16c-3-1.25-4.88.61-4.25 4.16s3.7 7.3 6.84 8.38 5-.78 4.25-4.16c-.988-3.645-3.475-6.706-6.84-8.42zm22.74 36c-3.39-.88-5.49 1.15-4.61 4.44 1.204 3.64 4.253 6.38 8 7.19 3.55.65 5.62-1.38 4.61-4.54-1.408-3.498-4.368-6.147-8-7.16zm-4.3-15c-3.19-1-5.08.82-4.24 4.15 1.14 3.611 3.978 6.445 7.59 7.58 3.32.9 5.21-1 4.21-4.1-1.341-3.492-4.106-6.253-7.6-7.59zm-4.3-15c-3-1.25-4.71.43-3.86 3.76 1.092 3.608 3.742 6.545 7.22 8 3.14 1.08 4.87-.6 3.86-3.76-1.271-3.531-3.859-6.438-7.22-8.11zm35.25 61.93c-3.81-.38-6 1.82-5 4.92s5.13 5.79 9.1 6 6.2-2 5-4.92-5.27-5.72-9.1-6.11zm-5.28-14c-3.6-.6-5.66 1.43-4.6 4.53s5 6 8.73 6.4 5.82-1.6 4.6-4.53-5.13-5.89-8.73-6.51zm-5.28-14c-3.39-.82-5.29 1-4.23 4.14s4.8 6.15 8.35 6.79 5.45-1.23 4.23-4.14-5-6-8.35-6.79zm-5.28-14c-3.19-1-4.91.65-3.85 3.75 1.463 3.463 4.399 6.098 8 7.18 3.35.86 5.07-.81 3.85-3.75-1.625-3.375-4.492-5.996-8-7.31zm-5.33-14.11c-3-1.25-4.54.26-3.48 3.36 1.405 3.448 4.148 6.184 7.6 7.58 3.14 1.08 4.7-.42 3.48-3.36-1.598-3.316-4.28-5.991-7.6-7.58z" fill="url(#a)"/><path d="m7.65 77.93c-3.6-.6-6.52 2.32-6.52 6.53s3 8 6.81 8.4 6.68-2.49 6.52-6.53-3.24-7.8-6.81-8.4zm-.37-19.12c-3.39-.81-6.14 1.93-6.14 6.19s2.86 8.1 6.44 8.75 6.31-2.1 6.14-6.14-3-8-6.44-8.8zm-.37-19.14c-3.19-1-5.77 1.54-5.77 5.75s2.71 8.31 6.08 9.17 5.93-1.71 5.77-5.75-2.9-8.15-6.09-9.19zm-.37-19.11c-3-1.25-5.4 1.15-5.4 5.36s2.55 8.5 5.69 9.58 5.56-1.32 5.4-5.36-2.72-8.33-5.7-9.59zm-.38-19.09c-2.77-1.46-5 .76-5 5s2.38 8.67 5.31 10 5.18-.93 5-5-2.54-8.53-5.31-10zm17.23 61.2c-3.39-.82-6 1.75-5.76 5.74s3.27 7.75 6.82 8.4 6.13-1.92 5.76-5.74-3.43-7.59-6.82-8.4zm-1.39-18.11c-3.19-1-5.6 1.36-5.39 5.35s3.1 7.92 6.45 8.79 5.76-1.53 5.39-5.35-3.23-7.76-6.45-8.79zm-2.68-36.14c-2.77-1.42-4.85.58-4.64 4.58s2.76 8.27 5.7 9.57 5-.75 4.64-4.57-2.92-8.11-5.7-9.58zm27.19 109.39c-4-.17-6.92 2.75-6.5 6.52s4.15 6.82 8.33 6.82 7.09-2.92 6.5-6.52-4.31-6.63-8.33-6.82zm-14-102.42c-2.79-1.48-4.7.42-4.29 4.16s3.15 7.87 6.08 9.17 4.84-.57 4.26-4.17-3.34-7.74-6.07-9.17zm33.06 103.21c-4-.17-6.75 2.57-6.12 6.12s4.53 6.42 8.71 6.42 6.91-2.74 6.12-6.12-4.7-6.25-8.71-6.42zm-3.35-16.06c-3.81-.38-6.38 2.18-5.74 5.72s4.37 6.6 8.34 6.81 6.54-2.35 5.74-5.72-4.51-6.42-8.34-6.81zm-16.56-80.21c-2.77-1.46-4.51.22-3.87 3.77s3.53 7.47 6.46 8.77 4.67-.39 3.87-3.77-3.69-7.29-6.46-8.77zm39 97.07c-4-.17-6.58 2.39-5.73 5.71s4.92 6 9.09 6 6.74-2.56 5.73-5.71-5.12-5.83-9.13-6zm-4.3-15c-3.81-.39-6.21 2-5.36 5.32s4.75 6.2 8.72 6.41 6.37-2.17 5.36-5.32-4.91-6-8.72-6.41zm-21.54-75.12c-2.77-1.46-4.34 0-3.49 3.37 1.084 3.593 3.568 6.604 6.89 8.35 2.94 1.3 4.5-.21 3.49-3.37-1.284-3.483-3.714-6.428-6.89-8.35zm44.85 90.92c-4-.17-6.41 2.21-5.35 5.31s5.3 5.62 9.48 5.62 6.57-2.38 5.35-5.31-5.46-5.45-9.48-5.62zm-31.67-84c-2.77-1.46-4.16-.13-3.11 3 1.361 3.454 3.931 6.298 7.23 8 2.94 1.3 4.33 0 3.11-3-1.557-3.328-4.076-6.115-7.23-8zm50.73 84.8c-4-.17-6.24 2-5 4.91s5.68 5.22 9.86 5.22 6.4-2.2 5-4.91-5.85-5-9.86-5.19zm-6.27-13c-3.81-.39-5.86 1.64-4.59 4.52s5.52 5.39 9.49 5.61 6-1.81 4.59-4.52-5.68-5.26-9.49-5.61zm-6.27-13c-3.6-.6-5.49 1.25-4.22 4.13s5.35 5.57 9.11 6 5.65-1.42 4.22-4.13-5.51-5.43-9.11-6zm-6.27-13c-3.39-.82-5.11.86-3.84 3.74s5.18 5.75 8.74 6.39 5.28-1 3.84-3.74-5.34-5.48-8.73-6.3zm-6.27-13c-3.19-1-4.74.47-3.47 3.35s5 5.92 8.36 6.78 4.9-.64 3.47-3.35c-1.946-3.134-4.892-5.523-8.36-6.78zm-6.26-13c-3-1.25-4.37.08-3.1 3 1.711 3.281 4.554 5.833 8 7.18 3.14 1.08 4.53-.24 3.1-3-1.893-3.136-4.679-5.636-8-7.18zm-6.23-12.82c-2.77-1.46-4-.31-2.72 2.57 1.661 3.27 4.33 5.921 7.61 7.56 2.94 1.3 4.15.15 2.72-2.57-1.85-3.128-4.47-5.731-7.61-7.56z" fill="url(#b)"/></g></svg>