<svg clip-rule="evenodd" fill-rule="evenodd" stroke-linejoin="round" stroke-miterlimit="2" viewBox="0 0 925 632" xmlns="http://www.w3.org/2000/svg" xmlns:xlink="http://www.w3.org/1999/xlink"><linearGradient id="a" gradientTransform="matrix(39.6396 -1.65552 1.65552 39.6396 514.441 540.588)" gradientUnits="userSpaceOnUse" x1="0" x2="1" y1="0" y2="0"><stop offset="0" stop-color="#7a7bd2"/><stop offset="1" stop-color="#ad9add"/></linearGradient><linearGradient id="b" gradientTransform="matrix(65.6206 -7.24222 7.24222 65.6206 530.044 455.582)" gradientUnits="userSpaceOnUse" x1="0" x2="1" y1="0" y2="0"><stop offset="0" stop-color="#b7a4d9"/><stop offset="1" stop-color="#ddb9e9"/></linearGradient><linearGradient id="c" gradientTransform="matrix(39.6552 -3.25665 3.25665 39.6552 512.042 503.064)" gradientUnits="userSpaceOnUse" x1="0" x2="1" y1="0" y2="0"><stop offset="0" stop-color="#7272ca"/><stop offset="1" stop-color="#beaae3"/></linearGradient><linearGradient id="d" gradientTransform="matrix(70.0277 -39.2259 39.2259 70.0277 543.828 510.25)" gradientUnits="userSpaceOnUse" x1="0" x2="1" y1="0" y2="0"><stop offset="0" stop-color="#947fd4"/><stop offset="1" stop-color="#e3b4e6"/></linearGradient><linearGradient id="e" gradientTransform="matrix(9.70401 25.2294 -25.2294 9.70401 456.522 479.107)" gradientUnits="userSpaceOnUse" x1="0" x2="1" y1="0" y2="0"><stop offset="0" stop-color="#6465ce"/><stop offset="1" stop-color="#8689e2"/></linearGradient><linearGradient id="f" gradientTransform="matrix(50.4919 14.373 -14.373 50.4919 508.2 576.875)" gradientUnits="userSpaceOnUse" x1="0" x2="1" y1="0" y2="0"><stop offset="0" stop-color="#7b74d1"/><stop offset="1" stop-color="#9f8ce5"/></linearGradient><g transform="matrix(.93478 0 0 .87494 -280.448 -424.851)"><path d="m300.015 485.577h989.472v721.776h-989.472z" fill="none"/><g fill-rule="nonzero" transform="matrix(1.67256 0 0 1.78696 -67.6879 -132.175)"><path d="m601.155 612.221c1.448-.47 2.736-1.313 4.061-2.058.895 1.198 1.394 1.462 1.312 2.991-.632.968-1.33 1.93-1.902 2.934z" fill="#eff0ed"/><path d="m626.77 572.573c.377-.36.594-.599.996-.891 2.042-1.483 6.23-1.078 8.596-.753 1.764.73 3.424 1.163 5.298 1.515-4.948.162-9.937.089-14.89.129z" fill="#4fd9ca"/><path d="m307.167 506.927c1.255.061 2.027.279 3.168.802.577.713 1.059 1.055 1.186 2.001.283 2.109-.659 3.477-1.845 5.084-1.205-.148-2.386-.35-3.344-1.177-.976-.843-1.435-1.81-1.392-3.103.051-1.563 1.2-2.593 2.227-3.607z" fill="#9bdbe1"/><path d="m493.796 663.834c-.484-1.187-1.634-1.655-2.103-2.86-.562-1.441-.419-2.757.122-4.148.655-.552.896-.939 1.786-1.066 1.327-.189 2.52.164 3.547 1.042.844.721 1.406 1.824 1.27 2.957-.214 1.803-1.475 2.995-2.884 3.94z" fill="#a2efd7"/><path d="m631.103 562.88c.33 1.933.246 3.307 1.667 4.757 4.275 1.389 6.818-.485 10.458 3.142-2.267.182-4.59.117-6.866.15-2.366-.325-6.554-.73-8.596.753-.402.292-.619.531-.996.891l-1.615.394c2.692-3.13 4.322-6.335 5.948-10.087z" fill="#eff0ed"/><path d="m705.246 520.88c-9.443.17-18.908-.26-28.355-.258-7.382.003-15.381.696-22.686-.235 2.225-.971 58.389-.945 62.425-.128-3.769.92-7.587.147-11.384.621z" fill="#dfdddf"/><path d="m473.664 553.333c5.44 1.744 11.69 1.885 17.361 2.399l-6.913 1.455c-3.998 1.602-9.481 2.094-13.763 3.005z" fill="#6964cd"/><path d="m565.518 719.997c.384 5.284 2.743 4.828 3.359 8.773-.38 1.262-.782 2.289-1.914 3.081-.982.688-2.318.79-3.433.393-1.241-.441-2.27-1.431-2.716-2.676-.399-1.116-.314-1.972.19-3.003.35-.27.697-.544 1.041-.822 2.305-1.867 2.205-2.854 2.52-5.724z" fill="#eaaae8"/><path d="m397.498 694.995c1.159-1.328 1.993-2.246 3.61-2.983 1.293.049 2.136.057 3.104 1.026.915.916 1.716 2.069 2.505 3.098 3.654-.026 7.403.099 11.032-.32l.159 1.214c-4.174.115-8.349.022-12.523-.039-.761 1.283-1.02 2.145-2.611 2.586-1.187.33-2.315.073-3.28-.658-1.427-1.081-1.65-2.248-1.996-3.924z" fill="#9bdbe1"/><path d="m442.641 357.357c1.182.182 2.575.471 3.581 1.142 1.113.743 1.857 1.537 2.037 2.917.273 2.084-.912 3.566-2.101 5.104-1.775.028-3.507.034-4.96-1.18-.944-.789-1.45-1.899-1.386-3.131.111-2.161 1.391-3.427 2.829-4.852z" fill="#39d6e8"/><path d="m471.829 715.539 1.076.364c-.011.31-.036.62-.033.93.039 3.754 5.599 6.964 2.45 10.905-1.95.699-3.886.456-5.855-.123-.91-1.068-1.9-2.263-1.792-3.767.149-2.078 2.14-3.582 3.564-4.857.027-.011.063-.012.082-.034.884-.991.531-2.143.508-3.418z" fill="#3ae8c8"/><path d="m716.63 520.259c1.419-1.811 3.193-2.798 5.488-3.167.912-.147 1.577.117 2.409.43.997.987 1.524 1.846 1.595 3.27.066 1.338-.371 2.917-1.252 3.948-.731.856-1.577 1.128-2.676 1.083-1.201-.049-2.885-.998-3.641-1.852-.632-.713-1.105-2.05-1.462-2.937-3.941-.042-7.909.017-11.845-.154 3.797-.474 7.615.299 11.384-.621z" fill="#f4f1f5"/><path d="m692.289 571.03c2.151-1.457 4.224-2.686 6.935-2.295.933.134 1.848.458 2.328 1.325.681 1.228.572 2.675.144 3.969-.49 1.485-1.617 3.172-3.159 3.695-1.116.378-2.033.141-3.011-.462-1.539-.948-2.492-2.872-3.049-4.508z" fill="#4fd9ca"/><path d="m325.944 575.666c-.626 1.398-1.409 3.263-2.843 4.002-1.05.541-2.638.473-3.73.042-.138-.056-.273-.12-.404-.191s-.258-.15-.38-.235c-.123-.086-.24-.178-.351-.277-.112-.099-.218-.203-.318-.314s-.193-.228-.28-.349-.167-.247-.24-.377c-.073-.131-.138-.265-.195-.402-.058-.138-.108-.279-.149-.422-.436-1.48-.127-3.364.659-4.679.83-1.387 1.856-1.727 3.354-2.065 2.608.629 3.591 2.002 5.081 4.145z" fill="#39d6e8"/><path d="m547.754 720.653.087 3.108.662.338c1.537.8 2.744 1.353 3.776 2.767.33 1.368.265 2.252-.52 3.464-.853 1.315-2.064 2.527-3.7 2.721-1.482.175-2.812-.544-3.807-1.582-.932-.972-1.704-2.577-1.463-3.941.203-1.151 1.033-2.235 2.117-2.703.606-.262 1.04-.326 1.663-.457.468-1.237.846-2.436 1.185-3.715z" fill="#eaaae8"/><path d="m326.148 574.544c19.096-.188 38.567-.607 57.634.213-.277.296-.675.609-.804.996-6.592.658-13.556.262-20.185.196-12.282-.19-24.565-.284-36.849-.283z" fill="#dfdddf"/><path d="m493.796 663.834 1.738-.135c.072 15.431.922 31.376-.038 46.756l-1.243.067c-.897-4.705-.364-10.26-.342-15.054.05-10.524.373-21.124-.115-31.634z" fill="#a2efd7"/><path d="m495.496 710.455c.156.879.011.396.545 1.413.694.237 1.654.469 2.261.868.918.604 1.012 1.162 1.129 2.2.171 1.529-.254 3.204-1.359 4.316-1.047 1.052-2.623 1.476-4.076 1.369-1.527-.113-3.317-.884-4.228-2.164-1.132-1.59-1.008-2.675-.669-4.463.835-1.298 2.254-1.58 3.634-2.069 1-.354.942-.56 1.52-1.403z" fill="#3ae8c8"/><path d="m631.843 411.526c6.336-.633 41.778-1.495 46.138-.074l-.012.42c-5.122 1.622-37.189.594-45.095.569-5.441 4.023-22.813 23.024-27.363 29.082l-1.418-.272c5.366-6.237 11.093-12.165 16.726-18.16 3.61-3.842 7.152-7.991 11.024-11.565z" fill="#bab9b9"/><path d="m546.569 724.368c-.46-6.081-.13-12.374-.112-18.484l.172-37.287c-.009-2.484-.522-3.307-2.297-5.015l-.593-.563c-.33-1.336-.522-2.423.036-3.774.455-1.103 1.493-1.925 2.636-2.228 1.374-.364 2.294-.088 3.502.542.509.71.991 1.102 1.051 2.008.145 2.161-1.074 3.304-2.423 4.815l-.463.51c-1.125 18.447-.358 37.271-.324 55.761-.339 1.279-.717 2.478-1.185 3.715z" fill="#dfdddf"/><path d="m564.565 720.019.014-28.402c.015-5.873-.484-12.556.711-18.323.115 8.41.165 16.821.149 25.232 3.592.01 23.539.867 25.938-.319.314-.155 1.085-.94 1.373-1.22 1.406-1.368 2.262-2.587 4.464-2.494 1.082.045 1.719.416 2.616.95.821 1.085 1.256 1.864 1.147 3.279-.129 1.677-1.084 3.376-2.552 4.237-1.136.666-2.341.745-3.554.276-1.604-.619-2.048-2.814-3.303-3.664-1.658-1.121-22.849-.144-26.11-.108-.005 6.814-.264 13.734.06 20.534z" fill="#bfa4e2"/><path d="m636.362 570.929c2.276-.033 4.599.032 6.866-.15 15.882.646 33.638-.951 49.061.251l.188 1.724c-16.073-.231-32.147-.324-48.222-.279 8.046 7.6 15.004 16.485 23.188 23.866l-.617 1.541c-4.694-4.491-20.635-24.501-25.166-25.438-1.874-.352-3.534-.785-5.298-1.515z" fill="#5cdea1"/><path d="m339.23 538.647c1.47-1.597 3.084-3.88 5.423-4.015 1.415-.083 2.505.421 3.478 1.41.777.789 1.371 1.917 1.93 2.868 3.809 1.027 9.088.441 13.096.428 9.89-.034 20.347-.53 30.172.489l-.419.699-42.733-.165c-.775 1.585-1.81 3.55-3.54 4.278-1.187.5-2.283.601-3.484.055-1.848-.841-2.876-2.405-3.71-4.163z" fill="#fcb5be"/><path d="m667.443 596.341 3.775 3.536c9.781-.596 19.638-.389 29.435-.414 12.435-.093 24.869-.1 37.304-.02.688-1.063.761-2.33.956-3.556.065 1.614.247 3.323.019 4.922-6.425 1.009-13.671.447-20.176.447-16.013.001-32.256-.626-48.242.291-1.396-1.155-2.551-2.251-3.688-3.665z" fill="#a2efd7"/><path d="m588.336 356.735.708.609c1.437 4.334.487 13.76.437 18.653 6.447.011 15.358-1.049 21.377.885-1.96 1.52-17.705.831-21.36.83l.003 19.148c-.471.051-.862-.099-1.317-.212-1.221-3.586-.411-14.587-.487-19.022-4.972.021-16.247 1.077-20.394-.844l.313-.432c6.599-.541 13.313-.327 19.934-.329.141-6.147-.417-13.298.786-19.286z" fill="#ddb8d1"/><path d="m512.917 455.431c2.879 4.111 7.645 4.031 10.21 8.354l.52.87c.161.272.315.549.478.821.405.674.78 1.275 1.299 1.863-1.847 1.09-3.715 2.114-5.37 3.488-2.706 1.295-5.051 3.963-7.209 6.015z" fill="#8b7fdc"/><path d="m301.418 538.722c12.596-.068 25.218-.284 37.812-.075l.213 1.884-26.067-.1-40.244.124c-7.261.006-14.776-.364-22.001.247l.176-1.366c6.961-1.72 40.215-.703 50.111-.714z" fill="#ddb8d1"/><path d="m513.536 627.812c.652.697.815 1.316.897 2.261.849 9.8.006 20.469-.003 30.343-.016 17.833.307 35.641.139 53.479 1.624.204 3.36.698 4.198 2.237.384.705.607 1.604.393 2.382-.602 2.196-2.375 3.027-4.239 4.001-1.414-.306-3.205-.902-4.167-2.054-1.127-1.348-1.141-3.076-.836-4.704 1.025-1.243 1.915-1.339 3.414-1.865.81-4.403-.097-19.975-.11-25.732z" fill="#bfa4e2"/><path d="m471.621 697.371c.115-4.885-.276-29.583.769-32.679 1.544 2.526.537 45.469.515 51.211l-1.076-.364-.064-17.068-44.876-.022c-.501.605-1.02 1.186-1.664 1.648-1.069.767-2.522 1.144-3.815.738-1.797-.565-2.72-2.246-3.502-3.805l-.159-1.214c.88-1.715 1.753-3.222 3.697-3.841.941-.3 1.934-.069 2.772.433 2.041 1.225 2.486 2.965 3.031 5.135z" fill="#39d6e8"/><path d="m383.782 574.757c.251-.15.506-.295.755-.449 2.565-1.579 5.564-6.385 8.655-6.355-1.857 3.491-10.541 10.259-13.831 13.486-6.233 6.115-12.81 12.61-18.042 19.616-7.893.004-70.862.788-73.241-.702 7.271-1.414 16.074-.502 23.572-.537l48.59-.319c5.057-5.213 9.679-10.794 14.876-15.882 2.23-2.184 6.622-5.222 7.862-7.862.129-.387.527-.7.804-.996z" fill="#f5cda0"/><path d="m669.917 538.535c.159.033.317.068.476.099 2.115.408 3.002 1.241 4.502 2.693 3.116 3.017 82.778-.319 94.108 1.562-2.402.782-5.267.509-7.781.532-15.907.051-31.81.456-47.719.361-11.455-.069-23.185-.747-34.604-.302-1.414.054-2.405.098-3.635.885-.807 1.334-1.439 2.4-2.708 3.364-.976.234-1.769.384-2.757.17-1.231-.268-2.245-.91-2.838-2.062-.697-1.356-.758-3.672-.083-5.054.7-1.431 1.657-1.717 3.039-2.248z" fill="#bfa4e2"/><path d="m722.316 469.162c.115 2.373.087 4.844.48 7.185-2.184-1.439-59.826-1.062-67.306-1.023-3.719 4.206-13.398 16.752-18.208 17.912 3.757-5.342 13.029-14.387 17.769-19.748 15.099-.17 30.219-.015 45.319.021 6.978.016 14.066.423 21.025-.013.394-1.445.681-2.857.921-4.334z" fill="#a2efd7"/><path d="m339.084 408.755c19.217 1.562 38.847-.413 58.146.67 3.958 2.411 7.067 6.849 10.048 10.338 6.728 7.878 15.021 18.913 23.235 24.909l-.951 1.621c-11.482-10.693-21.797-23.225-31.861-35.257-7.994-.312-53.906-.524-58.606 1.287z" fill="#eaaae8"/><path d="m573.955 512.587c2.707-2.725 5.756-4.753 9.261-6.302 2.493-1.102 6.465-2.483 9.108-1.053 1.363.737 2.221 2.4 2.695 3.796.199 1.529.589 2.207-.496 3.496-1.877 2.231-6.277 3.349-8.877 4.747-3.778 1.412-7.44 3.778-11.224 5.375.282-3.463.356-6.659-.467-10.059z" fill="#bfa4e2"/><path d="m546.595 488.882c3.518-1.312 1.735-3.551 7.359-.861 4.941 2.365 9.222 8.705 10.917 13.82.501 1.512.775 3.11 1.056 4.674-8.417-.359-8.911 1.726-15.905 3.736.059-.072.109-.15.176-.214.483-.464 1.072-.903 1.491-1.437 1.047-1.335.454-3.781.273-5.399-3.037-3.525-4.402-9.827-5.367-14.319z" fill="#bfa4e2"/><path d="m784.529 530.593c1.958-.052 4.017.111 5.819.929.355.163.702.343 1.039.541.337.197.664.411.98.64.317.23.621.475.913.735.291.26.569.534.834.822.265.287.515.587.75.9.235.312.453.635.656.97.203.334.389.677.558 1.03s.319.713.452 1.08c1.146 3.106.951 6.787-.495 9.762-1.659 3.411-4.267 5.146-7.777 6.282-2.313-.024-4.401.011-6.51-1.054-3.032-1.531-5.435-4.313-6.388-7.585-.113-.383-.206-.771-.279-1.164s-.126-.789-.158-1.187c-.033-.399-.045-.798-.036-1.197.009-.4.038-.798.087-1.194.049-.397.119-.79.208-1.179.09-.39.2-.774.329-1.152s.278-.749.445-1.112.353-.716.556-1.06c1.789-2.964 4.742-4.89 8.017-5.807z" fill="#8b7fdc"/><path d="m789.222 537.95c1.116.837 1.911 1.141 2.108 2.635.186 1.401-.313 2.351-1.041 3.48l-.74.167-.313-.363c-.577-.425-1.275-.747-1.904-1.093.025-.196-.004-.406.076-.586.343-.78 1.019-1.253 1.246-2.134.182-.707.357-1.403.568-2.106z" fill="#f4f1f5"/><path d="m789.236 543.869c-.751.657-1.467 1.091-2.315 1.616 1.452.514 2.353-.329 3.794.667l-.175.748c-.818.622-1.32.957-2.359 1.144-1.924.346-4.332-.644-5.749-1.907-1.16-1.034-2.01-2.328-1.993-3.931.01-.93.507-1.777 1.184-2.401 2.254-2.082 4.75-1.918 7.599-1.855-.211.703-.386 1.399-.568 2.106-.227.881-.903 1.354-1.246 2.134-.08.18-.051.39-.076.586.629.346 1.327.668 1.904 1.093z" fill="#dfdddf"/><path d="m228.029 544.22c-.139-2.99-.448-5.927.7-8.771 1.226-3.036 3.504-5.581 6.604-6.751.343-.133.693-.247 1.048-.343.355-.097.715-.174 1.078-.233s.729-.098 1.096-.119.735-.022 1.102-.004c.368.018.734.055 1.097.111.364.056.724.131 1.08.224.356.094.706.206 1.05.336.345.13.681.278 1.01.443 4.412 2.209 5.903 5.964 7.413 10.323l-.176 1.366c-.285.594-.511 1.154-.669 1.795-.888 3.581-2.508 6.209-5.724 8.226-.295.187-.598.359-.91.514-.313.155-.633.294-.96.415s-.66.225-.998.311c-.338.087-.68.155-1.026.205-.345.05-.692.082-1.041.095s-.697.008-1.045-.016c-.348-.023-.694-.065-1.038-.125-.344-.061-.684-.139-1.019-.235-3.958-1.15-6.721-4.323-8.672-7.767z" fill="#fabd80"/><path d="m237.222 534.002c1.008.005 2.02.064 3.028.1 1.824.994 3.413 2.224 4.369 4.126.726 1.445.888 3.028.358 4.57-.627 1.825-1.684 2.535-3.334 3.388-1.008.083-2.205.175-3.202-.013-1.546-.29-2.756-1.705-3.539-2.998-.127-.208-.244-.422-.35-.642-.105-.22-.2-.445-.284-.674-.083-.229-.155-.462-.215-.698-.06-.237-.108-.476-.144-.717s-.06-.484-.072-.728c-.011-.243-.011-.487.001-.731.013-.243.038-.486.075-.727s.085-.48.146-.716c.461-1.841 1.667-2.607 3.163-3.54z" fill="#f5cda0"/><path d="m237.724 536.349c1.553.001 2.18.054 3.552.906.536.814.988 1.205 1.033 2.215.1 2.225-.817 3.273-2.275 4.771-1.083-.075-2.607-.308-3.494-1.031-1.011-.824-1.473-1.569-1.408-2.907.081-1.663 1.502-2.864 2.592-3.954z" fill="#fdfdfd"/><path d="m548.249 523.445c.121-.14.243-.278.361-.421 4.631-5.558 3.13-13.286 12.877-14.192 2.312-.215 4.467.555 6.209 2.069 2.198 1.91 3.475 4.936 3.579 7.821.147 4.083-1.589 7.173-4.389 9.998-.582.588-1.178 1.124-1.819 1.644-1.538 1.082-3.025 2.048-4.87 2.517-6.24 1.59-13.098-2.642-18.34-5.599 1.941-1.45 4.291-2.605 6.392-3.837z" fill="#bfa4e2"/><path d="m272.1 588.037c2.183-.226 4.234-.253 6.354.414 3.072.968 5.68 3.073 7.041 6.025 1.409 3.055 1.371 6.683.134 9.79-.159.407-.339.805-.538 1.194s-.416.768-.651 1.136c-.236.368-.49.724-.761 1.067s-.557.672-.86.987-.621.614-.954.898c-.333.283-.678.55-1.037.8-.359.249-.729.481-1.11.694s-.772.408-1.173.583c-2.854.157-5.706.018-8.56-.069-2.562-1.706-4.798-3.372-6.158-6.221-.179-.366-.339-.74-.48-1.122-.141-.383-.262-.771-.363-1.166-.102-.394-.183-.793-.244-1.196s-.102-.807-.122-1.214-.019-.814.002-1.221.063-.811.125-1.214c.063-.403.145-.801.248-1.195s.225-.782.367-1.164c1.629-4.275 4.781-6.101 8.74-7.806z" fill="#fcb5be"/><path d="m271.889 595.078c2.328-.169 4.533-.518 6.392 1.251 1.076 1.023 1.444 1.849 1.404 3.338-.058 2.201-1.654 3.388-3.196 4.667-.236.076-.465.176-.708.227-1.61.34-3.36.153-4.614-1.011-1.016-.944-1.405-2.271-1.458-3.616-.083-2.138.842-3.346 2.18-4.856z" fill="#fdfdfd"/><path d="m326.542 635.575c3.027-.344 6.03-.595 8.713 1.126 3.44 2.207 4.826 6.765 5.719 10.528-.559 2.268-1.136 4.532-1.731 6.791-2.458 2.72-4.988 4.46-8.152 6.23-2.323.037-4.595-.091-6.771-.993-2.992-1.24-5.344-3.558-6.539-6.576-1.244-3.139-1.046-6.768.347-9.825 1.746-3.834 4.582-5.838 8.414-7.281z" fill="#f5cda0"/><path d="m323.973 648.786c-.765-1.425-1.334-2.477-1.068-4.083 1.27-.651 2.553-1.276 3.85-1.874.209-.5.407-1.006.647-1.492.651-1.321.676-1.342 2.023-1.79.615.216.821.241 1.392.715 2.491 2.067 3.14 4.361 3.079 7.356-.702-1.574-1.482-3.298-3.199-4.005-1.147-.472-2.211-.203-3.275.323-1.87.924-2.733 3.034-3.449 4.85z" fill="#fbe0c2"/><path d="m323.973 648.786c.716-1.816 1.579-3.926 3.449-4.85 1.064-.526 2.128-.795 3.275-.323 1.717.707 2.497 2.431 3.199 4.005-.745 1.874-1.356 3.792-3.323 4.702-1.107.512-1.811.606-3.006.257-1.716-.502-2.809-2.338-3.594-3.791z" fill="#fdfdfd"/><path d="m738.913 595.887c1.474-3.994 3.059-7.336 7.136-9.292 3.083-1.479 6.752-1.456 9.898-.175 3.186 1.297 5.587 3.925 6.846 7.098 1.049 2.644.846 5.37.777 8.154-2.58 3.934-5.227 6.911-10.058 8.008-3.017.685-6.461.293-9.102-1.38-2.544-1.61-4.776-4.552-5.478-7.491.228-1.599.046-3.308-.019-4.922z" fill="#4fd9ca"/><path d="m745.444 595.934 1.946.311c.733 1.255.65 2.74.735 4.157 1.417-.084 1.351-.64 2.56-1.11 2.017-.784 4.642.93 6.801-.366l.868-1.455c.056 1.186.024 2.58-.591 3.641-.868 1.5-2.87 2.841-4.579 3.122-1.927.318-3.608-.257-5.122-1.439-2.39-1.866-2.285-4.073-2.618-6.861z" fill="#d8f3eb"/><path d="m745.444 595.934c.512-1.704 1.436-2.727 2.994-3.566 1.968-1.06 4.034-1.049 6.095-.254 1.132.437 2.534 1.198 3.061 2.334.406.875.562 2.074.76 3.023l-.868 1.455c-2.159 1.296-4.784-.418-6.801.366-1.209.47-1.143 1.026-2.56 1.11-.085-1.417-.002-2.902-.735-4.157z" fill="#e7efef"/><path d="m339.095 412.323c-1.225 3.541-3.42 6.912-6.768 8.773-3.009 1.673-6.958 1.923-10.225.884-2.525-.803-5.024-3.201-6.175-5.55-1.664-3.396-2.151-7.634-.715-11.188.155-.389.331-.768.526-1.138s.408-.729.64-1.077.482-.683.749-1.005c.267-.323.549-.63.848-.923s.612-.569.939-.83c.327-.26.667-.503 1.02-.728s.716-.432 1.09-.619.757-.355 1.148-.503c3.184-1.199 6.556-.861 9.555.699 3.853 2.004 6.126 5.593 7.357 9.637z" fill="#d169f2"/><path d="m325.878 405.908c1.268.165 2.731.449 3.649 1.406.946.988 1.162 2.111.996 3.426-.277 2.186-1.902 3.442-3.545 4.669-1.355-.528-2.758-1.113-3.665-2.319-.697-.927-.902-1.831-.777-2.974.217-2.003 1.872-3.079 3.342-4.208z" fill="#eff0ed"/><path d="m722.316 469.162c1.447-3.775 3.331-7.175 7.26-8.833 3.307-1.396 7.747-1.195 10.987.313 3.074 1.43 5.246 4.108 6.208 7.337.984 3.301.668 7.034-1.004 10.061-.184.335-.384.661-.6.977-.217.316-.448.62-.694.913-.247.293-.507.574-.781.841s-.56.52-.859.759-.61.462-.931.67-.652.4-.992.575-.688.334-1.044.475-.718.264-1.086.369c-3.563 1.031-7.939.796-11.133-1.193-2.431-1.514-3.726-3.517-4.851-6.079-.393-2.341-.365-4.812-.48-7.185z" fill="#3ae8c8"/><path d="m734.396 465.772c1.852-.194 3.612-.314 5.102 1.056 1.337 1.229 1.866 3.2 1.782 4.965-.083 1.746-.778 3.523-2.17 4.641-1.358 1.091-3.214 1.3-4.873.902-1.115-.267-2.225-.864-3.189-1.467-.953.289-.951.391-1.984.14-.26-.906-.517-1.795-.625-2.734-.217-1.899.206-4.758 1.663-6.162 1.348-1.3 2.539-1.144 4.294-1.341z" fill="#e7efef"/><path d="m732.531 474.999c-.829-1.271-1.554-2.18-1.534-3.767 1.014 1.376 1.053 1.644 2.751 2.171 1.223-.39 2.425-.8 3.628-1.248 1.114.663.857.636 1.175 1.8-.384.583-.386.896-1.122 1.062-1.514.341-3.343.074-4.898-.018z" fill="#a2efd7"/><path d="m731.048 475.869c-.953.289-.951.391-1.984.14-.26-.906-.517-1.795-.625-2.734-.217-1.899.206-4.758 1.663-6.162 1.348-1.3 2.539-1.144 4.294-1.341-1.013.769-1.665.897-1.883 2.208 2.382.745 5.094.369 7.339 1.286-.387.769-.695.781-1.424 1.191-2.327-.508-4.322-1.01-6.716-.55-.332.469-.579.759-.715 1.325-.02 1.587.705 2.496 1.534 3.767z" fill="#d8f3eb"/><path d="m695.112 397.969c5.521.103 8.639 1.742 12.584 5.425 1.218 3.177 1.648 6.206 1.827 9.571-.687 1.484-1.365 3.012-2.257 4.385-2.29 3.525-5.038 5.246-9.115 6.065-1.91-.044-3.805-.22-5.642-.779-3.144-.958-5.898-3.077-7.306-6.084-1.348-2.878-1.378-6.246-.3-9.212 1.836-5.049 5.601-7.295 10.209-9.371z" fill="#bfa4e2"/><path d="m695.384 404.962c1.266.012 2.718-.073 3.921.36 1.407.507 2.726 1.653 3.295 3.045.515 1.258.359 2.461-.124 3.695-.843 2.156-2.791 3.092-4.8 3.887-1.403-.492-2.804-.843-4.251-1.182-1.237-1.128-1.645-1.64-2.112-3.246.335-3.219 1.656-4.484 4.071-6.559z" fill="#f4f1f5"/><path d="m695.717 406.662c.576.163 1.369.332 1.904.635 1.229.696 1.732 1.352 2.24 2.635-.296 1.88-.531 1.913-1.855 3.165-.581-.124-.685-.108-1.278-.455-.157-.093-.31-.193-.457-.3s-.289-.222-.424-.344c-.136-.122-.265-.25-.388-.385s-.239-.275-.348-.421c-.109-.147-.21-.298-.304-.455-.093-.156-.179-.317-.256-.482-.078-.165-.147-.333-.208-.505s-.113-.347-.156-.524c.254-1.414.501-1.527 1.53-2.564z" fill="#ddb8d1"/><path d="m526.05 427.855c.778.765 1.486 1.318 1.906 2.344 3.127 8.085 11.924 9.115 17.354 14.853 1.353 8.318 1.617 16.893 2.125 25.299-5.972-2.298-10.884-2.909-17.239-2.836-1.099-1.71-2.177-3.298-3.517-4.829-4.588-9.972-4.382-24.598-.629-34.831z" fill="#bfa4e2"/><path d="m552.148 485.413c7.365-3.172 15.869-6.45 23.924-4.024 9.2 2.771 14.47 11.826 18.821 19.697.295 1.672.621 3.285.594 4.987-2.117-.655-2.002-2.927-4.718-3.235-6.457-.732-13.692 4.342-18.504 8.142-1.187-1.5-2.571-2.848-3.891-4.232-.34-2.31-.599-4.789-1.414-6.984-2.715-7.304-7.989-11.273-14.812-14.351z" fill="#bfa4e2"/><path d="m684.017 646.764c.912-4.417 2.088-8.483 6.12-11.09 3.226-2.086 7.46-2.46 11.129-1.495 4.052 1.066 7.664 3.796 9.591 7.544 1.464 2.849 1.776 6.084.729 9.124-1.036 3.006-3.611 6.248-6.422 7.777-3.496 1.902-9.664 2.289-13.309.923-6.927-2.595-5.466-8.064-8.279-10.4-2.117-1.758-45.825-.56-50.704-.504-2.379-2.33-5.477-4.954-7.068-7.912l.563-.747c2.409 2.331 4.789 4.896 7.529 6.822 16.657.119 33.473.439 50.121-.042z" fill="#a2efd7"/><path d="m692.026 652.767c-.154-.47-.156-.938-.195-1.429l1.594-1.266c.163-1.114.334-1.063-.257-2.108l-1.489 1.176-.551-.184c-.257-1.493-.379-2.854.122-4.321.461-1.354 1.493-2.428 2.781-3.025 2.263-1.049 5.14-.971 7.422-.02 1.676.699 2.948 1.786 3.561 3.549.604 1.737.273 4.18-.509 5.8-.931 1.157-1.444 1.824-2.973 2.093-1.725.303-3.852.001-5.599-.119-1.298.082-2.61-.064-3.907-.146z" fill="#eff0ed"/><path d="m692.026 652.767c6.557-.378 2.577-5.649 5.586-8.469.965 1.181-.302 1.269-.137 2.414.112.783 2.25 1.37 3.334 3.525-1.104.968-2.155 1.019-3.548 1.212l-1.328 1.464c-1.298.082-2.61-.064-3.907-.146z" fill="#d8f3eb"/><path d="m700.809 650.237.902-.459c.081-1.191-.1-2.91.603-3.862.719 1.622 1.001 2.887 1.168 4.649l1.023.374c-.931 1.157-1.444 1.824-2.973 2.093-1.725.303-3.852.001-5.599-.119l1.328-1.464c1.393-.193 2.444-.244 3.548-1.212z" fill="#e7efef"/><path d="m548.272 446.975 5.09 3.79.784-1.03c11.453 4.832 23.32 17.457 28.515 28.612l-1.1.155c.017.744.226 1.399-.219 2.017-8.821-3.257-15.509-2.034-23.986 1.047-2.26.822-4.39 1.761-6.815 1.903l-.503-.469.244-1.931c1.522-6.334-1.985-25.172-2.01-34.094z" fill="#bfa4e2"/><path d="m554.146 449.735c11.453 4.832 23.32 17.457 28.515 28.612l-1.1.155c.017.744.226 1.399-.219 2.017-7.422-14.471-14.899-20.658-27.98-29.754z" fill="#f4f1f5"/><path d="m533.266 527.118c1.761-.933 3.847-1.448 5.742-2.07l-.827 2.176.948.227 2.728-.169c5.242 2.957 12.1 7.189 18.34 5.599 1.845-.469 3.332-1.435 4.87-2.517.515.825.625 1.058 1.503 1.546-1.258.898-2.497 1.826-3.787 2.677-3.566 2.352-6.502 6.493-9.514 9.55-2.591 2.631-5.455 4.726-8.504 6.791 3.683.082 7.71-.164 11.339.369-.064.021-.128.045-.193.063-3.32.92-8.736 1.33-11.84-.448l.656-1.074c-.125-.006-.255-.054-.374-.018-1.477.452-2.848 1.154-4.386 1.563-5.76 1.534-21.679 1.606-26.741-1.347.123-3.585-.047-7.155-.139-10.737 3.291-3.523 18.87-10.008 24.1-12.587-1.04.219-1.981.397-3.047.406z" fill="url(#a)"/><path d="m533.266 527.118c1.761-.933 3.847-1.448 5.742-2.07l-.827 2.176c-8.312 3.985-16.683 8.013-24.548 12.83l.056 9.785c12.064 1.579 23.227 4.668 33.855-3.538 3.296-2.546 6.159-5.825 8.801-9.03-4.891-2.945-10.968-4.572-15.553-7.618-.876-.582-1.259-1.267-1.663-2.202l2.728-.169c5.242 2.957 12.1 7.189 18.34 5.599 1.845-.469 3.332-1.435 4.87-2.517.515.825.625 1.058 1.503 1.546-1.258.898-2.497 1.826-3.787 2.677-3.566 2.352-6.502 6.493-9.514 9.55-2.591 2.631-5.455 4.726-8.504 6.791 3.683.082 7.71-.164 11.339.369-.064.021-.128.045-.193.063-3.32.92-8.736 1.33-11.84-.448l.656-1.074c-.125-.006-.255-.054-.374-.018-1.477.452-2.848 1.154-4.386 1.563-5.76 1.534-21.679 1.606-26.741-1.347.123-3.585-.047-7.155-.139-10.737 3.291-3.523 18.87-10.008 24.1-12.587-1.04.219-1.981.397-3.047.406z" fill="#f8faec"/><path d="m486.73 469.036c6.591.16 13.1.582 17.879 5.783 7.574 8.244 6.101 25.601 5.412 36.074-.044.669-.094 1.337-.149 2.004-8.097-4.541-15.93-8.962-22.723-15.385l-1.686 1.172c-2.799-2.672-4.927-9.932-7.701-11.596-.179-.517-.364-1.033-.513-1.56-.534-1.887.157-2.965 1.024-4.581-.404-2.638-1.476-6.527.163-8.865 1.556-2.222 5.805-2.583 8.294-3.046z" fill="#8b7fdc"/><path d="m478.273 480.947c1.613 5.979 5.138 11.679 8.876 16.565l-1.686 1.172c-2.799-2.672-4.927-9.932-7.701-11.596-.179-.517-.364-1.033-.513-1.56-.534-1.887.157-2.965 1.024-4.581z" fill="#eff0ed"/><path d="m320.638 473.418c-5.554.683-11.442.096-17.068.442.106 3.499.061 5.149-2.126 7.932-4.498 5.726-10.195 10.873-17.8 11.602-4.599.442-8.733-1.224-12.188-4.201-.298-.255-.589-.517-.874-.787s-.562-.547-.833-.832c-.27-.284-.533-.575-.788-.873s-.503-.602-.743-.913c-.239-.31-.471-.626-.694-.949s-.438-.651-.644-.985c-.206-.333-.404-.672-.593-1.016s-.368-.693-.539-1.046-.332-.711-.484-1.072c-.153-.361-.296-.727-.429-1.096s-.257-.741-.371-1.116c-.115-.375-.219-.753-.314-1.134s-.179-.764-.254-1.149-.14-.771-.195-1.16-.099-.778-.134-1.169-.059-.782-.074-1.174c-.17-3.982.824-8.029 3.631-10.973 2.85-2.989 6.189-3.866 10.2-3.894l-.364.22c3.993.122 8.321.249 11.851 2.33 2.5 1.475 5.529 4.555 6.13 7.477.172.834.356 1.511.649 2.308 1.668 1.103 4.119.233 6.045.782 4.09 1.166 10.044.453 14.377.445l27.225-.067c6.111-.013 12.465-.295 18.531.472.833.113 1.384.291 2.039.84 5.239 4.386 9.963 10.349 14.648 15.356 5.791 6.187 12.347 12.319 17.482 19.041.559.732 1.037 1.442 1.49 2.241l-.088.531c-3.769-2.891-7.127-7.833-10.452-11.373-7.997-8.512-16.272-16.746-24.243-25.289-13.47.176-28.902-.655-42.006.249z" fill="#d8f3eb"/><path d="m294.919 473.142c-1.569 4.001-4.165 8.258-8.321 9.966-3.084 1.267-6.659.852-9.617-.572-.375-.185-.74-.388-1.093-.611-.354-.223-.695-.463-1.024-.721-.329-.259-.643-.534-.943-.825s-.584-.597-.852-.918-.518-.655-.751-1.002-.448-.706-.643-1.076c-.195-.369-.371-.748-.527-1.136-.155-.388-.29-.783-.405-1.185-.92-3.169-.724-6.944.943-9.839 1.748-3.034 5.002-4.682 8.313-5.42 3.027-.675 6.061-.221 8.635 1.557 3.384 2.338 5.286 6.016 5.949 9.987.033.2.062.401.094.601 22.258.052 44.88.919 67.091-.126.833.113 1.384.291 2.039.84 5.239 4.386 9.963 10.349 14.648 15.356 5.791 6.187 12.347 12.319 17.482 19.041.559.732 1.037 1.442 1.49 2.241l-.088.531c-3.769-2.891-7.127-7.833-10.452-11.373-7.997-8.512-16.272-16.746-24.243-25.289-13.47.176-28.902-.655-42.006.249-8.397-.817-17.268-.292-25.719-.276z" fill="#5cdea1"/><path d="m277.125 474.334c-.451-2.124-1.005-4.228.2-6.206.765-1.256 1.837-2.401 3.377-2.61 1.845-.251 3.85.439 5.239 1.618l-2.912.467c-1.619.915-2.749 1.776-3.972 3.18-.762 1.138-1.6 2.202-1.932 3.551z" fill="#a2efd7"/><path d="m283.029 467.603 2.912-.467c.984 2.273 2.02 4.256 1.01 6.726-.412 1.007-1.204 1.925-2.216 2.363-1.513.655-3.757.398-5.216-.339-.841-.425-1.629-1.006-2.394-1.552.332-1.349 1.17-2.413 1.932-3.551 1.223-1.404 2.353-2.265 3.972-3.18z" fill="#d8f3eb"/><path d="m283.029 467.603c1.133 1.18 1.749 1.903 2.163 3.5-.269 1.078-.327 1.664-1.384 2.271-.928.533-2.366.438-3.303-.011-1.197-.573-1.169-1.425-1.448-2.58 1.223-1.404 2.353-2.265 3.972-3.18z" fill="#eff0ed"/><path d="m477.762 487.088c2.774 1.664 4.902 8.924 7.701 11.596 4.625 5.575 17.898 16.067 24.088 20.187.03 5.381.007 10.761-.068 16.141-7.47-3.469-14.801-6.655-22.996-7.998-3.649-.598-7.383-.553-10.994-1.317-5.559-4.433-13.146-11.024-20.67-11.041-4.773-.01-8.556 4.787-11.781 7.841l-.099-.621c-.084-2.822 1.009-5.335 1.984-7.925 1.308-3.046 5.75-6.339 5.592-9.601l-1.852-1.453c.952-.04 1.719-.224 2.63-.496.309.096.62.183.925.289 4.414 1.529 11.21 1.867 15.889 1.447 2.683-.24 5.263-1.148 6.971-3.334 2.751-3.522 1.966-7.926 1.553-12.03l.83-.587z" fill="#8b7fdc"/><path d="m476.635 488.773.83-.587c.927 4.329 2.09 9.491-.522 13.483-1.526 2.332-3.962 3.484-6.63 3.999-5.185.999-11.461.056-16.763-.003-4.302 4.539-7.309 9.426-9.946 15.082-.375.805-.178.473-.661 1.129-.084-2.822 1.009-5.335 1.984-7.925 1.308-3.046 5.75-6.339 5.592-9.601l-1.852-1.453c.952-.04 1.719-.224 2.63-.496.309.096.62.183.925.289 4.414 1.529 11.21 1.867 15.889 1.447 2.683-.24 5.263-1.148 6.971-3.334 2.751-3.522 1.966-7.926 1.553-12.03z" fill="#e7efef"/><path d="m443.042 522.497c3.225-3.054 7.008-7.851 11.781-7.841 7.524.017 15.111 6.608 20.67 11.041l-1.157.678c.66 1.337 1.771 1.665 2.899 2.565.148.03.295.063.443.09 2.623.492 5.119.092 7.741.327 8.899.799 16.897 4.677 23.754 10.294l.251 10.413c-11.99 2.998-22.41 2.966-34.525.698-1.817-.83-3.954-1.236-5.837-1.994-5.245-2.113-9.422-5.242-13.624-8.945l-.294-.301c-3.498-3.618-10.181-10.163-10.073-15.468l-.592-1.217-1.39.104z" fill="#8b7fdc"/><path d="m443.042 522.497c3.225-3.054 7.008-7.851 11.781-7.841 7.524.017 15.111 6.608 20.67 11.041l-1.157.678c.66 1.337 1.771 1.665 2.899 2.565-9.181-2.417-15.684 1.243-23.5 5.4 5.741-5.608 10.96-7.922 19.014-7.898-1.228-1.149-2.467-2.292-3.788-3.333-3.861-3.042-9.196-7.184-14.404-6.379-4.503.696-6.877 4.006-9.486 7.324l-.592-1.217-1.39.104z" fill="#eff0ed"/><path d="m532.981 419.661c4.968-.704 9.065-.313 13.239 2.806 3.517 2.627 6.026 6.394 7.86 10.333 6.223-.8 12.811-1.741 18.139 2.479 2.16 1.711 3.512 4.07 3.704 6.838.201 2.913-.43 5.559-2.236 7.836l.291.595c8.485 1.891 16.884 2.533 22.142 10.714 3.081 4.795 3.524 10.918 2.229 16.377-.645 2.719-1.979 4.857-4.438 6.262-1.959 1.121-4.286 1.374-6.485 1.675-1.872-2.264-3.465-4.584-4.765-7.229-5.195-11.155-17.062-23.78-28.515-28.612l-.38-1.293c.574-.523 1.124-1.059 1.67-1.611l.181.333.437-.319c-.946-.17-1.89-.392-2.837-.546-4.55-.738-23.607-15.948-25.261-16.1-.42-1.026-1.128-1.579-1.906-2.344l1.301-2.725c1.695-2.295 3.223-3.933 5.63-5.469z" fill="url(#b)"/><path d="m471.884 425.927c2.617-2.831 5.231-5.158 9.039-6.275 3.842-1.127 7.254-.33 10.622 1.634 1.971 2.125 3.629 4.137 5.148 6.613.722 2.35 1.227 4.606 1.628 7.024-1.031 6.949 1.846 26.289-1.982 30.963l-.701.334c-6.616-.89-12.811-.323-18.689 2.983-1.171-7.342-3.028-14.714-2.322-22.179.546-3.703 11.222-9.239 14.921-12.211l.827.782.04-1.51-.418-.06c-5.667 4.604-13.448 7.364-18.299 12.804-.075 1.244-.158 2.443-.027 3.688l.341.76-.677 1.63c-3.723-.777-10.723-1.664-14.157.299-.569.325-1.147.984-1.594 1.435l-1.133-1.809c.591-.657 1.068-1.318 1.551-2.058-.671-1.677-2.443-2.313-3.966-3.239l2.408-.715c-1.871-1.359-6.264-2.163-7.313-3.679-.117-1.437-.268-2.901.056-4.321 2.341-10.244 18.886-3.976 22.247-6.059-.133-2.758.516-3.943 2.042-6.231z" fill="#6964cd"/><path d="m471.698 446.829c.333-1.144.602-2.151 1.469-3.019 1.477-1.479 15.617-10.425 18.063-11.742 1.024-.552 1.271-.921 2.42-.628l.151.92c-3.385 4.701-9.642 6.999-14.194 10.372-1.434 1.062-3.525 3.724-4.98 4.292.546-3.703 11.222-9.239 14.921-12.211l.827.782.04-1.51-.418-.06c-5.667 4.604-13.448 7.364-18.299 12.804z" fill="#f8faec"/><path d="m454.444 446.82c5.283 3.208 11.361 2.159 17.227 3.697l.341.76-.677 1.63c-3.723-.777-10.723-1.664-14.157.299-.569.325-1.147.984-1.594 1.435l-1.133-1.809c.591-.657 1.068-1.318 1.551-2.058-.671-1.677-2.443-2.313-3.966-3.239z" fill="#eff0ed"/><path d="m566.57 531.91c3.033-2.432 5.05-5.074 7.007-8.376 1.799 1.606 3.436 2.987 5.594 4.121 2.727 1.773 5.464 3.553 8.417 4.933 3.336 1.558 7.693 2.703 10.618 4.891 1.204.9 2.01 2.014 2.366 3.487.782 3.236-1.34 7.768-3.109 10.461-.474.722-1.033 1.386-1.57 2.061.811.564 1.068.732 1.567 1.621-2.6 2.728-18.905 16.41-19.253 17.39l1.399 1.027-.967 1.158c-1.813-.994-2.366-1.178-4.335-.582-2.28.691-4.517 1.417-6.845 1.945 1.151 1.405 2.285 2.498 2.329 4.416-2.055-2.055-3.962-3.872-6.413-5.463 5.996-.365 10.881-1.143 15.767-4.857l-.213-.34c-.888.488-1.641.961-2.456 1.556-3.074 2.247-10.117 2.32-13.842 1.567-2.306-.466-4.221-1.292-5.591-3.235-2.387-2.809-20.002-12.936-24.211-15.177 7.775-1.864 14.156-1.351 22.008-1.283 9.866.085 18.8-.045 28.515 1.91-7.695-6.407-17.94-4.692-27.248-3.844-3.629-.533-7.656-.287-11.339-.369 3.049-2.065 5.913-4.16 8.504-6.791 3.012-3.057 5.948-7.198 9.514-9.55 1.29-.851 2.529-1.779 3.787-2.677z" fill="#bfa4e2"/><path d="m595.893 553.488c.811.564 1.068.732 1.567 1.621-2.6 2.728-18.905 16.41-19.253 17.39l1.399 1.027-.967 1.158c-1.813-.994-2.366-1.178-4.335-.582-2.28.691-4.517 1.417-6.845 1.945 1.151 1.405 2.285 2.498 2.329 4.416-2.055-2.055-3.962-3.872-6.413-5.463 5.996-.365 10.881-1.143 15.767-4.857l-.213-.34c-.888.488-1.641.961-2.456 1.556-3.074 2.247-10.117 2.32-13.842 1.567-2.306-.466-4.221-1.292-5.591-3.235 3.357 1.489 6.27 2.729 10.022 2.8 11.028.211 21.426-11.788 28.831-19.003z" fill="#f8faec"/><path d="m513.865 512.529c-.334-7.777-.77-16.036-.105-23.793.457-5.332 2.44-10.544 6.715-13.965 1.476-1.181 4.44-3.202 6.428-2.931 3.965.541 7.538-1.507 11.548-1.579 2.92-.052 6.261.363 8.353 2.617 1.716 1.849 2.165 3.725 2.093 6.185-.981 3.206-1.598 6.542-2.302 9.819.965 4.492 2.33 10.794 5.367 14.319.181 1.618.774 4.064-.273 5.399-.419.534-1.008.973-1.491 1.437-.067.064-.117.142-.176.214-.261.003-.523.012-.784.008-1.391-.02-2.672-.547-3.983-.953-1.032-.319-1.557-.367-2.61-.119.804 1.394 2.873 2.541 4.426 2.925 1.142.283 2.348.403 3.515.534-.98 2.978-1.842 5.968-3.482 8.663l1.145 2.136c-2.101 1.232-4.451 2.387-6.392 3.837l-2.728.169-.948-.227.827-2.176c-1.895.622-3.981 1.137-5.742 2.07-5.459 1.23-13.498 5.802-19.643 7.783.019-5.849-.036-11.698-.167-17.546.848-2.984 6.63-3.299 9.006-5.179 2.789-2.206 6.086-3.733 9.016-5.747 1.15-.791 1.929-1.908 3.044-2.728 1.523-1.12 3.297-2.724 4.214-4.394.528-.962.648-1.672.388-2.736-2.789 4.636-7.462 9.058-12.353 11.451-.596.292-1.103.529-1.651.912-2.497 1.742-7.212 4.127-10.299 3.748-.32-.039-.637-.102-.956-.153z" fill="url(#c)"/><path d="m539.008 525.048c3.241-.744 5.488-1.634 8.096-3.739l1.145 2.136c-2.101 1.232-4.451 2.387-6.392 3.837l-2.728.169-.948-.227z" fill="#eff0ed"/><path d="m538.483 496.515c.068-3.041.099-6.038-.075-9.075l.489.037c1.723 3.089 2.342 6.77 1.388 10.229-1.775 6.429-11.869 12.234-17.368 15.182-2.779 1.49-6.44 3.653-9.461 4.467.848-2.984 6.63-3.299 9.006-5.179 2.789-2.206 6.086-3.733 9.016-5.747 1.15-.791 1.929-1.908 3.044-2.728 1.523-1.12 3.297-2.724 4.214-4.394.528-.962.648-1.672.388-2.736-2.789 4.636-7.462 9.058-12.353 11.451-.596.292-1.103.529-1.651.912-2.497 1.742-7.212 4.127-10.299 3.748-.32-.039-.637-.102-.956-.153 9.705-3.099 18.236-7.904 24.618-16.014z" fill="#eff0ed"/><path d="m588.096 487.972c2.301-.683 4.711-1.51 7.109-1.721 5.246-.462 10.914.707 15.152 3.933 1.398 1.064 2.519 2.462 3.902 3.542.126.099.259.191.389.286.004-.047.018-.094.012-.141-.192-1.549-1.343-2.28-2.391-3.37l.474-.173c1.054 1.001 2.091 2.089 3.38 2.786.235.127.475.245.712.367 2.409 2.938 3.479 6.149 3.161 9.968-.279 3.35-1.424 6.036-3.228 8.826.356.299.702.61 1.049.919.232.206.473.402.7.613 2.253 2.094 4.312 6.737 4.332 9.797.029 4.371-2.162 9.063-5.287 12.057-.679.639-1.37 1.266-2.072 1.879 4.126 3.704 7.112 8.498 7.406 14.162.306 5.889-2.261 11.521-6.287 15.723-4.527 4.726-10.507 7.528-16.486 9.949 3.169 4.362 6.045 9.612 5.196 15.221-.294 1.948-1.302 4.361-2.621 5.857-.059.067-.149.1-.223.15-1.103.574-2.242 1.653-3.415 1.96.989-1.202 1.542-1.521 1.617-3.108.859-1.739 1.746-3.684 1.995-5.619.688-5.354-1.921-9.634-5.107-13.645-8.221 1.858-11.748.376-18.926-3.506l.967-1.158-1.399-1.027c.348-.98 16.653-14.662 19.253-17.39-.499-.889-.756-1.057-1.567-1.621.537-.675 1.096-1.339 1.57-2.061 1.769-2.693 3.891-7.225 3.109-10.461-.356-1.473-1.162-2.587-2.366-3.487-2.925-2.188-7.282-3.333-10.618-4.891-2.953-1.38-5.69-3.16-8.417-4.933l.36-1.995-3.425-2.278c3.789-1.604 7.443-3.56 11.116-5.411l-1.576-.7c2.6-1.398 7-2.516 8.877-4.747 1.085-1.289.695-1.967.496-3.496l.468-2.955c.027-1.702-.299-3.315-.594-4.987l.977-1.01c-1.926-4.403-4.931-8.265-7.774-12.104z" fill="#eff0ed"/><path d="m588.096 487.972c2.301-.683 4.711-1.51 7.109-1.721 5.246-.462 10.914.707 15.152 3.933 1.398 1.064 2.519 2.462 3.902 3.542.126.099.259.191.389.286 2.001 3.547 3.711 7.388 2.615 11.563-.557 2.126-1.879 3.912-3.79 5.01-3.494 2.006-9.405 2.183-13.193 1.068-.981-.289-1.635-.666-2.39-1.369-1.433-3.165-.985-6.847-2.02-10.208-1.926-4.403-4.931-8.265-7.774-12.104z" fill="#bfa4e2"/><path d="m587.222 517.971c2.277-1.049 4.664-2.303 7.064-3.019 4.151-1.24 15.357-1.719 19.427-.28 2.791.987 5.11 3.017 6.235 5.78 1.123 2.757.897 5.907-.415 8.559-1.509 3.051-4.214 5.132-7.464 6.062-9.896 2.833-20.748-2.445-29.033-7.314-1.173-.691-2.342-1.39-3.505-2.099l-3.425-2.278c3.789-1.604 7.443-3.56 11.116-5.411z" fill="#bfa4e2"/><path d="m602.633 537.556c5.143-.048 9.428.198 13.352 4.068 3.035 2.994 4.401 7.229 4.268 11.44-.17 5.37-2.896 10.328-6.776 13.939-5.655 5.264-16.323 10.387-24.127 9.799-3.617-.272-6.537-1.735-9.744-3.276l-1.399-1.027c.348-.98 16.653-14.662 19.253-17.39 3.049-2.779 6.888-3.979 10.679-5.411-2.888.265-5.736.549-8.597 1.038 1.806-4.471 2.758-8.368 3.091-13.18z" fill="#bfa4e2"/><path d="m512.917 455.431c-.042-7.501-.437-15.226.091-22.702.53-7.511 3.863-14.969 9.733-19.818.323-.262.653-.516.989-.762.336-.245.678-.482 1.026-.71s.702-.447 1.061-.657.724-.411 1.093-.602c.369-.192.743-.374 1.122-.546.379-.173.762-.335 1.149-.488s.777-.296 1.172-.429c.394-.133.791-.256 1.192-.369s.804-.215 1.209-.308c.406-.092.814-.174 1.224-.245s.821-.132 1.234-.183.828-.091 1.243-.12.83-.048 1.246-.057c.416-.008.832-.005 1.248.008s.831.036 1.246.07.828.079 1.241.134c8.477 1.115 14.668 6.09 19.71 12.628 5.773.355 11.132 1.233 16.094 4.484 5.762 3.776 8.513 9.243 9.928 15.773 4.287 1.638 8.134 3.572 11.801 6.351 1.636-1.969 3.23-3.897 5.124-5.632l1.418.272-5.11 6.468c8.114 9.961 10.572 15.641 9.603 28.702 8.492 3.954 12.766 8.714 17.232 16.759 3.084-.084 7.076-.727 10.046-.216-2.042 1.536-7.109 1.341-9.729 1.495 1.032 5.176.197 10.358 1.086 15.391.359 2.031 1.886 3.897 2.509 5.887 2.18 6.963.088 15.536-3.24 21.85 4.416 6.492 5.537 13.623 4.079 21.3-.226 1.257-.521 2.497-.884 3.721-1.626 3.752-3.256 6.957-5.948 10.087-3.428 3.36-7.267 6.083-11.085 8.971 1.641 8.015 1.761 15.07-3.089 22.16-1.581 2.31-3.604 4.301-5.765 6.065-1.325.745-2.613 1.588-4.061 2.058l.052-.55c.536-.399 1.066-.81 1.608-1.201 2.402-1.734 4.684-3.745 6.573-6.041 5.925-7.2 4.828-13.721 4.049-22.36.736-1.037 1.349-1.648 1.309-2.976-.538-.621-.892-.911-1.683-1.227-2.726-1.092-7.591.295-10.256 1.275-.333 1.093 3.048 6.018 3.352 7.741.703 3.981-.948 10.363-3.547 13.476-1.148 1.375-2.83 3.013-4.712 3.131-.276.017-.552.015-.828.022 2.196-1.285 3.949-2.823 5.403-4.909.074-.05.164-.083.223-.15 1.319-1.496 2.327-3.909 2.621-5.857.849-5.609-2.027-10.859-5.196-15.221 5.979-2.421 11.959-5.223 16.486-9.949 4.026-4.202 6.593-9.834 6.287-15.723-.294-5.664-3.28-10.458-7.406-14.162.702-.613 1.393-1.24 2.072-1.879 3.125-2.994 5.316-7.686 5.287-12.057-.02-3.06-2.079-7.703-4.332-9.797-.227-.211-.468-.407-.7-.613-.347-.309-.693-.62-1.049-.919 1.804-2.79 2.949-5.476 3.228-8.826.318-3.819-.752-7.03-3.161-9.968-4.182-6.356-11.011-8.137-17.802-10.296 2.427-7.155 3.748-14.497.129-21.574-4.168-8.151-12.571-10.447-20.641-12.861.046-1.787.115-3.592.045-5.378-.148-3.738-1.811-7.652-4.704-10.083-5.05-4.242-11.742-3.53-17.819-2.866-2.475-3.838-5.147-7.465-8.934-10.123-3.483-2.444-7.916-3.97-12.185-3.098-4.176.853-6.468 3.426-8.785 6.783.392.447.678.869 1.212 1.145l-1.301 2.725c-3.753 10.233-3.959 24.859.629 34.831-.064.186-.14.368-.191.559-.263.982-.163.576-.036 1.591.16 1.268-.306 2.511-1.05 3.548-.907 1.264-3.332 2.418-4.824 2.465-.174.006-.349-.014-.524-.022 1.655-1.374 3.523-2.398 5.37-3.488-.519-.588-.894-1.189-1.299-1.863-.163-.272-.317-.549-.478-.821l-.52-.87c-2.565-4.323-7.331-4.243-10.21-8.354z" fill="url(#d)"/><path d="m526.139 423.985c.392.447.678.869 1.212 1.145l-1.301 2.725c-3.753 10.233-3.959 24.859.629 34.831-.064.186-.14.368-.191.559-.263.982-.163.576-.036 1.591.16 1.268-.306 2.511-1.05 3.548-.907 1.264-3.332 2.418-4.824 2.465-.174.006-.349-.014-.524-.022 1.655-1.374 3.523-2.398 5.37-3.488.748-1.08-2.527-12.162-2.856-14.312-1.351-8.827-1.978-21.46 3.571-29.042z" fill="#eff0ed"/><path d="m471.338 423.33.546 2.597-.408.603c-1.526 2.288-2.175 3.473-2.042 6.231-3.361 2.083-19.906-4.185-22.247 6.059-.324 1.42-.173 2.884-.056 4.321 1.049 1.516 5.442 2.32 7.313 3.679l-2.408.715c1.523.926 3.295 1.562 3.966 3.239-.483.74-.96 1.401-1.551 2.058l1.133 1.809c.447-.451 1.025-1.11 1.594-1.435 3.434-1.963 10.434-1.076 14.157-.299l.181.628c4.178 4.691 3.858 21.22 5.014 27.715.861-2.894-.962-9.306 1.764-10.854 2.277-1.292 5.161-1.761 7.726-1.443l.71.083c-2.489.463-6.738.824-8.294 3.046-1.639 2.338-.567 6.227-.163 8.865-.867 1.616-1.558 2.694-1.024 4.581.149.527.334 1.043.513 1.56l-.297 1.098-.83.587c.413 4.104 1.198 8.508-1.553 12.03-1.708 2.186-4.288 3.094-6.971 3.334-4.679.42-11.475.082-15.889-1.447-.305-.106-.616-.193-.925-.289-.911.272-1.678.456-2.63.496l1.852 1.453c.158 3.262-4.284 6.555-5.592 9.601-3.347-1.045-6.861-1.093-10.32-1.54-5.24-.164-6.88 3.142-10.513 6.248-2.354 2.014-5.269 2.791-8.331 2.492-2.022-.198-5.29-.706-6.532-2.471-1.611-2.288-1.573-5.558-1.185-8.21.982-6.701 4.176-11.071 9.482-15.104l2.39-1.175 1.036.411c3.44-3.947-.12-14.401 6.914-21.669-.213-.816-.223-1.718-.3-2.559 3.625-1.863 6.462-1.995 10.436-2.043-1.736-3.872-2.835-7.825-2.191-12.098.869-5.779 4.233-9.119 8.675-12.434.187-1.881.103-3.805.103-5.696 1.269-2.02 2.632-3.713 4.579-5.126 5.341-3.875 11.388-3.163 17.484-2.167 1.201-2.887 2.589-5.142 4.684-7.48z" fill="#f8faec"/><path d="m429.509 511.454c.747-2.903 1.785-5.883 3.035-8.607 2.617-5.704 5.982-8.897 11.771-11.075.975 4.154 1.845 7.565 4.352 11.125l1.852 1.453c.158 3.262-4.284 6.555-5.592 9.601-3.347-1.045-6.861-1.093-10.32-1.54z" fill="#6964cd"/><path d="m447.552 475.277c-3.077-3.338-6.535-6.66-8.348-10.888-.186-.433-.35-.873-.492-1.322-.143-.449-.263-.904-.36-1.365s-.171-.925-.222-1.393c-.051-.469-.079-.938-.084-1.409s.014-.941.056-1.41.107-.935.195-1.398.199-.92.333-1.371c.133-.452.289-.896.466-1.332 1.616-3.886 5.044-6.377 8.78-7.988l4.16 2.134c1.523.926 3.295 1.562 3.966 3.239-.483.74-.96 1.401-1.551 2.058l1.133 1.809c-2.403 5.218-.822 7.577-.217 12.777l-1.532 1.028c-1.236 2.306-4.453 4.774-6.283 6.831z" fill="#6964cd"/><path d="m453.835 468.446c-.383-1.116-.724-2.277-.973-3.429-.968-4.488-.916-8.262 1.589-12.185l1.133 1.809c-2.403 5.218-.822 7.577-.217 12.777z" fill="#eff0ed"/><path d="m448.223 479.724c7.499 6.974 18.562 8.769 28.412 9.049.413 4.104 1.198 8.508-1.553 12.03-1.708 2.186-4.288 3.094-6.971 3.334-4.679.42-11.475.082-15.889-1.447-.305-.106-.616-.193-.925-.289-.567-.552-1.147-1.095-1.63-1.725-4.032-5.26-2.023-14.847-1.444-20.952z" fill="url(#e)"/><path d="m455.584 454.641c.447-.451 1.025-1.11 1.594-1.435 3.434-1.963 10.434-1.076 14.157-.299l.181.628c2.184 11.008 2.875 21.887 4.489 32.928-9.447-.467-19.002-2.363-27.039-7.602 2.044-3.233 3.782-5.751 7.11-7.82 2.087-.087 5.94.263 7.609-.977l.184-.704c-2.602-1.719-5.918.09-8.502-1.942-.605-5.2-2.186-7.559.217-12.777z" fill="#6964cd"/><path d="m427.868 472.933c3.192-1.566 6.693-2.894 10.257-1.81 3.296 1.003 5.569 3.69 7.833 6.141-1.35 3.871-1.015 8.101-1.554 12.127-7.087 2.779-11.252 6.185-14.425 13.339-2.333 5.262-4.136 13.27-10.074 15.546-2.413.925-5.512.466-7.757-.729-1.335-.711-2.388-1.879-2.663-3.411-.749-4.163 2.509-9.74 5.082-12.808 1.976-2.356 4.762-4.126 6.387-6.726 3.44-3.947-.12-14.401 6.914-21.669z" fill="#6964cd"/><path d="m512.757 556.211c2.542-2.07 5.553-1.857 8.667-1.565 6.491.609 12.308 3.226 18.031 6.164 3.228-.375 12.616 7.117 15.276 9.245 1.151.92 2.265 1.914 3.11 3.127.807-.547.871-.905 1.895-.647 1.185.298 2.454 1.02 3.159 2.054.075.11.124.237.187.355l.293.056c2.451 1.591 4.358 3.408 6.413 5.463-.044-1.918-1.178-3.011-2.329-4.416 2.328-.528 4.565-1.254 6.845-1.945 1.969-.596 2.522-.412 4.335.582 7.178 3.882 10.705 5.364 18.926 3.506 3.186 4.011 5.795 8.291 5.107 13.645-.249 1.935-1.136 3.88-1.995 5.619-.075 1.587-.628 1.906-1.617 3.108 1.173-.307 2.312-1.386 3.415-1.96-1.454 2.086-3.207 3.624-5.403 4.909.276-.007.552-.005.828-.022 1.882-.118 3.564-1.756 4.712-3.131 2.599-3.113 4.25-9.495 3.547-13.476-.304-1.723-3.685-6.648-3.352-7.741 2.665-.98 7.53-2.367 10.256-1.275.791.316 1.145.606 1.683 1.227.04 1.328-.573 1.939-1.309 2.976.779 8.639 1.876 15.16-4.049 22.36-1.889 2.296-4.171 4.307-6.573 6.041-.542.391-1.072.802-1.608 1.201l-.052.55 3.471 3.867c7.164 8.044 14.57 15.864 21.741 23.896l-.563.747c-8.358-8.749-17.734-17.807-24.882-27.517-2.381.884-4.802 1.375-7.28 1.893-.53 4.825-1.312 9.485-3.571 13.845-3.608 6.962-9.867 11.931-17.332 14.165-9.79 2.93-33.664 2.286-42.896-2.838-7.557-4.195-14.281-12.036-16.684-20.389-.143-.179-.297-.351-.43-.538-1.725-2.423-1.186-26.592-.501-30.573.319-1.852.765-3.017 2.331-4.088 1.329.31 1.509.522 2.506 1.479l.298-.202c-.801-1.746-3.233-2.921-4.713-4.179-.832-5.085-1.06-20.684.107-25.578z" fill="#8b7fdc"/><path d="m579.744 616.084.28 2.602-3.71.615-2.878-1.495c2.166-.355 4.22-1.063 6.308-1.722z" fill="#eff0ed"/><path d="m557.508 617.98c4.643-1.014 11.068-.045 15.928-.174l2.878 1.495c-6.635 1.04-12.316.238-18.806-1.321z" fill="#f8faec"/><path d="m512.757 556.211c1.108 8.088.412 16.947.631 25.138 4.153 2.466 6.683 6.503 9.391 10.385 7.647 10.959 15.879 21.25 29.52 24.584l-.727.75.264 1.788c-7.911-3.371-14.789-7.042-20.909-13.177-5.53-5.543-8.918-12.341-13.946-18.093-.74-.846-1.309-1.473-2.459-1.668-1.881 1.836-1.793 5.903-1.822 8.479-.093 8.457.023 17.044.459 25.493-.143-.179-.297-.351-.43-.538-1.725-2.423-1.186-26.592-.501-30.573.319-1.852.765-3.017 2.331-4.088 1.329.31 1.509.522 2.506 1.479l.298-.202c-.801-1.746-3.233-2.921-4.713-4.179-.832-5.085-1.06-20.684.107-25.578z" fill="#eff0ed"/><path d="m539.455 560.81c3.228-.375 12.616 7.117 15.276 9.245 1.151.92 2.265 1.914 3.11 3.127.807-.547.871-.905 1.895-.647 1.185.298 2.454 1.02 3.159 2.054.075.11.124.237.187.355-.878-.356-3.327-1.656-4.08-1.231-1.401.79-2.482 2.663-3.402 3.962-3.033 4.281-8.911 5.923-13.735 7.287.255.222.513.44.764.667 5.278 4.76 11.884 19.171 19.113 19.156 4.101-.009 8.304-2.577 11.03-5.499 1.509-1.618 2.426-3.488 3.329-5.484l1.842-.328c3.869 3.709 10.383 8.554 15.965 8.259 3.103-.163 4.562-2.49 6.769-4.279-.075 1.587-.628 1.906-1.617 3.108 1.173-.307 2.312-1.386 3.415-1.96-1.454 2.086-3.207 3.624-5.403 4.909-8.135.586-13.277-2.785-19.399-7.739-2.363 4.581-5.325 8.21-10.423 9.861-3.589 1.162-7.086.956-10.778.705.07 4.288-.038 7.926-1.366 12.064-2.336 4.156-5.258 8.265-7.243 12.573 8.082.683 21.521 2.476 28.136-2.909 2.379-1.937 3.849-5.018 4.047-8.067.046-.718.029-.708-.022-1.313l-.28-2.602c3.276-2.541 3.925-4.658 5.014-8.612l.737.174c.801 3.067-3.892 16.012-5.637 18.974-2.002 3.397-5.386 5.591-9.175 6.504-5.744 1.384-23.409 1.05-29.526-.179-1.499-.29-2.958-.714-4.379-1.273s-2.778-1.244-4.073-2.053c-5.552-3.493-8.825-8.898-10.096-15.255-.862-4.31-1.263-9.498-.574-13.829l.226.664c3.285 9.864 1.727 21.74 12.502 27.554 3.292 1.776 6.58 2.176 10.235 2.362 2.398-4.021 4.785-8.048 6.838-12.259l-.264-1.788.727-.75c.953-1.372 1.483-2.86 1.675-4.52 1.138-9.842-7.897-19.513-13.484-26.661-4.153-1.129-8.156-2.483-11.848-4.748-1.957-1.2-4.492-2.923-4.936-5.346-.172-.941-.111-.655.539-1.479 2.02.433 3.774 3.047 5.46 4.274 4.044 2.944 9.733 4.516 14.69 3.701 5.445-.896 9.499-4.117 12.64-8.499-5.657-4.352-12.035-7.783-17.58-12.23z" fill="#f8faec"/><path d="m541.865 584.962c4.824-1.364 10.702-3.006 13.735-7.287.92-1.299 2.001-3.172 3.402-3.962.753-.425 3.202.875 4.08 1.231l.293.056c2.451 1.591 4.358 3.408 6.413 5.463-.044-1.918-1.178-3.011-2.329-4.416 2.328-.528 4.565-1.254 6.845-1.945 1.969-.596 2.522-.412 4.335.582 7.178 3.882 10.705 5.364 18.926 3.506 3.186 4.011 5.795 8.291 5.107 13.645-.249 1.935-1.136 3.88-1.995 5.619-2.207 1.789-3.666 4.116-6.769 4.279-5.582.295-12.096-4.55-15.965-8.259l-1.842.328c-.903 1.996-1.82 3.866-3.329 5.484-2.726 2.922-6.929 5.49-11.03 5.499-7.229.015-13.835-14.396-19.113-19.156-.251-.227-.509-.445-.764-.667z" fill="#bfa4e2"/><path d="m574.204 585.234c1.572.642 2.42 1.533 3.119 3.136.753 1.73.787 3.246.62 5.104l-1.842.328c.679-3.208-.512-5.732-1.897-8.568z" fill="#eff0ed"/><path d="m512.757 556.211c2.542-2.07 5.553-1.857 8.667-1.565 6.491.609 12.308 3.226 18.031 6.164 5.545 4.447 11.923 7.878 17.58 12.23-3.141 4.382-7.195 7.603-12.64 8.499-4.957.815-10.646-.757-14.69-3.701-1.686-1.227-3.44-3.841-5.46-4.274-.65.824-.711.538-.539 1.479.444 2.423 2.979 4.146 4.936 5.346 3.692 2.265 7.695 3.619 11.848 4.748 5.587 7.148 14.622 16.819 13.484 26.661-.192 1.66-.722 3.148-1.675 4.52-13.641-3.334-21.873-13.625-29.52-24.584-2.708-3.882-5.238-7.919-9.391-10.385-.219-8.191.477-17.05-.631-25.138z" fill="url(#f)"/><path d="m460.637 420.114c6.234-6.652 12.661-12.228 22.342-12.535.424-.015.848-.019 1.273-.012s.849.025 1.272.054c.424.029.847.068 1.268.118.421.051.841.112 1.26.184s.835.155 1.249.249c.414.093.825.197 1.234.312s.814.24 1.217.375c.402.136.801.282 1.196.438s.785.322 1.171.498c.387.176.768.362 1.145.558s.748.401 1.114.616.726.439 1.081.672.703.476 1.045.727c.343.251.678.511 1.007.78s.65.546.965.831.622.578.921.879c3.295 3.249 5.884 7.489 7.05 11.966 2.023 7.768 1.324 35.651 1.211 45.248-.027 1.525-.086 3.048-.179 4.571-2.418-3.689-5.12-7.641-9.203-9.638-1.524.021-3.241-.17-4.638-.785l.701-.334c3.828-4.674.951-24.014 1.982-30.963-.401-2.418-.906-4.674-1.628-7.024-1.519-2.476-3.177-4.488-5.148-6.613-3.368-1.964-6.78-2.761-10.622-1.634-3.808 1.117-6.422 3.444-9.039 6.275l-.546-2.597c-2.095 2.338-3.483 4.593-4.684 7.48-6.096-.996-12.143-1.708-17.484 2.167-1.947 1.413-3.31 3.106-4.579 5.126 0 1.891.084 3.815-.103 5.696-4.442 3.315-7.806 6.655-8.675 12.434-.644 4.273.455 8.226 2.191 12.098-3.974.048-6.811.18-10.436 2.043.077.841.087 1.743.3 2.559-7.034 7.268-3.474 17.722-6.914 21.669l-1.036-.411-2.39 1.175c-5.306 4.033-8.5 8.403-9.482 15.104-.388 2.652-.426 5.922 1.185 8.21 1.242 1.765 4.51 2.273 6.532 2.471 3.062.299 5.977-.478 8.331-2.492 3.633-3.106 5.273-6.412 10.513-6.248 3.459.447 6.973.495 10.32 1.54-.975 2.59-2.068 5.103-1.984 7.925l.099.621.047.444 1.39-.104.592 1.217c-.108 5.305 6.575 11.85 10.073 15.468l.294.301c4.202 3.703 8.379 6.832 13.624 8.945 1.883.758 4.02 1.164 5.837 1.994l-.886.442c-.88-.226-1.751-.46-2.637-.658-2.847-.636-5.456-2.094-8.059-3.373l-.073.298c2.097 1.449 4.306 2.872 6.797 3.511.923.237 1.172.45 1.806 1.133.332 2.562-1.039 4.285-2.666 6.221-.131.156-.284.292-.425.438-.075.138-.147.277-.224.413-1.291 2.282-7.42 8.085-7.773 9.256 2.217-1.543 4.089-3.51 6.606-4.546l.694.434c6.183-2.51 35.629-10.432 41.057-9.069 1.424 2.365.94 6.89.936 9.642.554 4.354 2.105 12.765.343 16.727-.222.499-1.014 1.922-1.038 2.408-.067 1.395 1.745 4.193 1.936 5.937.388 3.537.587 25.266-1.234 26.9-.657 3.718-1.435 7.108-3.148 10.507-3.495 6.937-9.837 12.825-17.289 15.189-5.032 1.597-10.312 1.574-15.536 1.737-9.569.3-18.465.753-27.213-3.792-9.379-4.873-15.262-13.447-18.38-23.377-2.221-.262-4.656-.43-6.761-1.202-5.967-2.191-10.655-7.075-13.27-12.789-3.701-8.091-2.558-15.794.283-23.845-5.58-3.057-10.336-7.189-13.356-12.873-4.318-8.127-5.014-17.141-2.479-25.905l.419-.699c1.028-4.989 4.72-9.007 8.642-12.008-2.133-4.933-3.676-10.044-3.642-15.469.061-9.981 5.745-17.923 12.575-24.636.521-4.577.952-9.328 2.52-13.692 2.328-6.481 6.761-10.935 12.966-13.772.048-5.179.891-9.322 3.172-13.957l.951-1.621c.111-.119.224-.237.334-.358 2.406-2.637 3.539-5.851 4.968-9.061 4.883-10.965 13.691-13.862 24.822-15.139z" fill="#6964cd"/><path d="m420.245 533.47c.602-.908 1.143-1.335 2.051-1.93 1.595-.197 2.746.6 4.11 1.31z" fill="#6964cd"/><path d="m491.33 418.594c3.544 2.545 5.938 5.344 7.548 9.426l-2.185-.121c-1.519-2.476-3.177-4.488-5.148-6.613z" fill="#f8faec"/><path d="m471.338 423.33c2.784-2.772 5.522-4.977 9.407-6.043 3.65-1.002 7.295-.506 10.585 1.307l.215 2.692c-3.368-1.964-6.78-2.761-10.622-1.634-3.808 1.117-6.422 3.444-9.039 6.275z" fill="#eff0ed"/><path d="m417.528 495.366c6.127-7.336.001-16.496 10.04-24.992.077.841.087 1.743.3 2.559-7.034 7.268-3.474 17.722-6.914 21.669l-1.036-.411z" fill="#eff0ed"/><path d="m498.878 428.02c.257.904.616 1.858.738 2.787 2.079 11.645-.054 24.386.66 36.198-1.524.021-3.241-.17-4.638-.785l.701-.334c3.828-4.674.951-24.014 1.982-30.963-.401-2.418-.906-4.674-1.628-7.024z" fill="#eff0ed"/><path d="m443.089 522.941 1.39-.104.592 1.217c-.108 5.305 6.575 11.85 10.073 15.468l.294.301c4.202 3.703 8.379 6.832 13.624 8.945 1.883.758 4.02 1.164 5.837 1.994l-.886.442c-.88-.226-1.751-.46-2.637-.658-2.847-.636-5.456-2.094-8.059-3.373l-.073.298c2.097 1.449 4.306 2.872 6.797 3.511.923.237 1.172.45 1.806 1.133.332 2.562-1.039 4.285-2.666 6.221-.131.156-.284.292-.425.438-.075.138-.147.277-.224.413-1.291 2.282-7.42 8.085-7.773 9.256 2.217-1.543 4.089-3.51 6.606-4.546l.694.434c6.183-2.51 35.629-10.432 41.057-9.069 1.424 2.365.94 6.89.936 9.642.554 4.354 2.105 12.765.343 16.727-.222.499-1.014 1.922-1.038 2.408-.067 1.395 1.745 4.193 1.936 5.937.388 3.537.587 25.266-1.234 26.9-.778-9.221 1.578-22.043-.62-30.676l-.637-.359c-5.437 3.077-8.677 11.005-12.922 15.752-7.339 9.643-12.404 13.684-24.402 16.741 1.298 4.356 2.149 8.807 2.842 13.294 4.265.057 8.386-.014 12.474-1.452.392-.135.778-.284 1.159-.447s.755-.341 1.122-.532.727-.396 1.08-.614c.352-.218.696-.449 1.031-.692s.66-.499.976-.767c.317-.268.622-.547.917-.838s.579-.592.852-.903c.273-.312.534-.634.783-.965 6.587-8.665 2.473-14.733 5.997-22.162l.363.156c1.865 5.541.364 14.397-2.21 19.551-2.613 5.234-7.067 8.985-12.663 10.684-7.179 2.181-29.973 2.709-36.044-.864-4.747-2.794-10.581-13.18-12.098-18.538l.411-.463c1.129.2 1.524.738 2.321 1.507 5.431 5.248 10.407 3.641 17.155 3.638.99-.001 2.087-.154 2.807.552-5.062 3.069-11.657 2.319-17.153 1.058 1.125 2.545 2.171 5.387 3.801 7.655 1.97 2.739 6.155 3.608 9.345 4.162 3.522.612 11.7 1.615 14.604-.403 1.204-4.24-3.195-12.883-3.929-17.706-.336-2.205-.133-4.534.002-6.753-1.432.071-2.865.109-4.299.112-5.381-.034-9.662-2.234-13.37-6.015-1.717-2.641-2.656-5.327-3.511-8.32-2.098 1.344-4.335 2.674-6.152 4.386-4.274 4.027-9.315 11.709-16.183 10.104-3.031-.708-5.174-3.555-6.532-6.18-.454-.879-.788-1.83-1.109-2.765-1.096-1.704-1.308-4.422-1.182-6.402.466-7.274 4.819-13.025 10.058-17.658-5.768-1.339-11.721-2.46-16.537-6.143-4.362-3.336-6.971-8.096-7.631-13.533-.231-.924-.322-1.821-.362-2.77-.204-4.793.944-9.763 4.391-13.266 4.264-4.334 9.587-4.395 15.241-4.572l6.161-.62c6.859-1.851 11.886-4.687 16.683-9.909z" fill="#eff0ed"/><path d="m449.119 540.25 1.836-.987c.929.318 1.352.65 2.038 1.347 5.194 5.449 11.657 9.297 18.483 12.364l-3.172 4.838c-2.544 3.549-5.204 6.946-8.434 9.905-1.322-1.067-2.657-2.307-4.154-3.107-3.509-2.418-7.45-4.281-11.316-6.045-1.075-.522-2.141-1.06-3.2-1.614-1.116-.594-2.129-1.228-2.419-2.558-.505-2.316 1.494-4.915 2.618-6.846 1.814-.961 6.281-5.609 7.72-7.297z" fill="#6964cd"/><path d="m402.912 554.609c-.094-1.333-.4-2.256.257-3.454 7.391-.004 24.782 2.51 31.732 5.107 3.304 1.235 6.075 3.442 9.503 4.66 3.661 1.983 7.406 3.888 10.95 6.072l3.169 2.74c-4.086 4.758-8.923 7.973-14.187 11.302-4.469-3.065-9.362-5.535-14.244-7.866 3.09-3.99 6.579-8.398 7.901-13.347-3.37 2.352-6.336 9.473-8.393 13.141-5.079-1.437-10.879-2.438-15.643-4.67-5.758-2.698-8.928-7.909-11.045-13.685z" fill="#6964cd"/><path d="m443.089 522.941 1.39-.104.592 1.217c-.108 5.305 6.575 11.85 10.073 15.468l.294.301-2.445.787c-.686-.697-1.109-1.029-2.038-1.347l-1.836.987c-1.439 1.688-5.906 6.336-7.72 7.297-1.124 1.931-3.123 4.53-2.618 6.846.29 1.33 1.303 1.964 2.419 2.558 1.059.554 2.125 1.092 3.2 1.614l-.343.817c.209.08.42.156.627.239.776.311.514.117.961.598l-1.241.703c-3.428-1.218-6.199-3.425-9.503-4.66-6.95-2.597-24.341-5.111-31.732-5.107-.657 1.198-.351 2.121-.257 3.454l-1.131-.407-.521-3.356-.285 3.232c-.231-.924-.322-1.821-.362-2.77-.204-4.793.944-9.763 4.391-13.266 4.264-4.334 9.587-4.395 15.241-4.572l6.161-.62c6.859-1.851 11.886-4.687 16.683-9.909z" fill="#f8faec"/><path d="m444.411 541.524c1.462-1.822 3.504-3.116 5.37-4.498-.49 1.232-1.082 1.923-.662 3.224-1.439 1.688-5.906 6.336-7.72 7.297l-.094-.609c.725-1.789 2.655-3.169 3.901-4.669z" fill="#eff0ed"/><path d="m402.679 548.232c3.883-15.516 11.59-10.673 23.32-12.963 6.532-1.276 11.663-4.09 16.768-8.285 2.005 3.633 4.162 7.012 7.014 10.042-1.866 1.382-3.908 2.676-5.37 4.498-4.47 3.366-6.963 7.023-8.62 12.301-10.822-3.057-22.094-3.55-33.112-5.593z" fill="#6964cd"/><path d="m459.32 571.376c5.96 7.809 11.825 12.235 21.807 13.798-6.101 5.837-9.857 11.092-13.642 18.633-5.247.81-9.371.613-13.883-2.625-.579-.422-1.146-.861-1.7-1.316l-2.148.723c-1.717-2.641-2.656-5.327-3.511-8.32l-.276-1.991c-2.122 1.329-4.339 2.648-6.263 4.254-3.302 2.756-10.376 11.6-15.167 10.198-2.148-.629-3.822-3.156-5.177-4.828-2.088-5.524-2.315-10.263.224-15.809.208-.461.432-.915.671-1.361.24-.446.495-.883.764-1.312.27-.428.554-.846.853-1.255s.612-.806.938-1.193c.327-.387.666-.763 1.019-1.126s.717-.714 1.094-1.052.765-.662 1.164-.973.809-.608 1.229-.891l.684.212c4.16 1.315 10.984 3.773 13.807 7.175-.282.662-.587 1.261-.957 1.878 1.633.418 2.873-.378 4.27-1.221 5.184-3.126 10.079-7.166 14.2-11.598z" fill="#6964cd"/><path d="m445.967 590.278c.421-1.326.384-2.146 1.579-2.95 1.861 2.56 1.176 8.002 4.356 12.538l-2.148.723c-1.717-2.641-2.656-5.327-3.511-8.32z" fill="#f8faec"/><path d="m468.059 564.331c6.183-2.51 35.629-10.432 41.057-9.069 1.424 2.365.94 6.89.936 9.642-.068 5.547-.093 11.095-.075 16.643-7.445 4.9-11.613 13.863-17.275 20.634-4.315 5.223-12.063 13.453-19.372 14.067-1.093.091-2.164-.138-2.888-1.028-.828-1.017-.95-2.553-.891-3.812.439-9.435 5.912-18.417 12.591-24.726 4.474-4.227 13.279-4.041 16.221-10.017-.023-1.383-.074-1.617-.784-2.8-1.582.208-3.581 2.57-4.945 3.594-4.378 3.284-10.026 5.411-15.543 4.423-7.126-1.277-12.182-6.518-16.229-12.116 2.176-2.001 4.767-3.757 7.197-5.435z" fill="#6964cd"/></g></g></svg>